<svg xmlns="http://www.w3.org/2000/svg" xmlns:xlink="http://www.w3.org/1999/xlink" contentStyleType="text/css" data-diagram-type="SEQUENCE" height="497px" preserveAspectRatio="none" style="width:560px;height:497px;background:#FFFFFF;" version="1.1" viewBox="0 0 560 497" width="560px" zoomAndPan="magnify"><title>Eksempel p&#229; enkel flyt</title><defs/><g><text fill="#000000" font-family="sans-serif" font-size="14" font-weight="bold" lengthAdjust="spacing" textLength="179.4707" x="183.8831" y="40.6357">Eksempel p&#229; enkel flyt</text><g><title>API</title><rect fill="#FFFFFF" height="241.8672" style="stroke:#181818;stroke-width:1;" width="10" x="274.4155" y="141.2344"/></g><g><title>LMR</title><rect fill="#FFFFFF" height="241.8672" style="stroke:#181818;stroke-width:1;" width="10" x="520.2368" y="141.2344"/></g><rect fill="#FFFFFF" fill-opacity="0.00000" height="119.3359" style="stroke:#000000;stroke-width:1.5;" width="303.9155" x="10" y="206.5"/><g><title>Klient</title><rect fill="#FFFFFF" fill-opacity="0.00000" height="269.8672" width="8" x="38.9678" y="131.2344"/><line style="stroke:#181818;stroke-width:0.5;stroke-dasharray:5.0,5.0;" x1="42" x2="42" y1="131.2344" y2="401.1016"/></g><g><title>API</title><rect fill="#FFFFFF" fill-opacity="0.00000" height="269.8672" width="8" x="275.4155" y="131.2344"/><line style="stroke:#181818;stroke-width:0.5;stroke-dasharray:5.0,5.0;" x1="278.9155" x2="278.9155" y1="131.2344" y2="401.1016"/></g><g><title>LMR</title><rect fill="#FFFFFF" fill-opacity="0.00000" height="269.8672" width="8" x="521.2368" y="131.2344"/><line style="stroke:#181818;stroke-width:0.5;stroke-dasharray:5.0,5.0;" x1="525.2368" x2="525.2368" y1="131.2344" y2="401.1016"/></g><text fill="#000000" font-family="sans-serif" font-size="14" lengthAdjust="spacing" textLength="39.9355" x="20" y="127.9326">Klient</text><ellipse cx="42.9678" cy="63.4375" fill="#E2E2F0" rx="8" ry="8" style="stroke:#181818;stroke-width:0.5;"/><path d="M42.9678,71.4375 L42.9678,98.4375 M29.9678,79.4375 L55.9678,79.4375 M42.9678,98.4375 L29.9678,113.4375 M42.9678,98.4375 L55.9678,113.4375 " fill="#FFFFFF" fill-opacity="0.00000" style="stroke:#181818;stroke-width:0.5;"/><text fill="#000000" font-family="sans-serif" font-size="14" lengthAdjust="spacing" textLength="39.9355" x="20" y="413.0967">Klient</text><ellipse cx="42.9678" cy="424.8984" fill="#E2E2F0" rx="8" ry="8" style="stroke:#181818;stroke-width:0.5;"/><path d="M42.9678,432.8984 L42.9678,459.8984 M29.9678,440.8984 L55.9678,440.8984 M42.9678,459.8984 L29.9678,474.8984 M42.9678,459.8984 L55.9678,474.8984 " fill="#FFFFFF" fill-opacity="0.00000" style="stroke:#181818;stroke-width:0.5;"/><text fill="#000000" font-family="sans-serif" font-size="14" lengthAdjust="spacing" textLength="22.1484" x="265.3413" y="127.9326">API</text><path d="M258.9155,86.9375 L258.9155,110.9375 M258.9155,98.9375 L275.9155,98.9375 " fill="#FFFFFF" fill-opacity="0.00000" style="stroke:#181818;stroke-width:0.5;"/><ellipse cx="287.9155" cy="98.9375" fill="#E2E2F0" rx="12" ry="12" style="stroke:#181818;stroke-width:0.5;"/><text fill="#000000" font-family="sans-serif" font-size="14" lengthAdjust="spacing" textLength="22.1484" x="265.3413" y="413.0967">API</text><path d="M258.9155,420.3984 L258.9155,444.3984 M258.9155,432.3984 L275.9155,432.3984 " fill="#FFFFFF" fill-opacity="0.00000" style="stroke:#181818;stroke-width:0.5;"/><ellipse cx="287.9155" cy="432.3984" fill="#E2E2F0" rx="12" ry="12" style="stroke:#181818;stroke-width:0.5;"/><text fill="#000000" font-family="sans-serif" font-size="14" lengthAdjust="spacing" textLength="29.6064" x="507.4336" y="127.9326">LMR</text><path d="M507.2368,78.9375 C507.2368,68.9375 525.2368,68.9375 525.2368,68.9375 C525.2368,68.9375 543.2368,68.9375 543.2368,78.9375 L543.2368,104.9375 C543.2368,114.9375 525.2368,114.9375 525.2368,114.9375 C525.2368,114.9375 507.2368,114.9375 507.2368,104.9375 L507.2368,78.9375 " fill="#E2E2F0" style="stroke:#181818;stroke-width:1.5;"/><path d="M507.2368,78.9375 C507.2368,88.9375 525.2368,88.9375 525.2368,88.9375 C525.2368,88.9375 543.2368,88.9375 543.2368,78.9375 " fill="#FFFFFF" fill-opacity="0.00000" style="stroke:#181818;stroke-width:1.5;"/><text fill="#000000" font-family="sans-serif" font-size="14" lengthAdjust="spacing" textLength="29.6064" x="507.4336" y="413.0967">LMR</text><path d="M507.2368,426.3984 C507.2368,416.3984 525.2368,416.3984 525.2368,416.3984 C525.2368,416.3984 543.2368,416.3984 543.2368,426.3984 L543.2368,452.3984 C543.2368,462.3984 525.2368,462.3984 525.2368,462.3984 C525.2368,462.3984 507.2368,462.3984 507.2368,452.3984 L507.2368,426.3984 " fill="#E2E2F0" style="stroke:#181818;stroke-width:1.5;"/><path d="M507.2368,426.3984 C507.2368,436.3984 525.2368,436.3984 525.2368,436.3984 C525.2368,436.3984 543.2368,436.3984 543.2368,426.3984 " fill="#FFFFFF" fill-opacity="0.00000" style="stroke:#181818;stroke-width:1.5;"/><g><title>API</title><rect fill="#FFFFFF" height="241.8672" style="stroke:#181818;stroke-width:1;" width="10" x="274.4155" y="141.2344"/></g><g><title>LMR</title><rect fill="#FFFFFF" height="241.8672" style="stroke:#181818;stroke-width:1;" width="10" x="520.2368" y="141.2344"/></g><polygon fill="#181818" points="262.4155,158.3672,272.4155,162.3672,262.4155,166.3672,266.4155,162.3672" style="stroke:#181818;stroke-width:1;"/><line style="stroke:#181818;stroke-width:1;" x1="42.9678" x2="268.4155" y1="162.3672" y2="162.3672"/><text fill="#000000" font-family="sans-serif" font-size="13" lengthAdjust="spacing" textLength="75.2896" x="49.9678" y="157.3013">Autentisere</text><polygon fill="#181818" points="53.9678,187.5,43.9678,191.5,53.9678,195.5,49.9678,191.5" style="stroke:#181818;stroke-width:1;"/><line style="stroke:#181818;stroke-width:1;" x1="47.9678" x2="273.4155" y1="191.5" y2="191.5"/><text fill="#000000" font-family="sans-serif" font-size="13" lengthAdjust="spacing" textLength="105.4219" x="59.9678" y="186.4341">Autentisert (OK)</text><path d="M10,206.5 L74.4429,206.5 L74.4429,213.6328 L64.4429,223.6328 L10,223.6328 L10,206.5 " fill="#EEEEEE" style="stroke:#000000;stroke-width:1.5;"/><rect fill="#FFFFFF" fill-opacity="0.00000" height="119.3359" style="stroke:#000000;stroke-width:1.5;" width="303.9155" x="10" y="206.5"/><text fill="#000000" font-family="sans-serif" font-size="13" font-weight="bold" lengthAdjust="spacing" textLength="19.4429" x="25" y="219.5669">alt</text><text fill="#000000" font-family="sans-serif" font-size="11" font-weight="bold" lengthAdjust="spacing" textLength="136.8501" x="89.4429" y="218.7104">["Registrere Pasient"]</text><polygon fill="#181818" points="262.4155,240.7656,272.4155,244.7656,262.4155,248.7656,266.4155,244.7656" style="stroke:#181818;stroke-width:1;"/><line style="stroke:#181818;stroke-width:1;" x1="42.9678" x2="268.4155" y1="244.7656" y2="244.7656"/><text fill="#000000" font-family="sans-serif" font-size="13" lengthAdjust="spacing" textLength="95.7417" x="49.9678" y="239.6997">S&#248;k p&#229; Pasient</text><polygon fill="#181818" points="53.9678,269.8984,43.9678,273.8984,53.9678,277.8984,49.9678,273.8984" style="stroke:#181818;stroke-width:1;"/><line style="stroke:#181818;stroke-width:1;" x1="47.9678" x2="273.4155" y1="273.8984" y2="273.8984"/><text fill="#000000" font-family="sans-serif" font-size="13" lengthAdjust="spacing" textLength="108.9512" x="59.9678" y="268.8325">Return&#233;r Pasient</text><line style="stroke:#000000;stroke-width:1;stroke-dasharray:2.0,2.0;" x1="10" x2="313.9155" y1="282.8984" y2="282.8984"/><text fill="#000000" font-family="sans-serif" font-size="11" font-weight="bold" lengthAdjust="spacing" textLength="66.4404" x="15" y="293.1089">[Hvis ikke]</text><polygon fill="#181818" points="262.4155,313.8359,272.4155,317.8359,262.4155,321.8359,266.4155,317.8359" style="stroke:#181818;stroke-width:1;"/><line style="stroke:#181818;stroke-width:1;" x1="42.9678" x2="268.4155" y1="317.8359" y2="317.8359"/><text fill="#000000" font-family="sans-serif" font-size="13" lengthAdjust="spacing" textLength="84.0874" x="49.9678" y="312.77">Skriv Pasient</text><polygon fill="#181818" points="262.4155,349.9688,272.4155,353.9688,262.4155,357.9688,266.4155,353.9688" style="stroke:#181818;stroke-width:1;"/><line style="stroke:#181818;stroke-width:1;" x1="42.9678" x2="268.4155" y1="353.9688" y2="353.9688"/><text fill="#000000" font-family="sans-serif" font-size="13" lengthAdjust="spacing" textLength="207.4478" x="49.9678" y="348.9028">Skriv Legemiddeladministrering</text><polygon fill="#181818" points="513.2368,379.1016,523.2368,383.1016,513.2368,387.1016,517.2368,383.1016" style="stroke:#181818;stroke-width:1;"/><line style="stroke:#181818;stroke-width:1;" x1="279.4155" x2="519.2368" y1="383.1016" y2="383.1016"/><text fill="#000000" font-family="sans-serif" font-size="13" lengthAdjust="spacing" textLength="211.8213" x="286.4155" y="378.0356">Lagre Legemiddeladministrering</text><text fill="#888888" font-family="sans-serif" font-size="10" lengthAdjust="spacing" textLength="275.8008" x="271.436" y="14.2822">Legemiddeldata fra institusjon til Legemiddelregisteret</text><text fill="#888888" font-family="sans-serif" font-size="10" lengthAdjust="spacing" textLength="102.4219" x="222.4075" y="486.6807">Folkehelseinstituttet</text><!--SRC=[TP51JiD034NtSmehArXm0HP8NO10RKNLdi1bdDJCP2QQSOfw81RSW7qlXYSDfAYmY-Ftl_qzsN7eC64BcntQ-CQXWHfz9cE4nHDKzovJsv67xlWE59n-rVuWbTaHMafGBQYXbgqbRr4GweJ08QkwpwynWB272KdKS1PAf0PrZ58C7g9tj2CTEkf4IjlWYyG4SyyKn6nZ7ooc0ynMJwOCsc8cWCLoFO2yHw6XT-BXvgvKS0kpNhJch3DD-QED4Jdl2Lmzpw_LoWjKws79f0fOOIviTM6xENwwuIGZSU6z9kbJE7wa7w8aXCSzPs3dwDBH9TvFSB1dmKhCl_dfj6XR3gUzzHM_zr6biWjiDCo_hALV9pmhLVu5]--></g></svg>