<?xml version="1.0" encoding="utf-8" standalone="yes"?>
<!DOCTYPE svg PUBLIC "-//W3C//DTD SVG 1.1//EN" "http://www.w3.org/Graphics/SVG/1.1/DTD/svg11.dtd">
<svg width="759" height="446" viewBox="0 0 759 446" style="fill:none;stroke:none;fill-rule:evenodd;clip-rule:evenodd;stroke-linecap:round;stroke-linejoin:round;stroke-miterlimit:1.5;" version="1.1" xmlns="http://www.w3.org/2000/svg" xmlns:xlink="http://www.w3.org/1999/xlink"><style id="fontImports">@import url("https://fonts.googleapis.com/css2?family=Roboto:wght@400;700&amp;display=block");</style><rect id="" x="0" y="0" width="758" height="446" style="fill: #ffffff;"></rect><g id="items" style="isolation: isolate"><g id="blend" style="mix-blend-mode: normal"><g id="g-root-tf_hwjg6nkuzmdp-fill" data-item-order="-335664" transform="translate(-9, -9)"><g id="tf_hwjg6nkuzmdp-fill" stroke="none" fill="#ffffff"><g><path d="M 10.000061 10L 766.000061 10L 766.000061 454L 10.000061 454Z"></path></g></g></g><g id="g-root-1.cu_sy_dfgzvzkuzkzk-fill" data-item-order="-128140" transform="translate(15, 99)"><g id="1.cu_sy_dfgzvzkuzkzk-fill" stroke="none" fill="#edf4ff"><g><path d="M 10 106L 10 10L 226 10L 178 34L 178 106L 10 106Z"></path></g></g></g><g id="g-root-2.cu_sy_4jtzn3kuzls9-fill" data-item-order="-128136" transform="translate(183.00009155273438, 99)"><g id="2.cu_sy_4jtzn3kuzls9-fill" stroke="none" fill="#e3fff2"><g><path d="M 10 130L 10 34L 226 34L 178 58L 178 130L 10 130ZM 58 10L 58 34L 10 34L 58 10Z"></path></g></g></g><g id="g-root-3.cu_sy_4jtzn3kuzlsa-fill" data-item-order="-128132" transform="translate(351.00006103515625, 123)"><g id="3.cu_sy_4jtzn3kuzlsa-fill" stroke="none" fill="#f4ffdc"><g><path d="M 10 130L 10 34L 226 34L 178 58L 178 130L 10 130ZM 58.000022 10L 58.000022 34L 10.000122 34L 58.000022 10Z"></path></g></g></g><g id="g-root-4.cu_sy_40hinkuzmkj-fill" data-item-order="-128128" transform="translate(519.0001220703125, 147)"><g id="4.cu_sy_40hinkuzmkj-fill" stroke="none" fill="#e8f9ff"><g><path d="M 10 130L 10 34L 166 34L 166 22L 214 82L 166 143L 166 130L 10 130ZM 57.9999 10L 57.9999 34L 10 34L 57.9999 10Z"></path></g></g></g><g id="g-root-tx_komprime_1q9hj8vkuzn65-fill" data-item-order="0" transform="translate(45, 123)"><g id="tx_komprime_1q9hj8vkuzn65-fill" stroke="none" fill="#4e88e7"><g><text style="font: 20px Roboto, sans-serif; white-space: pre;" font-size="20px" font-family="Roboto, sans-serif"><tspan x="12" y="34" dominant-baseline="ideographic">Komprimer </tspan><tspan x="18.51" y="58" dominant-baseline="ideographic">Med GZip</tspan></text></g></g></g><g id="g-root-tx_krypterm_1luai7jkuzksn-fill" data-item-order="0" transform="translate(207, 147)"><g id="tx_krypterm_1luai7jkuzksn-fill" stroke="none" fill="#3cc583"><g><text style="font: 20px Roboto, sans-serif; white-space: pre;" font-size="20px" font-family="Roboto, sans-serif"><tspan x="13.3" y="34" dominant-baseline="ideographic">Krypter Med </tspan><tspan x="24.55" y="58" dominant-baseline="ideographic">AES-GCM</tspan></text></g></g></g><g id="g-root-tx_kryptera_18itzu7kuzmdl-fill" data-item-order="0" transform="translate(375, 159)"><g id="tx_kryptera_18itzu7kuzmdl-fill" stroke="none" fill="#92bd39"><g><text style="font: 20px Roboto, sans-serif; white-space: pre;" font-size="20px" font-family="Roboto, sans-serif"><tspan x="14.23" y="34" dominant-baseline="ideographic">Krypter AES-</tspan><tspan x="18.56" y="58" dominant-baseline="ideographic">nøkkel Med </tspan><tspan x="51.06" y="82" dominant-baseline="ideographic">RSA</tspan></text></g></g></g><g id="g-root-tx_reduserm_1luai7jkuzksm-fill" data-item-order="0" transform="translate(27, 219)"><g id="tx_reduserm_1luai7jkuzksm-fill" stroke="none" fill="#484848"><g><text style="font: 20px Roboto, sans-serif; white-space: pre;" font-size="20px" font-family="Roboto, sans-serif"><tspan x="12" y="34" dominant-baseline="ideographic">Reduserer </tspan><tspan x="12" y="58" dominant-baseline="ideographic">meldingens </tspan><tspan x="12" y="82" dominant-baseline="ideographic">størrelse for </tspan><tspan x="12" y="106" dominant-baseline="ideographic">effektiv </tspan><tspan x="12" y="130" dominant-baseline="ideographic">kryptering og </tspan><tspan x="12" y="154" dominant-baseline="ideographic">overføring</tspan></text></g></g></g><g id="g-root-tx_signerin_1430hprkuzn5v-fill" data-item-order="0" transform="translate(537, 207)"><g id="tx_signerin_1430hprkuzn5v-fill" stroke="none" fill="#1eabda"><g><text style="font: 20px Roboto, sans-serif; white-space: pre;" font-size="20px" font-family="Roboto, sans-serif"><tspan x="12.27" y="34" dominant-baseline="ideographic">Signer Innhold</tspan></text></g></g></g><g id="g-root-tx_krypterd_1heh033kuzlkw-fill" data-item-order="0" transform="translate(195, 243)"><g id="tx_krypterd_1heh033kuzlkw-fill" stroke="none" fill="#484848"><g><text style="font: 20px Roboto, sans-serif; white-space: pre;" font-size="20px" font-family="Roboto, sans-serif"><tspan x="12" y="34" dominant-baseline="ideographic">Krypter data for </tspan><tspan x="12" y="58" dominant-baseline="ideographic">konfidensialitet </tspan><tspan x="12" y="82" dominant-baseline="ideographic">og integritet</tspan></text></g></g></g><g id="g-root-tx_beskyttn_1430hprkuzn5u-fill" data-item-order="0" transform="translate(363, 267)"><g id="tx_beskyttn_1430hprkuzn5u-fill" stroke="none" fill="#484848"><g><text style="font: 20px Roboto, sans-serif; white-space: pre;" font-size="20px" font-family="Roboto, sans-serif"><tspan x="12" y="34" dominant-baseline="ideographic">Beskytt </tspan><tspan x="12" y="58" dominant-baseline="ideographic">nøkkelen med </tspan><tspan x="12" y="82" dominant-baseline="ideographic">asymmetrisk </tspan><tspan x="12" y="106" dominant-baseline="ideographic">kryptering</tspan></text></g></g></g><g id="g-root-tx_bekrefta_v7zyjzkuzkss-fill" data-item-order="0" transform="translate(531, 291)"><g id="tx_bekrefta_v7zyjzkuzkss-fill" stroke="none" fill="#484848"><g><text style="font: 20px Roboto, sans-serif; white-space: pre;" font-size="20px" font-family="Roboto, sans-serif"><tspan x="12" y="34" dominant-baseline="ideographic">Bekreft </tspan><tspan x="12" y="58" dominant-baseline="ideographic">avsenderens </tspan><tspan x="12" y="82" dominant-baseline="ideographic">identitet og </tspan><tspan x="12" y="106" dominant-baseline="ideographic">integritet</tspan></text></g></g></g><g id="g-root-tf_hwjg6nkuzmdp-stroke" data-item-order="-335664" transform="translate(-9, -9)"></g><g id="g-root-1.cu_sy_dfgzvzkuzkzk-stroke" data-item-order="-128140" transform="translate(15, 99)"><g id="1.cu_sy_dfgzvzkuzkzk-stroke" fill="none" stroke-linecap="round" stroke-linejoin="round" stroke-miterlimit="4" stroke="#4e88e7" stroke-width="2"><g><path d="M 10 106L 10 10L 226 10L 178 34L 178 106L 10 106Z"></path></g></g></g><g id="g-root-2.cu_sy_4jtzn3kuzls9-stroke" data-item-order="-128136" transform="translate(183.00009155273438, 99)"><g id="2.cu_sy_4jtzn3kuzls9-stroke" fill="none" stroke-linecap="round" stroke-linejoin="round" stroke-miterlimit="4" stroke="#3cc583" stroke-width="2"><g><path d="M 10 130L 10 34L 226 34L 178 58L 178 130L 10 130ZM 58 10L 58 34L 10 34L 58 10Z"></path></g></g></g><g id="g-root-3.cu_sy_4jtzn3kuzlsa-stroke" data-item-order="-128132" transform="translate(351.00006103515625, 123)"><g id="3.cu_sy_4jtzn3kuzlsa-stroke" fill="none" stroke-linecap="round" stroke-linejoin="round" stroke-miterlimit="4" stroke="#92bd39" stroke-width="2"><g><path d="M 10 130L 10 34L 226 34L 178 58L 178 130L 10 130ZM 58.000022 10L 58.000022 34L 10.000122 34L 58.000022 10Z"></path></g></g></g><g id="g-root-4.cu_sy_40hinkuzmkj-stroke" data-item-order="-128128" transform="translate(519.0001220703125, 147)"><g id="4.cu_sy_40hinkuzmkj-stroke" fill="none" stroke-linecap="round" stroke-linejoin="round" stroke-miterlimit="4" stroke="#1eabda" stroke-width="2"><g><path d="M 10 130L 10 34L 166 34L 166 22L 214 82L 166 143L 166 130L 10 130ZM 57.9999 10L 57.9999 34L 10 34L 57.9999 10Z"></path></g></g></g><g id="g-root-tx_komprime_1q9hj8vkuzn65-stroke" data-item-order="0" transform="translate(45, 123)"></g><g id="g-root-tx_krypterm_1luai7jkuzksn-stroke" data-item-order="0" transform="translate(207, 147)"></g><g id="g-root-tx_kryptera_18itzu7kuzmdl-stroke" data-item-order="0" transform="translate(375, 159)"></g><g id="g-root-tx_reduserm_1luai7jkuzksm-stroke" data-item-order="0" transform="translate(27, 219)"></g><g id="g-root-tx_signerin_1430hprkuzn5v-stroke" data-item-order="0" transform="translate(537, 207)"></g><g id="g-root-tx_krypterd_1heh033kuzlkw-stroke" data-item-order="0" transform="translate(195, 243)"></g><g id="g-root-tx_beskyttn_1430hprkuzn5u-stroke" data-item-order="0" transform="translate(363, 267)"></g><g id="g-root-tx_bekrefta_v7zyjzkuzkss-stroke" data-item-order="0" transform="translate(531, 291)"></g></g></g></svg>