<svg xmlns="http://www.w3.org/2000/svg" xmlns:xlink="http://www.w3.org/1999/xlink" contentStyleType="text/css" height="487px" preserveAspectRatio="none" style="width:863px;height:487px;background:#FFFFFF;" version="1.1" viewBox="0 0 863 487" width="863px" zoomAndPan="magnify"><defs/><g><text fill="#888888" font-family="sans-serif" font-size="10" lengthAdjust="spacing" textLength="263" x="586.02" y="9.2822">Legemiddeldata fra institusjon til Legemiddelregisteret</text><text fill="#000000" font-family="sans-serif" font-size="14" font-weight="bold" lengthAdjust="spacing" textLength="359" x="245.01" y="35.6357">Informasjonsmodell: UML klassediagam - MVP</text><!--class Pasient--><g id="elem_Pasient"><rect codeLine="5" fill="#00FFFF" height="56.2656" id="Pasient" rx="2.5" ry="2.5" style="stroke:#181818;stroke-width:0.5;" width="87" x="443.52" y="405.7275"/><ellipse cx="458.52" cy="425.8603" fill="#ADD1B2" rx="11" ry="11" style="stroke:#181818;stroke-width:1.0;"/><path d="M461.4888,431.5009 Q460.9106,431.7978 460.27,431.9384 Q459.6294,432.0947 458.9263,432.0947 Q456.4263,432.0947 455.0981,430.4541 Q453.7856,428.7978 453.7856,425.6728 Q453.7856,422.5478 455.0981,420.8916 Q456.4263,419.2353 458.9263,419.2353 Q459.6294,419.2353 460.27,419.3916 Q460.9263,419.5478 461.4888,419.8447 L461.4888,422.5634 Q460.8638,421.9853 460.27,421.7197 Q459.6763,421.4384 459.0513,421.4384 Q457.7075,421.4384 457.02,422.5166 Q456.3325,423.5791 456.3325,425.6728 Q456.3325,427.7666 457.02,428.8447 Q457.7075,429.9072 459.0513,429.9072 Q459.6763,429.9072 460.27,429.6416 Q460.8638,429.3603 461.4888,428.7822 L461.4888,431.5009 Z " fill="#000000"/><text fill="#000000" font-family="sans-serif" font-size="12" font-style="italic" lengthAdjust="spacing" textLength="59" x="470.52" y="421.8662">&#171;Patient&#187;</text><text fill="#000000" font-family="sans-serif" font-size="14" lengthAdjust="spacing" textLength="51" x="474.52" y="437.6914">Pasient</text><line style="stroke:#181818;stroke-width:0.5;" x1="444.52" x2="529.52" y1="445.9931" y2="445.9931"/><line style="stroke:#181818;stroke-width:0.5;" x1="444.52" x2="529.52" y1="453.9931" y2="453.9931"/></g><!--class Legemiddeladministrasjon--><g id="elem_Legemiddeladministrasjon"><rect codeLine="8" fill="#00FFFF" height="56.2656" id="Legemiddeladministrasjon" rx="2.5" ry="2.5" style="stroke:#181818;stroke-width:0.5;" width="212" x="232.02" y="56.9375"/><ellipse cx="247.02" cy="77.0703" fill="#ADD1B2" rx="11" ry="11" style="stroke:#181818;stroke-width:1.0;"/><path d="M249.9887,82.7109 Q249.4106,83.0078 248.77,83.1484 Q248.1294,83.3047 247.4262,83.3047 Q244.9262,83.3047 243.5981,81.6641 Q242.2856,80.0078 242.2856,76.8828 Q242.2856,73.7578 243.5981,72.1016 Q244.9262,70.4453 247.4262,70.4453 Q248.1294,70.4453 248.77,70.6016 Q249.4262,70.7578 249.9887,71.0547 L249.9887,73.7734 Q249.3637,73.1953 248.77,72.9297 Q248.1762,72.6484 247.5512,72.6484 Q246.2075,72.6484 245.52,73.7266 Q244.8325,74.7891 244.8325,76.8828 Q244.8325,78.9766 245.52,80.0547 Q246.2075,81.1172 247.5512,81.1172 Q248.1762,81.1172 248.77,80.8516 Q249.3637,80.5703 249.9887,79.9922 L249.9887,82.7109 Z " fill="#000000"/><text fill="#000000" font-family="sans-serif" font-size="12" font-style="italic" lengthAdjust="spacing" textLength="172" x="265.02" y="73.0762">&#171;MedicationAdministration&#187;</text><text fill="#000000" font-family="sans-serif" font-size="14" lengthAdjust="spacing" textLength="180" x="261.02" y="88.9014">Legemiddeladministrasjon</text><line style="stroke:#181818;stroke-width:0.5;" x1="233.02" x2="443.02" y1="97.2031" y2="97.2031"/><line style="stroke:#181818;stroke-width:0.5;" x1="233.02" x2="443.02" y1="105.2031" y2="105.2031"/></g><!--class Legemiddel--><g id="elem_Legemiddel"><rect codeLine="18" fill="#00FFFF" height="56.2656" id="Legemiddel" rx="2.5" ry="2.5" style="stroke:#181818;stroke-width:0.5;" width="112" x="98.02" y="289.4675"/><ellipse cx="113.02" cy="309.6003" fill="#ADD1B2" rx="11" ry="11" style="stroke:#181818;stroke-width:1.0;"/><path d="M115.9888,315.2409 Q115.4106,315.5378 114.77,315.6784 Q114.1294,315.8347 113.4263,315.8347 Q110.9263,315.8347 109.5981,314.1941 Q108.2856,312.5378 108.2856,309.4128 Q108.2856,306.2878 109.5981,304.6316 Q110.9263,302.9753 113.4263,302.9753 Q114.1294,302.9753 114.77,303.1316 Q115.4263,303.2878 115.9888,303.5847 L115.9888,306.3034 Q115.3638,305.7253 114.77,305.4597 Q114.1763,305.1784 113.5513,305.1784 Q112.2075,305.1784 111.52,306.2566 Q110.8325,307.3191 110.8325,309.4128 Q110.8325,311.5066 111.52,312.5847 Q112.2075,313.6472 113.5513,313.6472 Q114.1763,313.6472 114.77,313.3816 Q115.3638,313.1003 115.9888,312.5222 L115.9888,315.2409 Z " fill="#000000"/><text fill="#000000" font-family="sans-serif" font-size="12" font-style="italic" lengthAdjust="spacing" textLength="82" x="126.02" y="305.6062">&#171;Medication&#187;</text><text fill="#000000" font-family="sans-serif" font-size="14" lengthAdjust="spacing" textLength="80" x="127.02" y="321.4314">Legemiddel</text><line style="stroke:#181818;stroke-width:0.5;" x1="99.02" x2="209.02" y1="329.7331" y2="329.7331"/><line style="stroke:#181818;stroke-width:0.5;" x1="99.02" x2="209.02" y1="337.7331" y2="337.7331"/></g><!--class Helsepersonell--><g id="elem_Helsepersonell"><rect codeLine="21" fill="#F1F1F1" height="56.2656" id="Helsepersonell" rx="2.5" ry="2.5" style="stroke:#181818;stroke-width:0.5;" width="135" x="245.52" y="289.4675"/><ellipse cx="260.52" cy="309.6003" fill="#ADD1B2" rx="11" ry="11" style="stroke:#181818;stroke-width:1.0;"/><path d="M263.4888,315.2409 Q262.9106,315.5378 262.27,315.6784 Q261.6294,315.8347 260.9263,315.8347 Q258.4263,315.8347 257.0981,314.1941 Q255.7856,312.5378 255.7856,309.4128 Q255.7856,306.2878 257.0981,304.6316 Q258.4263,302.9753 260.9263,302.9753 Q261.6294,302.9753 262.27,303.1316 Q262.9263,303.2878 263.4888,303.5847 L263.4888,306.3034 Q262.8638,305.7253 262.27,305.4597 Q261.6763,305.1784 261.0513,305.1784 Q259.7075,305.1784 259.02,306.2566 Q258.3325,307.3191 258.3325,309.4128 Q258.3325,311.5066 259.02,312.5847 Q259.7075,313.6472 261.0513,313.6472 Q261.6763,313.6472 262.27,313.3816 Q262.8638,313.1003 263.4888,312.5222 L263.4888,315.2409 Z " fill="#000000"/><text fill="#000000" font-family="sans-serif" font-size="12" font-style="italic" lengthAdjust="spacing" textLength="87" x="282.52" y="305.6062">&#171;Practitioner&#187;</text><text fill="#000000" font-family="sans-serif" font-size="14" lengthAdjust="spacing" textLength="103" x="274.52" y="321.4314">Helsepersonell</text><line style="stroke:#181818;stroke-width:0.5;" x1="246.52" x2="379.52" y1="329.7331" y2="329.7331"/><line style="stroke:#181818;stroke-width:0.5;" x1="246.52" x2="379.52" y1="337.7331" y2="337.7331"/></g><!--class Organisasjon--><g id="elem_Organisasjon"><rect codeLine="23" fill="#F1F1F1" height="56.2656" id="Organisasjon" rx="2.5" ry="2.5" style="stroke:#181818;stroke-width:0.5;" width="122" x="699.02" y="289.4675"/><ellipse cx="714.02" cy="309.6003" fill="#ADD1B2" rx="11" ry="11" style="stroke:#181818;stroke-width:1.0;"/><path d="M716.9888,315.2409 Q716.4106,315.5378 715.77,315.6784 Q715.1294,315.8347 714.4263,315.8347 Q711.9263,315.8347 710.5981,314.1941 Q709.2856,312.5378 709.2856,309.4128 Q709.2856,306.2878 710.5981,304.6316 Q711.9263,302.9753 714.4263,302.9753 Q715.1294,302.9753 715.77,303.1316 Q716.4263,303.2878 716.9888,303.5847 L716.9888,306.3034 Q716.3638,305.7253 715.77,305.4597 Q715.1763,305.1784 714.5513,305.1784 Q713.2075,305.1784 712.52,306.2566 Q711.8325,307.3191 711.8325,309.4128 Q711.8325,311.5066 712.52,312.5847 Q713.2075,313.6472 714.5513,313.6472 Q715.1763,313.6472 715.77,313.3816 Q716.3638,313.1003 716.9888,312.5222 L716.9888,315.2409 Z " fill="#000000"/><text fill="#000000" font-family="sans-serif" font-size="12" font-style="italic" lengthAdjust="spacing" textLength="92" x="727.02" y="305.6062">&#171;Organization&#187;</text><text fill="#000000" font-family="sans-serif" font-size="14" lengthAdjust="spacing" textLength="90" x="728.02" y="321.4314">Organisasjon</text><line style="stroke:#181818;stroke-width:0.5;" x1="700.02" x2="820.02" y1="329.7331" y2="329.7331"/><line style="stroke:#181818;stroke-width:0.5;" x1="700.02" x2="820.02" y1="337.7331" y2="337.7331"/></g><!--class Rekvisisjon--><g id="elem_Rekvisisjon"><rect codeLine="40" fill="#F1F1F1" height="56.2656" id="Rekvisisjon" rx="2.5" ry="2.5" style="stroke:#181818;stroke-width:0.5;" width="162" x="324.02" y="173.1975"/><ellipse cx="339.02" cy="193.3303" fill="#ADD1B2" rx="11" ry="11" style="stroke:#181818;stroke-width:1.0;"/><path d="M341.9888,198.9709 Q341.4106,199.2678 340.77,199.4084 Q340.1294,199.5647 339.4263,199.5647 Q336.9263,199.5647 335.5981,197.9241 Q334.2856,196.2678 334.2856,193.1428 Q334.2856,190.0178 335.5981,188.3616 Q336.9263,186.7053 339.4263,186.7053 Q340.1294,186.7053 340.77,186.8616 Q341.4263,187.0178 341.9888,187.3147 L341.9888,190.0334 Q341.3638,189.4553 340.77,189.1897 Q340.1763,188.9084 339.5513,188.9084 Q338.2075,188.9084 337.52,189.9866 Q336.8325,191.0491 336.8325,193.1428 Q336.8325,195.2366 337.52,196.3147 Q338.2075,197.3772 339.5513,197.3772 Q340.1763,197.3772 340.77,197.1116 Q341.3638,196.8303 341.9888,196.2522 L341.9888,198.9709 Z " fill="#000000"/><text fill="#000000" font-family="sans-serif" font-size="12" font-style="italic" lengthAdjust="spacing" textLength="134" x="351.02" y="189.3362">&#171;MedicationRequest&#187;</text><text fill="#000000" font-family="sans-serif" font-size="14" lengthAdjust="spacing" textLength="77" x="379.52" y="205.1614">Rekvisisjon</text><line style="stroke:#181818;stroke-width:0.5;" x1="325.02" x2="485.02" y1="213.4631" y2="213.4631"/><line style="stroke:#181818;stroke-width:0.5;" x1="325.02" x2="485.02" y1="221.4631" y2="221.4631"/></g><!--class Institusjonsopphold--><g id="elem_Institusjonsopphold"><rect codeLine="28" fill="#F1F1F1" height="56.2656" id="Institusjonsopphold" rx="2.5" ry="2.5" style="stroke:#181818;stroke-width:0.5;" width="168" x="539.02" y="173.1975"/><ellipse cx="554.02" cy="193.3303" fill="#ADD1B2" rx="11" ry="11" style="stroke:#181818;stroke-width:1.0;"/><path d="M556.9888,198.9709 Q556.4106,199.2678 555.77,199.4084 Q555.1294,199.5647 554.4263,199.5647 Q551.9263,199.5647 550.5981,197.9241 Q549.2856,196.2678 549.2856,193.1428 Q549.2856,190.0178 550.5981,188.3616 Q551.9263,186.7053 554.4263,186.7053 Q555.1294,186.7053 555.77,186.8616 Q556.4263,187.0178 556.9888,187.3147 L556.9888,190.0334 Q556.3638,189.4553 555.77,189.1897 Q555.1763,188.9084 554.5513,188.9084 Q553.2075,188.9084 552.52,189.9866 Q551.8325,191.0491 551.8325,193.1428 Q551.8325,195.2366 552.52,196.3147 Q553.2075,197.3772 554.5513,197.3772 Q555.1763,197.3772 555.77,197.1116 Q556.3638,196.8303 556.9888,196.2522 L556.9888,198.9709 Z " fill="#000000"/><text fill="#000000" font-family="sans-serif" font-size="12" font-style="italic" lengthAdjust="spacing" textLength="106" x="583.02" y="189.3362">&#171;EpisodeOfCare&#187;</text><text fill="#000000" font-family="sans-serif" font-size="14" lengthAdjust="spacing" textLength="136" x="568.02" y="205.1614">Institusjonsopphold</text><line style="stroke:#181818;stroke-width:0.5;" x1="540.02" x2="706.02" y1="213.4631" y2="213.4631"/><line style="stroke:#181818;stroke-width:0.5;" x1="540.02" x2="706.02" y1="221.4631" y2="221.4631"/></g><!--class Diagnose--><g id="elem_Diagnose"><rect codeLine="35" fill="#F1F1F1" height="56.2656" id="Diagnose" rx="2.5" ry="2.5" style="stroke:#181818;stroke-width:0.5;" width="106" x="487.02" y="289.4675"/><ellipse cx="502.02" cy="309.6003" fill="#ADD1B2" rx="11" ry="11" style="stroke:#181818;stroke-width:1.0;"/><path d="M504.9888,315.2409 Q504.4106,315.5378 503.77,315.6784 Q503.1294,315.8347 502.4263,315.8347 Q499.9263,315.8347 498.5981,314.1941 Q497.2856,312.5378 497.2856,309.4128 Q497.2856,306.2878 498.5981,304.6316 Q499.9263,302.9753 502.4263,302.9753 Q503.1294,302.9753 503.77,303.1316 Q504.4263,303.2878 504.9888,303.5847 L504.9888,306.3034 Q504.3638,305.7253 503.77,305.4597 Q503.1763,305.1784 502.5513,305.1784 Q501.2075,305.1784 500.52,306.2566 Q499.8325,307.3191 499.8325,309.4128 Q499.8325,311.5066 500.52,312.5847 Q501.2075,313.6472 502.5513,313.6472 Q503.1763,313.6472 503.77,313.3816 Q504.3638,313.1003 504.9888,312.5222 L504.9888,315.2409 Z " fill="#000000"/><text fill="#000000" font-family="sans-serif" font-size="12" font-style="italic" lengthAdjust="spacing" textLength="78" x="514.02" y="305.6062">&#171;Condtition&#187;</text><text fill="#000000" font-family="sans-serif" font-size="14" lengthAdjust="spacing" textLength="66" x="520.02" y="321.4314">Diagnose</text><line style="stroke:#181818;stroke-width:0.5;" x1="488.02" x2="592.02" y1="329.7331" y2="329.7331"/><line style="stroke:#181818;stroke-width:0.5;" x1="488.02" x2="592.02" y1="337.7331" y2="337.7331"/></g><!--link Legemiddeladministrasjon to Legemiddel--><g id="link_Legemiddeladministrasjon_Legemiddel"><path codeLine="11" d="M316.19,113.4175 C280.78,157.7875 214.963,240.2482 179.563,284.5982 " fill="none" id="Legemiddeladministrasjon-to-Legemiddel" style="stroke:#181818;stroke-width:1.0;"/><polygon fill="#181818" points="175.82,289.2875,184.5607,284.7488,178.9392,285.3797,178.3083,279.7582,175.82,289.2875" style="stroke:#181818;stroke-width:1.0;"/></g><!--link Legemiddeladministrasjon to Pasient--><g id="link_Legemiddeladministrasjon_Pasient"><path codeLine="12" d="M272.83,113.6275 C174.21,159.1575 6,254.1875 80.02,345.7275 C125.4,401.8475 341.765,423.0234 437.295,429.7934 " fill="none" id="Legemiddeladministrasjon-to-Pasient" style="stroke:#181818;stroke-width:1.0;"/><polygon fill="#181818" points="443.28,430.2175,434.5853,425.5913,438.2925,429.864,434.0198,433.5713,443.28,430.2175" style="stroke:#181818;stroke-width:1.0;"/></g><!--link Legemiddeladministrasjon to Helsepersonell--><g id="link_Legemiddeladministrasjon_Helsepersonell"><path codeLine="13" d="M325.46,113.6675 C318.51,130.4875 310.57,152.6275 307.02,173.1975 C300.13,213.0975 303.583,254.1848 307.623,283.2148 " fill="none" id="Legemiddeladministrasjon-to-Helsepersonell" style="stroke:#181818;stroke-width:1.0;"/><polygon fill="#181818" points="308.45,289.1575,311.1713,279.6921,307.7608,284.2052,303.2476,280.7948,308.45,289.1575" style="stroke:#181818;stroke-width:1.0;"/></g><!--link Legemiddeladministrasjon to Organisasjon--><g id="link_Legemiddeladministrasjon_Organisasjon"><path codeLine="14" d="M444.5,97.5575 C544.62,110.5175 684.82,134.9275 724.02,173.1975 C755.24,203.6875 760.8217,250.9177 761.0817,283.2477 " fill="none" id="Legemiddeladministrasjon-to-Organisasjon" style="stroke:#181818;stroke-width:1.0;"/><polygon fill="#181818" points="761.13,289.2475,765.0575,280.2156,761.0898,284.2477,757.0578,280.28,761.13,289.2475" style="stroke:#181818;stroke-width:1.0;"/></g><!--link Legemiddeladministrasjon to Rekvisisjon--><g id="link_Legemiddeladministrasjon_Rekvisisjon"><path codeLine="15" d="M354.07,113.4375 C364.6,131.3975 375.2848,149.6218 385.8348,167.6118 " fill="none" id="Legemiddeladministrasjon-to-Rekvisisjon" style="stroke:#181818;stroke-width:1.0;"/><polygon fill="#181818" points="388.87,172.7875,387.7676,163.0005,386.3407,168.4744,380.8667,167.0475,388.87,172.7875" style="stroke:#181818;stroke-width:1.0;"/></g><!--link Legemiddeladministrasjon to Institusjonsopphold--><g id="link_Legemiddeladministrasjon_Institusjonsopphold"><path codeLine="16" d="M406.65,113.5875 C451.45,131.5475 504.1408,152.6751 548.9208,170.6251 " fill="none" id="Legemiddeladministrasjon-to-Institusjonsopphold" style="stroke:#181818;stroke-width:1.0;"/><polygon fill="#181818" points="554.49,172.8575,547.6244,165.7961,549.849,170.9972,544.6479,173.2217,554.49,172.8575" style="stroke:#181818;stroke-width:1.0;"/></g><!--link Organisasjon to Organisasjon--><g id="link_Organisasjon_Organisasjon"><path codeLine="26" d="M821.42,295.8075 C840.76,296.1475 856.02,303.4075 856.02,317.5975 C856.02,331.7875 846.7591,338.9551 827.4191,339.2851 " fill="none" id="Organisasjon-to-Organisasjon" style="stroke:#181818;stroke-width:1.0;"/><polygon fill="#181818" points="821.42,339.3875,830.4869,343.2334,826.4193,339.3022,830.3504,335.2345,821.42,339.3875" style="stroke:#181818;stroke-width:1.0;"/></g><!--link Institusjonsopphold to Pasient--><g id="link_Institusjonsopphold_Pasient"><path codeLine="31" d="M627.01,229.7075 C630.05,260.1475 630.73,309.7675 610.02,345.7275 C592.2,376.6875 563.7272,396.6278 536.0672,411.0878 " fill="none" id="Institusjonsopphold-to-Pasient" style="stroke:#181818;stroke-width:1.0;"/><polygon fill="#181818" points="530.75,413.8675,540.579,413.2427,535.181,411.5511,536.8727,406.1531,530.75,413.8675" style="stroke:#181818;stroke-width:1.0;"/></g><!--link Institusjonsopphold to Organisasjon--><g id="link_Institusjonsopphold_Organisasjon"><path codeLine="32" d="M655.84,229.7075 C677.37,247.6575 700.8114,267.2256 722.3914,285.2156 " fill="none" id="Institusjonsopphold-to-Organisasjon" style="stroke:#181818;stroke-width:1.0;"/><polygon fill="#181818" points="727,289.0575,722.6484,280.2222,723.1595,285.8559,717.5258,286.367,727,289.0575" style="stroke:#181818;stroke-width:1.0;"/></g><!--link Institusjonsopphold to Diagnose--><g id="link_Institusjonsopphold_Diagnose"><path codeLine="33" d="M603.14,229.7075 C590.09,247.6575 576.6266,266.2133 563.5566,284.2033 " fill="none" id="Institusjonsopphold-to-Diagnose" style="stroke:#181818;stroke-width:1.0;"/><polygon fill="#181818" points="560.03,289.0575,568.556,284.1273,562.9689,285.0124,562.0838,279.4252,560.03,289.0575" style="stroke:#181818;stroke-width:1.0;"/></g><!--link Diagnose to Pasient--><g id="link_Diagnose_Pasient"><path codeLine="38" d="M527.33,345.9675 C519,363.9275 510.6624,381.8835 502.3224,399.8835 " fill="none" id="Diagnose-to-Pasient" style="stroke:#181818;stroke-width:1.0;stroke-dasharray:7.0,7.0;"/><polygon fill="#181818" points="499.8,405.3275,507.213,398.8431,501.902,400.7908,499.9542,395.4799,499.8,405.3275" style="stroke:#181818;stroke-width:1.0;"/></g><!--link Rekvisisjon to Diagnose--><g id="link_Rekvisisjon_Diagnose"><path codeLine="43" d="M437.36,229.7075 C458.57,247.6575 481.6398,267.1917 502.8998,285.1817 " fill="none" id="Rekvisisjon-to-Diagnose" style="stroke:#181818;stroke-width:1.0;"/><polygon fill="#181818" points="507.48,289.0575,503.1935,280.1904,503.6631,285.8277,498.0258,286.2974,507.48,289.0575" style="stroke:#181818;stroke-width:1.0;"/></g><!--link Rekvisisjon to Legemiddel--><g id="link_Rekvisisjon_Legemiddel"><path codeLine="44" d="M344.58,229.8475 C303.82,248.4075 255.861,270.242 215.961,288.402 " fill="none" id="Rekvisisjon-to-Legemiddel" style="stroke:#181818;stroke-width:1.0;"/><polygon fill="#181818" points="210.5,290.8875,220.3485,290.7999,215.0508,288.8163,217.0345,283.5186,210.5,290.8875" style="stroke:#181818;stroke-width:1.0;"/></g><!--link Rekvisisjon to Pasient--><g id="link_Rekvisisjon_Pasient"><path codeLine="45" d="M414.75,229.6875 C430.53,274.0475 459.5194,355.5544 475.2894,399.8944 " fill="none" id="Rekvisisjon-to-Pasient" style="stroke:#181818;stroke-width:1.0;"/><polygon fill="#181818" points="477.3,405.5475,478.0529,395.7275,475.6245,400.8366,470.5154,398.4082,477.3,405.5475" style="stroke:#181818;stroke-width:1.0;"/></g><!--link Rekvisisjon to Helsepersonell--><g id="link_Rekvisisjon_Helsepersonell"><path codeLine="46" d="M382.98,229.7075 C368.52,247.6575 353.4421,266.3935 338.9621,284.3835 " fill="none" id="Rekvisisjon-to-Helsepersonell" style="stroke:#181818;stroke-width:1.0;"/><polygon fill="#181818" points="335.2,289.0575,343.9592,284.5545,338.3351,285.1625,337.7271,279.5384,335.2,289.0575" style="stroke:#181818;stroke-width:1.0;"/></g><!--link Rekvisisjon to Rekvisisjon--><g id="link_Rekvisisjon_Rekvisisjon"><path codeLine="47" d="M486.33,179.8775 C506.22,181.4675 521.02,188.6175 521.02,201.3375 C521.02,214.0475 512.2009,220.7294 492.3109,222.3194 " fill="none" id="Rekvisisjon-to-Rekvisisjon" style="stroke:#181818;stroke-width:1.0;"/><polygon fill="#181818" points="486.33,222.7975,495.6201,226.0676,491.3141,222.3991,494.9826,218.0931,486.33,222.7975" style="stroke:#181818;stroke-width:1.0;"/></g><text fill="#888888" font-family="sans-serif" font-size="10" lengthAdjust="spacing" textLength="140" x="354.51" y="477.2754">Folkehelseinstituttet / Vali AS</text><!--SRC=[XP9DRy8m38Rl_HLMTuRT9uI4sAOXWK1CusurBcIaIPU4ITkq_pu76le1TBSaVlpwjPqTeI0BwPosL4WXI0dq2Bb5aDfvwG_ktMZmKa6DMDfAvycIJnD6544wqxcn1GRO5OOPzG1lYpdi5Jf7Gk8M2nZ0OhDAazmO7se-6xMd7Ib7LIdloSCzR519cBocIPA5R5YXawGzZ4OhzE4q7iDTzeKQVfBV2DNkK1HIipzxTCDP2wwVSQRHatCetDeoDmK6Wt537Vh1oci_z19wBiawetbG_UpIRf6VZW_zv9hsdzB9_y5PlLXdod9dbBYSOcjkrmRURY8insB6keoJvOI0diXc2yoThjzH-2ZPGYxQhdIk-6Qvfr8w_d3BV8gMejurjBcUM_5MsLlG8_zcRHn5N_7EPgP6YzCCefDpS3YiorU9ZOsrnhscZmCv7oMQMAj-Dr1lxo8KAtVVEr-n6sxS_m00]--></g></svg>