<svg xmlns="http://www.w3.org/2000/svg" xmlns:xlink="http://www.w3.org/1999/xlink" contentStyleType="text/css" data-diagram-type="CLASS" height="405px" preserveAspectRatio="none" style="width:961px;height:405px;background:#FFFFFF;" version="1.1" viewBox="0 0 961 405" width="961px" zoomAndPan="magnify"><defs/><g><!--class Diagnose--><g class="entity" data-entity="Diagnose" data-source-line="8" data-uid="ent0002" id="entity_Diagnose"><rect fill="#FFFFFF" height="40.2656" rx="2.5" ry="2.5" style="stroke:#000000;stroke-width:0.5;" width="99.9473" x="156.88" y="241.53"/><ellipse cx="171.88" cy="261.6628" fill="#ADD1B2" rx="11" ry="11" style="stroke:#181818;stroke-width:1;"/><path d="M174.8488,267.3034 Q174.2706,267.6003 173.63,267.7409 Q172.9894,267.8972 172.2863,267.8972 Q169.7863,267.8972 168.4581,266.2566 Q167.1456,264.6003 167.1456,261.4753 Q167.1456,258.3503 168.4581,256.6941 Q169.7863,255.0378 172.2863,255.0378 Q172.9894,255.0378 173.63,255.1941 Q174.2863,255.3503 174.8488,255.6472 L174.8488,258.3659 Q174.2238,257.7878 173.63,257.5222 Q173.0363,257.2409 172.4113,257.2409 Q171.0675,257.2409 170.38,258.3191 Q169.6925,259.3816 169.6925,261.4753 Q169.6925,263.5691 170.38,264.6472 Q171.0675,265.7097 172.4113,265.7097 Q173.0363,265.7097 173.63,265.4441 Q174.2238,265.1628 174.8488,264.5847 L174.8488,267.3034 Z " fill="#000000"/><text fill="#000000" font-family="sans-serif" font-size="12" font-style="italic" lengthAdjust="spacing" textLength="71.9473" x="183.88" y="257.6687">&#171;Condition&#187;</text><text fill="#000000" font-family="sans-serif" font-size="14" lengthAdjust="spacing" textLength="65.4814" x="187.1129" y="273.4939">Diagnose</text></g><!--class Episode--><g class="entity" data-entity="Episode" data-source-line="9" data-uid="ent0003" id="entity_Episode"><rect fill="#FFFFFF" height="40.2656" rx="2.5" ry="2.5" style="stroke:#000000;stroke-width:0.5;" width="104.043" x="717.83" y="124.26"/><ellipse cx="732.83" cy="144.3928" fill="#ADD1B2" rx="11" ry="11" style="stroke:#181818;stroke-width:1;"/><path d="M735.7987,150.0334 Q735.2206,150.3303 734.58,150.4709 Q733.9394,150.6272 733.2362,150.6272 Q730.7362,150.6272 729.4081,148.9866 Q728.0956,147.3303 728.0956,144.2053 Q728.0956,141.0803 729.4081,139.4241 Q730.7362,137.7678 733.2362,137.7678 Q733.9394,137.7678 734.58,137.9241 Q735.2362,138.0803 735.7987,138.3772 L735.7987,141.0959 Q735.1737,140.5178 734.58,140.2522 Q733.9862,139.9709 733.3612,139.9709 Q732.0175,139.9709 731.33,141.0491 Q730.6425,142.1116 730.6425,144.2053 Q730.6425,146.2991 731.33,147.3772 Q732.0175,148.4397 733.3612,148.4397 Q733.9862,148.4397 734.58,148.1741 Q735.1737,147.8928 735.7987,147.3147 L735.7987,150.0334 Z " fill="#000000"/><text fill="#000000" font-family="sans-serif" font-size="12" font-style="italic" lengthAdjust="spacing" textLength="76.043" x="744.83" y="140.3987">&#171;Encounter&#187;</text><text fill="#000000" font-family="sans-serif" font-size="14" lengthAdjust="spacing" textLength="54.9814" x="755.3608" y="156.2239">Episode</text></g><!--class Helsepersonell--><g class="entity" data-entity="Helsepersonell" data-source-line="10" data-uid="ent0004" id="entity_Helsepersonell"><rect fill="#FFFFFF" height="40.2656" rx="2.5" ry="2.5" style="stroke:#000000;stroke-width:0.5;" width="135.3184" x="292.19" y="241.53"/><ellipse cx="307.19" cy="261.6628" fill="#ADD1B2" rx="11" ry="11" style="stroke:#181818;stroke-width:1;"/><path d="M310.1588,267.3034 Q309.5806,267.6003 308.94,267.7409 Q308.2994,267.8972 307.5963,267.8972 Q305.0963,267.8972 303.7681,266.2566 Q302.4556,264.6003 302.4556,261.4753 Q302.4556,258.3503 303.7681,256.6941 Q305.0963,255.0378 307.5963,255.0378 Q308.2994,255.0378 308.94,255.1941 Q309.5963,255.3503 310.1588,255.6472 L310.1588,258.3659 Q309.5338,257.7878 308.94,257.5222 Q308.3463,257.2409 307.7213,257.2409 Q306.3775,257.2409 305.69,258.3191 Q305.0025,259.3816 305.0025,261.4753 Q305.0025,263.5691 305.69,264.6472 Q306.3775,265.7097 307.7213,265.7097 Q308.3463,265.7097 308.94,265.4441 Q309.5338,265.1628 310.1588,264.5847 L310.1588,267.3034 Z " fill="#000000"/><text fill="#000000" font-family="sans-serif" font-size="12" font-style="italic" lengthAdjust="spacing" textLength="84.1465" x="330.7759" y="257.6687">&#171;Practitioner&#187;</text><text fill="#000000" font-family="sans-serif" font-size="14" lengthAdjust="spacing" textLength="103.3184" x="321.19" y="273.4939">Helsepersonell</text></g><!--class Legemiddel--><g class="entity" data-entity="Legemiddel" data-source-line="11" data-uid="ent0005" id="entity_Legemiddel"><rect fill="#FFFFFF" height="40.2656" rx="2.5" ry="2.5" style="stroke:#000000;stroke-width:0.5;" width="113.7168" x="462.99" y="241.53"/><ellipse cx="477.99" cy="261.6628" fill="#ADD1B2" rx="11" ry="11" style="stroke:#181818;stroke-width:1;"/><path d="M480.9587,267.3034 Q480.3806,267.6003 479.74,267.7409 Q479.0994,267.8972 478.3962,267.8972 Q475.8962,267.8972 474.5681,266.2566 Q473.2556,264.6003 473.2556,261.4753 Q473.2556,258.3503 474.5681,256.6941 Q475.8962,255.0378 478.3962,255.0378 Q479.0994,255.0378 479.74,255.1941 Q480.3962,255.3503 480.9587,255.6472 L480.9587,258.3659 Q480.3337,257.7878 479.74,257.5222 Q479.1462,257.2409 478.5212,257.2409 Q477.1775,257.2409 476.49,258.3191 Q475.8025,259.3816 475.8025,261.4753 Q475.8025,263.5691 476.49,264.6472 Q477.1775,265.7097 478.5212,265.7097 Q479.1462,265.7097 479.74,265.4441 Q480.3337,265.1628 480.9587,264.5847 L480.9587,267.3034 Z " fill="#000000"/><text fill="#000000" font-family="sans-serif" font-size="12" font-style="italic" lengthAdjust="spacing" textLength="80.3086" x="492.6941" y="257.6687">&#171;Medication&#187;</text><text fill="#000000" font-family="sans-serif" font-size="14" lengthAdjust="spacing" textLength="81.7168" x="491.99" y="273.4939">Legemiddel</text></g><!--class Legemiddeladministrering--><g class="entity" data-entity="Legemiddeladministrering" data-source-line="12" data-uid="ent0006" id="entity_Legemiddeladministrering"><rect fill="#FFFFFF" height="40.2656" rx="2.5" ry="2.5" style="stroke:#000000;stroke-width:0.5;" width="216.0303" x="165.83" y="7"/><ellipse cx="180.83" cy="27.1328" fill="#ADD1B2" rx="11" ry="11" style="stroke:#181818;stroke-width:1;"/><path d="M183.7988,32.7734 Q183.2206,33.0703 182.58,33.2109 Q181.9394,33.3672 181.2363,33.3672 Q178.7363,33.3672 177.4081,31.7266 Q176.0956,30.0703 176.0956,26.9453 Q176.0956,23.8203 177.4081,22.1641 Q178.7363,20.5078 181.2363,20.5078 Q181.9394,20.5078 182.58,20.6641 Q183.2363,20.8203 183.7988,21.1172 L183.7988,23.8359 Q183.1738,23.2578 182.58,22.9922 Q181.9863,22.7109 181.3613,22.7109 Q180.0175,22.7109 179.33,23.7891 Q178.6425,24.8516 178.6425,26.9453 Q178.6425,29.0391 179.33,30.1172 Q180.0175,31.1797 181.3613,31.1797 Q181.9863,31.1797 182.58,30.9141 Q183.1738,30.6328 183.7988,30.0547 L183.7988,32.7734 Z " fill="#000000"/><text fill="#000000" font-family="sans-serif" font-size="12" font-style="italic" lengthAdjust="spacing" textLength="168.3281" x="202.6811" y="23.1387">&#171;MedicationAdministration&#187;</text><text fill="#000000" font-family="sans-serif" font-size="14" lengthAdjust="spacing" textLength="184.0303" x="194.83" y="38.9639">Legemiddeladministrering</text></g><!--class Legemiddelrekvirering--><g class="entity" data-entity="Legemiddelrekvirering" data-source-line="13" data-uid="ent0007" id="entity_Legemiddelrekvirering"><rect fill="#FFFFFF" height="40.2656" rx="2.5" ry="2.5" style="stroke:#000000;stroke-width:0.5;" width="190.1426" x="178.78" y="124.26"/><ellipse cx="193.78" cy="144.3928" fill="#ADD1B2" rx="11" ry="11" style="stroke:#181818;stroke-width:1;"/><path d="M196.7488,150.0334 Q196.1706,150.3303 195.53,150.4709 Q194.8894,150.6272 194.1863,150.6272 Q191.6863,150.6272 190.3581,148.9866 Q189.0456,147.3303 189.0456,144.2053 Q189.0456,141.0803 190.3581,139.4241 Q191.6863,137.7678 194.1863,137.7678 Q194.8894,137.7678 195.53,137.9241 Q196.1863,138.0803 196.7488,138.3772 L196.7488,141.0959 Q196.1238,140.5178 195.53,140.2522 Q194.9363,139.9709 194.3113,139.9709 Q192.9675,139.9709 192.28,141.0491 Q191.5925,142.1116 191.5925,144.2053 Q191.5925,146.2991 192.28,147.3772 Q192.9675,148.4397 194.3113,148.4397 Q194.9363,148.4397 195.53,148.1741 Q196.1238,147.8928 196.7488,147.3147 L196.7488,150.0334 Z " fill="#000000"/><text fill="#000000" font-family="sans-serif" font-size="12" font-style="italic" lengthAdjust="spacing" textLength="129.5918" x="222.0554" y="140.3987">&#171;MedicationRequest&#187;</text><text fill="#000000" font-family="sans-serif" font-size="14" lengthAdjust="spacing" textLength="158.1426" x="207.78" y="156.2239">Legemiddelrekvirering</text></g><!--class Organisasjon--><g class="entity" data-entity="Organisasjon" data-source-line="14" data-uid="ent0008" id="entity_Organisasjon"><rect fill="#FFFFFF" height="40.2656" rx="2.5" ry="2.5" style="stroke:#000000;stroke-width:0.5;" width="123.499" x="742.1" y="241.53"/><ellipse cx="757.1" cy="261.6628" fill="#ADD1B2" rx="11" ry="11" style="stroke:#181818;stroke-width:1;"/><path d="M760.0688,267.3034 Q759.4906,267.6003 758.85,267.7409 Q758.2094,267.8972 757.5063,267.8972 Q755.0063,267.8972 753.6781,266.2566 Q752.3656,264.6003 752.3656,261.4753 Q752.3656,258.3503 753.6781,256.6941 Q755.0063,255.0378 757.5063,255.0378 Q758.2094,255.0378 758.85,255.1941 Q759.5063,255.3503 760.0688,255.6472 L760.0688,258.3659 Q759.4438,257.7878 758.85,257.5222 Q758.2563,257.2409 757.6313,257.2409 Q756.2875,257.2409 755.6,258.3191 Q754.9125,259.3816 754.9125,261.4753 Q754.9125,263.5691 755.6,264.6472 Q756.2875,265.7097 757.6313,265.7097 Q758.2563,265.7097 758.85,265.4441 Q759.4438,265.1628 760.0688,264.5847 L760.0688,267.3034 Z " fill="#000000"/><text fill="#000000" font-family="sans-serif" font-size="12" font-style="italic" lengthAdjust="spacing" textLength="91.6113" x="771.0438" y="257.6687">&#171;Organization&#187;</text><text fill="#000000" font-family="sans-serif" font-size="14" lengthAdjust="spacing" textLength="91.499" x="771.1" y="273.4939">Organisasjon</text></g><!--class Pasient--><g class="entity" data-entity="Pasient" data-source-line="15" data-uid="ent0009" id="entity_Pasient"><rect fill="#FFFFFF" height="40.2656" rx="2.5" ry="2.5" style="stroke:#000000;stroke-width:0.5;" width="85.0059" x="30.35" y="358.79"/><ellipse cx="45.35" cy="378.9228" fill="#ADD1B2" rx="11" ry="11" style="stroke:#181818;stroke-width:1;"/><path d="M48.3188,384.5634 Q47.7406,384.8603 47.1,385.0009 Q46.4594,385.1572 45.7563,385.1572 Q43.2563,385.1572 41.9281,383.5166 Q40.6156,381.8603 40.6156,378.7353 Q40.6156,375.6103 41.9281,373.9541 Q43.2563,372.2978 45.7563,372.2978 Q46.4594,372.2978 47.1,372.4541 Q47.7563,372.6103 48.3188,372.9072 L48.3188,375.6259 Q47.6938,375.0478 47.1,374.7822 Q46.5063,374.5009 45.8813,374.5009 Q44.5375,374.5009 43.85,375.5791 Q43.1625,376.6416 43.1625,378.7353 Q43.1625,380.8291 43.85,381.9072 Q44.5375,382.9697 45.8813,382.9697 Q46.5063,382.9697 47.1,382.7041 Q47.6938,382.4228 48.3188,381.8447 L48.3188,384.5634 Z " fill="#000000"/><text fill="#000000" font-family="sans-serif" font-size="12" font-style="italic" lengthAdjust="spacing" textLength="57.0059" x="57.35" y="374.9287">&#171;Patient&#187;</text><text fill="#000000" font-family="sans-serif" font-size="14" lengthAdjust="spacing" textLength="51.1807" x="60.2626" y="390.7539">Pasient</text></g><!--class Substance--><g class="entity" data-entity="Substance" data-source-line="16" data-uid="ent0010" id="entity_Substance"><rect fill="#FFFFFF" height="32" rx="2.5" ry="2.5" style="stroke:#000000;stroke-width:0.5;" width="105.1924" x="467.25" y="362.93"/><ellipse cx="482.25" cy="378.93" fill="#ADD1B2" rx="11" ry="11" style="stroke:#181818;stroke-width:1;"/><path d="M485.2188,384.5706 Q484.6406,384.8675 484,385.0081 Q483.3594,385.1644 482.6563,385.1644 Q480.1563,385.1644 478.8281,383.5238 Q477.5156,381.8675 477.5156,378.7425 Q477.5156,375.6175 478.8281,373.9613 Q480.1563,372.305 482.6563,372.305 Q483.3594,372.305 484,372.4613 Q484.6563,372.6175 485.2188,372.9144 L485.2188,375.6331 Q484.5938,375.055 484,374.7894 Q483.4063,374.5081 482.7813,374.5081 Q481.4375,374.5081 480.75,375.5863 Q480.0625,376.6488 480.0625,378.7425 Q480.0625,380.8363 480.75,381.9144 Q481.4375,382.9769 482.7813,382.9769 Q483.4063,382.9769 484,382.7113 Q484.5938,382.43 485.2188,381.8519 L485.2188,384.5706 Z " fill="#000000"/><text fill="#000000" font-family="sans-serif" font-size="14" lengthAdjust="spacing" textLength="73.1924" x="496.25" y="383.7767">Substance</text></g><!--link Diagnose to Pasient--><g class="link" data-entity-1="Diagnose" data-entity-2="Pasient" data-source-line="18" data-uid="lnk11" id="link_Diagnose_Pasient"><path codeLine="18" d="M184.12,282.21 C159.33,303.54 124.4481,333.5366 99.7981,354.7466 " fill="none" id="Diagnose-to-Pasient" style="stroke:#000000;stroke-width:1;"/><polygon fill="#000000" points="95.25,358.66,104.6811,355.822,99.0401,355.3988,99.4632,349.7578,95.25,358.66" style="stroke:#000000;stroke-width:1;"/><text fill="#000000" font-family="sans-serif" font-size="13" lengthAdjust="spacing" textLength="47.1187" x="149.85" y="324.8569">subject</text><text fill="#000000" font-family="sans-serif" font-size="13" lengthAdjust="spacing" textLength="24.8066" x="150.8937" y="301.8324">1..1</text></g><!--link Episode to Organisasjon--><g class="link" data-entity-1="Episode" data-entity-2="Organisasjon" data-source-line="19" data-uid="lnk12" id="link_Episode_Organisasjon"><path codeLine="19" d="M775.62,164.95 C781.91,186.27 790.2116,214.4354 796.4716,235.6454 " fill="none" id="Episode-to-Organisasjon" style="stroke:#000000;stroke-width:1;"/><polygon fill="#000000" points="798.17,241.4,799.4587,231.6358,796.7546,236.6045,791.786,233.9004,798.17,241.4" style="stroke:#000000;stroke-width:1;"/><text fill="#000000" font-family="sans-serif" font-size="13" lengthAdjust="spacing" textLength="100.604" x="789.85" y="207.5969">serviceProvider</text><text fill="#000000" font-family="sans-serif" font-size="13" lengthAdjust="spacing" textLength="24.8066" x="750.0537" y="184.5751">0..1</text></g><!--link Legemiddel to Substance--><g class="link" data-entity-1="Legemiddel" data-entity-2="Substance" data-source-line="20" data-uid="lnk13" id="link_Legemiddel_Substance"><path codeLine="20" d="M519.85,282.21 C519.85,304.95 519.85,336 519.85,356.7 " fill="none" id="Legemiddel-to-Substance" style="stroke:#000000;stroke-width:1;"/><polygon fill="#000000" points="519.85,362.7,523.85,353.7,519.85,357.7,515.85,353.7,519.85,362.7" style="stroke:#000000;stroke-width:1;"/><text fill="#000000" font-family="sans-serif" font-size="13" lengthAdjust="spacing" textLength="100.147" x="520.85" y="324.8569">ingredient.item</text><text fill="#000000" font-family="sans-serif" font-size="13" lengthAdjust="spacing" textLength="23.0356" x="493.7646" y="301.8324">0..*</text></g><!--link Legemiddel to Legemiddel--><g class="link" data-entity-1="Legemiddel" data-entity-2="Legemiddel" data-source-line="21" data-uid="lnk14" id="link_Legemiddel_Legemiddel"><path codeLine="21" d="M576.81,250.67 C596.16,250.61 611.71,254.28 611.71,261.66 C611.71,269.05 602.16,272.7286 582.81,272.6686 " fill="none" id="Legemiddel-to-Legemiddel" style="stroke:#000000;stroke-width:1;"/><polygon fill="#000000" points="576.81,272.65,585.7976,276.6779,581.81,272.6655,585.8224,268.6779,576.81,272.65" style="stroke:#000000;stroke-width:1;"/><text fill="#000000" font-family="sans-serif" font-size="13" lengthAdjust="spacing" textLength="100.147" x="617.71" y="266.2269">ingredient.item</text><text fill="#000000" font-family="sans-serif" font-size="13" lengthAdjust="spacing" textLength="23.0356" x="584.7279" y="245.6063">0..*</text></g><!--link Legemiddeladministrering to Legemiddel--><g class="link" data-entity-1="Legemiddeladministrering" data-entity-2="Legemiddel" data-source-line="22" data-uid="lnk15" id="link_Legemiddeladministrering_Legemiddel"><path codeLine="22" d="M382.2,41.37 C434.16,53.77 491.93,77.79 523.85,124.26 C547.99,159.41 538.0428,206.8568 528.9128,235.3168 " fill="none" id="Legemiddeladministrering-to-Legemiddel" style="stroke:#000000;stroke-width:1;"/><polygon fill="#000000" points="527.08,241.03,533.638,233.682,528.6073,236.269,526.0204,231.2383,527.08,241.03" style="stroke:#000000;stroke-width:1;"/><text fill="#000000" font-family="sans-serif" font-size="13" lengthAdjust="spacing" textLength="72.541" x="537.85" y="148.9669">medication</text><text fill="#000000" font-family="sans-serif" font-size="13" lengthAdjust="spacing" textLength="24.8066" x="389.9361" y="54.8337">1..1</text></g><!--link Legemiddeladministrering to Pasient--><g class="link" data-entity-1="Legemiddeladministrering" data-entity-2="Pasient" data-source-line="23" data-uid="lnk16" id="link_Legemiddeladministrering_Pasient"><path codeLine="23" d="M165.48,40.34 C132.91,47.55 98.29,59.03 69.85,77.26 C47.47,91.61 44.94,100.59 32.85,124.26 C14.75,159.7 6,172.33 12.85,211.53 C22.5,266.74 46.3249,322.3712 60.6849,352.8812 " fill="none" id="Legemiddeladministrering-to-Pasient" style="stroke:#000000;stroke-width:1;"/><polygon fill="#000000" points="63.24,358.31,63.0265,348.4635,61.1107,353.786,55.7881,351.8703,63.24,358.31" style="stroke:#000000;stroke-width:1;"/><text fill="#000000" font-family="sans-serif" font-size="13" lengthAdjust="spacing" textLength="47.1187" x="13.85" y="207.5969">subject</text><text fill="#000000" font-family="sans-serif" font-size="13" lengthAdjust="spacing" textLength="24.8066" x="133.0452" y="37.8129">1..1</text></g><!--link Legemiddeladministrering to Episode--><g class="link" data-entity-1="Legemiddeladministrering" data-entity-2="Episode" data-source-line="24" data-uid="lnk17" id="link_Legemiddeladministrering_Episode"><path codeLine="24" d="M382.21,38.12 C446.74,45.61 529.83,57.96 601.85,77.26 C646.05,89.11 688.9971,106.5133 722.4571,121.3833 " fill="none" id="Legemiddeladministrering-to-Episode" style="stroke:#000000;stroke-width:1;"/><polygon fill="#000000" points="727.94,123.82,721.34,116.5097,723.3709,121.7894,718.0911,123.8203,727.94,123.82" style="stroke:#000000;stroke-width:1;"/><text fill="#000000" font-family="sans-serif" font-size="13" lengthAdjust="spacing" textLength="49.2261" x="653.85" y="90.3269">context</text><text fill="#000000" font-family="sans-serif" font-size="13" lengthAdjust="spacing" textLength="24.8066" x="389.9467" y="35.4145">0..1</text></g><!--link Legemiddeladministrering to Diagnose--><g class="link" data-entity-1="Legemiddeladministrering" data-entity-2="Diagnose" data-source-line="25" data-uid="lnk18" id="link_Legemiddeladministrering_Diagnose"><path codeLine="25" d="M165.54,47.38 C121.61,61.09 75.12,84.47 48.85,124.26 C14.41,176.43 92.5396,218.0158 150.8196,241.0358 " fill="none" id="Legemiddeladministrering-to-Diagnose" style="stroke:#000000;stroke-width:1;"/><polygon fill="#000000" points="156.4,243.24,149.4988,236.2134,151.7496,241.4031,146.5598,243.654,156.4,243.24" style="stroke:#000000;stroke-width:1;"/><text fill="#000000" font-family="sans-serif" font-size="13" lengthAdjust="spacing" textLength="110.6079" x="49.85" y="148.9669">reasonReference</text><text fill="#000000" font-family="sans-serif" font-size="13" lengthAdjust="spacing" textLength="23.0356" x="134.8661" y="61.2287">0..*</text></g><!--link Legemiddeladministrering to Legemiddelrekvirering--><g class="link" data-entity-1="Legemiddeladministrering" data-entity-2="Legemiddelrekvirering" data-source-line="26" data-uid="lnk19" id="link_Legemiddeladministrering_Legemiddelrekvirering"><path codeLine="26" d="M273.85,47.68 C273.85,69.01 273.85,96.92 273.85,118.13 " fill="none" id="Legemiddeladministrering-to-Legemiddelrekvirering" style="stroke:#000000;stroke-width:1;"/><polygon fill="#000000" points="273.85,124.13,277.85,115.13,273.85,119.13,269.85,115.13,273.85,124.13" style="stroke:#000000;stroke-width:1;"/><text fill="#000000" font-family="sans-serif" font-size="13" lengthAdjust="spacing" textLength="49.7021" x="274.85" y="90.3269">request</text><text fill="#000000" font-family="sans-serif" font-size="13" lengthAdjust="spacing" textLength="24.8066" x="246.7347" y="67.3024">0..1</text></g><!--link Legemiddelrekvirering to Legemiddel--><g class="link" data-entity-1="Legemiddelrekvirering" data-entity-2="Legemiddel" data-source-line="27" data-uid="lnk20" id="link_Legemiddelrekvirering_Legemiddel"><path codeLine="27" d="M331.61,165.02 C354.44,173.35 380.71,183.64 403.85,194.53 C433.43,208.44 460.4829,223.9735 483.4329,237.9235 " fill="none" id="Legemiddelrekvirering-to-Legemiddel" style="stroke:#000000;stroke-width:1;"/><polygon fill="#000000" points="488.56,241.04,482.947,232.9472,484.2874,238.4429,478.7916,239.7834,488.56,241.04" style="stroke:#000000;stroke-width:1;"/><text fill="#000000" font-family="sans-serif" font-size="13" lengthAdjust="spacing" textLength="72.541" x="436.85" y="207.5969">medication</text><text fill="#000000" font-family="sans-serif" font-size="13" lengthAdjust="spacing" textLength="24.8066" x="320.016" y="184.6639">1..1</text></g><!--link Legemiddelrekvirering to Pasient--><g class="link" data-entity-1="Legemiddelrekvirering" data-entity-2="Pasient" data-source-line="28" data-uid="lnk21" id="link_Legemiddelrekvirering_Pasient"><path codeLine="28" d="M202.98,164.87 C163.6,179.45 117.34,203.56 90.85,241.53 C66.25,276.79 66.7476,323.9293 69.5676,352.3493 " fill="none" id="Legemiddelrekvirering-to-Pasient" style="stroke:#000000;stroke-width:1;"/><polygon fill="#000000" points="70.16,358.32,73.2518,348.969,69.6663,353.3444,65.2909,349.7589,70.16,358.32" style="stroke:#000000;stroke-width:1;"/><text fill="#000000" font-family="sans-serif" font-size="13" lengthAdjust="spacing" textLength="47.1187" x="91.85" y="266.2269">subject</text><text fill="#000000" font-family="sans-serif" font-size="13" lengthAdjust="spacing" textLength="24.8066" x="156.8167" y="184.4736">1..1</text></g><!--link Legemiddelrekvirering to Helsepersonell--><g class="link" data-entity-1="Legemiddelrekvirering" data-entity-2="Helsepersonell" data-source-line="29" data-uid="lnk22" id="link_Legemiddelrekvirering_Helsepersonell"><path codeLine="29" d="M294.63,165.01 C303.23,173.65 313.01,184.18 320.85,194.53 C332.03,209.3 339.7275,222.246 347.0275,235.816 " fill="none" id="Legemiddelrekvirering-to-Helsepersonell" style="stroke:#000000;stroke-width:1;"/><polygon fill="#000000" points="349.87,241.1,349.1289,231.2791,347.5012,236.6967,342.0836,235.0691,349.87,241.1" style="stroke:#000000;stroke-width:1;"/><text fill="#000000" font-family="sans-serif" font-size="13" lengthAdjust="spacing" textLength="63.0449" x="331.85" y="207.5969">requester</text><text fill="#000000" font-family="sans-serif" font-size="13" lengthAdjust="spacing" textLength="24.8066" x="273.0977" y="184.6512">1..1</text></g><!--link Legemiddelrekvirering to Diagnose--><g class="link" data-entity-1="Legemiddelrekvirering" data-entity-2="Diagnose" data-source-line="30" data-uid="lnk23" id="link_Legemiddelrekvirering_Diagnose"><path codeLine="30" d="M233.17,165 C221.94,172.56 211.12,182.37 204.85,194.53 C197.48,208.82 197.6246,221.3704 200.3046,235.1504 " fill="none" id="Legemiddelrekvirering-to-Diagnose" style="stroke:#000000;stroke-width:1;"/><polygon fill="#000000" points="201.45,241.04,203.6583,231.4419,200.4955,236.132,195.8054,232.9692,201.45,241.04" style="stroke:#000000;stroke-width:1;"/><text fill="#000000" font-family="sans-serif" font-size="13" lengthAdjust="spacing" textLength="110.6079" x="205.85" y="207.5969">reasonReference</text><text fill="#000000" font-family="sans-serif" font-size="13" lengthAdjust="spacing" textLength="23.0356" x="196.1511" y="184.6385">0..*</text></g><!--link Legemiddelrekvirering to Legemiddelrekvirering--><g class="link" data-entity-1="Legemiddelrekvirering" data-entity-2="Legemiddelrekvirering" data-source-line="31" data-uid="lnk24" id="link_Legemiddelrekvirering_Legemiddelrekvirering"><path codeLine="31" d="M369.42,133.77 C389.47,134.87 403.92,138.41 403.92,144.4 C403.92,150.38 395.461,153.5913 375.411,154.6913 " fill="none" id="Legemiddelrekvirering-to-Legemiddelrekvirering" style="stroke:#000000;stroke-width:1;"/><polygon fill="#000000" points="369.42,155.02,378.6256,158.521,374.4125,154.7461,378.1874,150.533,369.42,155.02" style="stroke:#000000;stroke-width:1;"/><text fill="#000000" font-family="sans-serif" font-size="13" lengthAdjust="spacing" textLength="107.7197" x="409.92" y="148.9669">priorPrescription</text><text fill="#000000" font-family="sans-serif" font-size="13" lengthAdjust="spacing" textLength="24.8066" x="377.0118" y="129.5673">0..1</text></g><!--link Organisasjon to Organisasjon--><g class="link" data-entity-1="Organisasjon" data-entity-2="Organisasjon" data-source-line="32" data-uid="lnk25" id="link_Organisasjon_Organisasjon"><path codeLine="32" d="M865.73,250.67 C885.22,250.84 900.6,254.5 900.6,261.66 C900.6,268.82 891.2198,272.4277 871.7298,272.5977 " fill="none" id="Organisasjon-to-Organisasjon" style="stroke:#000000;stroke-width:1;"/><polygon fill="#000000" points="865.73,272.65,874.7645,276.5713,870.7298,272.6064,874.6948,268.5717,865.73,272.65" style="stroke:#000000;stroke-width:1;"/><text fill="#000000" font-family="sans-serif" font-size="13" lengthAdjust="spacing" textLength="41.4692" x="906.6" y="266.2269">partOf</text><text fill="#000000" font-family="sans-serif" font-size="13" lengthAdjust="spacing" textLength="24.8066" x="873.3905" y="245.8367">0..1</text></g><!--SRC=[bPHDRy8m38Rl_HLHZvD0upeX9618EsoYsWuxXyGKGvjqJc1Vsd-VIo6qYFBHKnk_Zns_SRf03GBomd-B7F8Pa8lS2aqXIUP2PT8vyHi9VaPIhLAoQwF7DhCatXVeOHiP4jdFQd6KiQgIMz90zTM_AAhoFQ9CZNKW-lsnDHezMZCOx8AJ0ftLPMnY55VpG27s19c3WhTe3MGPInAIoc_vckePKiXHQoWLBw1HoKQ5Grpg70qwJq1eqePwk0-riGIh3Pu0N-5Z3Su7Oagfv4JIBQrXOVNvqyoQI8TWVDaG1_WjHDxMC-UbKH15mRMur-tsOj7f30Bu86AtdYr1-JZQ6nZV1rbZ3wKMQ8CA4h8RFdsAevfb9NPNOQ5uoN2Vn4rojIwVUzx6r5RFGqVUrvfgfiY3izVHfonfvmuUxMrZJbcUkgzBtAxXS2mC4aXNJi0S2DYswmgV7gbjjkqarRFK5JSwreAUjwi5Ehg7XxqsPwb1t-pOCNt9heBGKaBW565HTT-O-pFtWNzsVZgF_m40]--></g></svg>