<svg xmlns="http://www.w3.org/2000/svg" xmlns:xlink="http://www.w3.org/1999/xlink" contentStyleType="text/css" height="569px" preserveAspectRatio="none" style="width:855px;height:569px;background:#FFFFFF;" version="1.1" viewBox="0 0 855 569" width="855px" zoomAndPan="magnify"><defs/><g><text fill="#888888" font-family="sans-serif" font-size="10" lengthAdjust="spacing" textLength="263" x="578.36" y="9.2822">Legemiddeldata fra institusjon til Legemiddelregisteret</text><text fill="#000000" font-family="sans-serif" font-size="14" font-weight="bold" lengthAdjust="spacing" textLength="503" x="169.18" y="35.6357">Informasjonsmodell: UML klassediagam (arbeidsversjon) - enkel</text><!--class Pasient--><g id="elem_Pasient"><rect codeLine="5" fill="#F1F1F1" height="88.8594" id="Pasient" rx="2.5" ry="2.5" style="stroke:#181818;stroke-width:0.5;" width="87" x="435.86" y="454.6275"/><ellipse cx="450.86" cy="474.7603" fill="#ADD1B2" rx="11" ry="11" style="stroke:#181818;stroke-width:1.0;"/><path d="M453.8288,480.4009 Q453.2506,480.6978 452.61,480.8384 Q451.9694,480.9947 451.2663,480.9947 Q448.7663,480.9947 447.4381,479.3541 Q446.1256,477.6978 446.1256,474.5728 Q446.1256,471.4478 447.4381,469.7916 Q448.7663,468.1353 451.2663,468.1353 Q451.9694,468.1353 452.61,468.2916 Q453.2663,468.4478 453.8288,468.7447 L453.8288,471.4634 Q453.2038,470.8853 452.61,470.6197 Q452.0163,470.3384 451.3913,470.3384 Q450.0475,470.3384 449.36,471.4166 Q448.6725,472.4791 448.6725,474.5728 Q448.6725,476.6666 449.36,477.7447 Q450.0475,478.8072 451.3913,478.8072 Q452.0163,478.8072 452.61,478.5416 Q453.2038,478.2603 453.8288,477.6822 L453.8288,480.4009 Z " fill="#000000"/><text fill="#000000" font-family="sans-serif" font-size="12" font-style="italic" lengthAdjust="spacing" textLength="59" x="462.86" y="470.7662">&#171;Patient&#187;</text><text fill="#000000" font-family="sans-serif" font-size="14" lengthAdjust="spacing" textLength="51" x="466.86" y="486.5914">Pasient</text><line style="stroke:#181818;stroke-width:0.5;" x1="436.86" x2="521.86" y1="494.8931" y2="494.8931"/><line style="stroke:#181818;stroke-width:0.5;" x1="436.86" x2="521.86" y1="502.8931" y2="502.8931"/><text fill="#000000" font-family="sans-serif" font-size="14" lengthAdjust="spacing" textLength="33" x="441.86" y="519.8882">get()</text><text fill="#000000" font-family="sans-serif" font-size="14" lengthAdjust="spacing" textLength="41" x="441.86" y="536.1851">post()</text></g><!--class Legemiddeladministrasjon--><g id="elem_Legemiddeladministrasjon"><rect codeLine="10" fill="#F1F1F1" height="105.1563" id="Legemiddeladministrasjon" rx="2.5" ry="2.5" style="stroke:#181818;stroke-width:0.5;" width="212" x="224.36" y="56.9375"/><ellipse cx="239.36" cy="77.0703" fill="#ADD1B2" rx="11" ry="11" style="stroke:#181818;stroke-width:1.0;"/><path d="M242.3287,82.7109 Q241.7506,83.0078 241.11,83.1484 Q240.4694,83.3047 239.7662,83.3047 Q237.2662,83.3047 235.9381,81.6641 Q234.6256,80.0078 234.6256,76.8828 Q234.6256,73.7578 235.9381,72.1016 Q237.2662,70.4453 239.7662,70.4453 Q240.4694,70.4453 241.11,70.6016 Q241.7662,70.7578 242.3287,71.0547 L242.3287,73.7734 Q241.7037,73.1953 241.11,72.9297 Q240.5162,72.6484 239.8912,72.6484 Q238.5475,72.6484 237.86,73.7266 Q237.1725,74.7891 237.1725,76.8828 Q237.1725,78.9766 237.86,80.0547 Q238.5475,81.1172 239.8912,81.1172 Q240.5162,81.1172 241.11,80.8516 Q241.7037,80.5703 242.3287,79.9922 L242.3287,82.7109 Z " fill="#000000"/><text fill="#000000" font-family="sans-serif" font-size="12" font-style="italic" lengthAdjust="spacing" textLength="172" x="257.36" y="73.0762">&#171;MedicationAdministration&#187;</text><text fill="#000000" font-family="sans-serif" font-size="14" lengthAdjust="spacing" textLength="180" x="253.36" y="88.9014">Legemiddeladministrasjon</text><line style="stroke:#181818;stroke-width:0.5;" x1="225.36" x2="435.36" y1="97.2031" y2="97.2031"/><line style="stroke:#181818;stroke-width:0.5;" x1="225.36" x2="435.36" y1="105.2031" y2="105.2031"/><text fill="#000000" font-family="sans-serif" font-size="14" lengthAdjust="spacing" textLength="33" x="230.36" y="122.1982">get()</text><text fill="#000000" font-family="sans-serif" font-size="14" lengthAdjust="spacing" textLength="41" x="230.36" y="138.4951">post()</text><text fill="#000000" font-family="sans-serif" font-size="14" lengthAdjust="spacing" textLength="54" x="230.36" y="154.792">delete()</text></g><!--class Legemiddel--><g id="elem_Legemiddel"><rect codeLine="23" fill="#F1F1F1" height="56.2656" id="Legemiddel" rx="2.5" ry="2.5" style="stroke:#181818;stroke-width:0.5;" width="112" x="90.36" y="338.3675"/><ellipse cx="105.36" cy="358.5003" fill="#ADD1B2" rx="11" ry="11" style="stroke:#181818;stroke-width:1.0;"/><path d="M108.3288,364.1409 Q107.7506,364.4378 107.11,364.5784 Q106.4694,364.7347 105.7663,364.7347 Q103.2663,364.7347 101.9381,363.0941 Q100.6256,361.4378 100.6256,358.3128 Q100.6256,355.1878 101.9381,353.5316 Q103.2663,351.8753 105.7663,351.8753 Q106.4694,351.8753 107.11,352.0316 Q107.7663,352.1878 108.3288,352.4847 L108.3288,355.2034 Q107.7038,354.6253 107.11,354.3597 Q106.5163,354.0784 105.8913,354.0784 Q104.5475,354.0784 103.86,355.1566 Q103.1725,356.2191 103.1725,358.3128 Q103.1725,360.4066 103.86,361.4847 Q104.5475,362.5472 105.8913,362.5472 Q106.5163,362.5472 107.11,362.2816 Q107.7038,362.0003 108.3288,361.4222 L108.3288,364.1409 Z " fill="#000000"/><text fill="#000000" font-family="sans-serif" font-size="12" font-style="italic" lengthAdjust="spacing" textLength="82" x="118.36" y="354.5062">&#171;Medication&#187;</text><text fill="#000000" font-family="sans-serif" font-size="14" lengthAdjust="spacing" textLength="80" x="119.36" y="370.3314">Legemiddel</text><line style="stroke:#181818;stroke-width:0.5;" x1="91.36" x2="201.36" y1="378.6331" y2="378.6331"/><line style="stroke:#181818;stroke-width:0.5;" x1="91.36" x2="201.36" y1="386.6331" y2="386.6331"/></g><!--class Helsepersonell--><g id="elem_Helsepersonell"><rect codeLine="26" fill="#F1F1F1" height="56.2656" id="Helsepersonell" rx="2.5" ry="2.5" style="stroke:#181818;stroke-width:0.5;" width="135" x="237.86" y="338.3675"/><ellipse cx="252.86" cy="358.5003" fill="#ADD1B2" rx="11" ry="11" style="stroke:#181818;stroke-width:1.0;"/><path d="M255.8287,364.1409 Q255.2506,364.4378 254.61,364.5784 Q253.9694,364.7347 253.2662,364.7347 Q250.7662,364.7347 249.4381,363.0941 Q248.1256,361.4378 248.1256,358.3128 Q248.1256,355.1878 249.4381,353.5316 Q250.7662,351.8753 253.2662,351.8753 Q253.9694,351.8753 254.61,352.0316 Q255.2662,352.1878 255.8287,352.4847 L255.8287,355.2034 Q255.2037,354.6253 254.61,354.3597 Q254.0162,354.0784 253.3912,354.0784 Q252.0475,354.0784 251.36,355.1566 Q250.6725,356.2191 250.6725,358.3128 Q250.6725,360.4066 251.36,361.4847 Q252.0475,362.5472 253.3912,362.5472 Q254.0162,362.5472 254.61,362.2816 Q255.2037,362.0003 255.8287,361.4222 L255.8287,364.1409 Z " fill="#000000"/><text fill="#000000" font-family="sans-serif" font-size="12" font-style="italic" lengthAdjust="spacing" textLength="87" x="274.86" y="354.5062">&#171;Practitioner&#187;</text><text fill="#000000" font-family="sans-serif" font-size="14" lengthAdjust="spacing" textLength="103" x="266.86" y="370.3314">Helsepersonell</text><line style="stroke:#181818;stroke-width:0.5;" x1="238.86" x2="371.86" y1="378.6331" y2="378.6331"/><line style="stroke:#181818;stroke-width:0.5;" x1="238.86" x2="371.86" y1="386.6331" y2="386.6331"/></g><!--class Organisasjon--><g id="elem_Organisasjon"><rect codeLine="28" fill="#F1F1F1" height="56.2656" id="Organisasjon" rx="2.5" ry="2.5" style="stroke:#181818;stroke-width:0.5;" width="122" x="691.36" y="338.3675"/><ellipse cx="706.36" cy="358.5003" fill="#ADD1B2" rx="11" ry="11" style="stroke:#181818;stroke-width:1.0;"/><path d="M709.3288,364.1409 Q708.7506,364.4378 708.11,364.5784 Q707.4694,364.7347 706.7663,364.7347 Q704.2663,364.7347 702.9381,363.0941 Q701.6256,361.4378 701.6256,358.3128 Q701.6256,355.1878 702.9381,353.5316 Q704.2663,351.8753 706.7663,351.8753 Q707.4694,351.8753 708.11,352.0316 Q708.7663,352.1878 709.3288,352.4847 L709.3288,355.2034 Q708.7038,354.6253 708.11,354.3597 Q707.5163,354.0784 706.8913,354.0784 Q705.5475,354.0784 704.86,355.1566 Q704.1725,356.2191 704.1725,358.3128 Q704.1725,360.4066 704.86,361.4847 Q705.5475,362.5472 706.8913,362.5472 Q707.5163,362.5472 708.11,362.2816 Q708.7038,362.0003 709.3288,361.4222 L709.3288,364.1409 Z " fill="#000000"/><text fill="#000000" font-family="sans-serif" font-size="12" font-style="italic" lengthAdjust="spacing" textLength="92" x="719.36" y="354.5062">&#171;Organization&#187;</text><text fill="#000000" font-family="sans-serif" font-size="14" lengthAdjust="spacing" textLength="90" x="720.36" y="370.3314">Organisasjon</text><line style="stroke:#181818;stroke-width:0.5;" x1="692.36" x2="812.36" y1="378.6331" y2="378.6331"/><line style="stroke:#181818;stroke-width:0.5;" x1="692.36" x2="812.36" y1="386.6331" y2="386.6331"/></g><!--class Rekvisisjon--><g id="elem_Rekvisisjon"><rect codeLine="45" fill="#F1F1F1" height="56.2656" id="Rekvisisjon" rx="2.5" ry="2.5" style="stroke:#181818;stroke-width:0.5;" width="162" x="316.36" y="222.0975"/><ellipse cx="331.36" cy="242.2303" fill="#ADD1B2" rx="11" ry="11" style="stroke:#181818;stroke-width:1.0;"/><path d="M334.3288,247.8709 Q333.7506,248.1678 333.11,248.3084 Q332.4694,248.4647 331.7663,248.4647 Q329.2663,248.4647 327.9381,246.8241 Q326.6256,245.1678 326.6256,242.0428 Q326.6256,238.9178 327.9381,237.2616 Q329.2663,235.6053 331.7663,235.6053 Q332.4694,235.6053 333.11,235.7616 Q333.7663,235.9178 334.3288,236.2147 L334.3288,238.9334 Q333.7038,238.3553 333.11,238.0897 Q332.5163,237.8084 331.8913,237.8084 Q330.5475,237.8084 329.86,238.8866 Q329.1725,239.9491 329.1725,242.0428 Q329.1725,244.1366 329.86,245.2147 Q330.5475,246.2772 331.8913,246.2772 Q332.5163,246.2772 333.11,246.0116 Q333.7038,245.7303 334.3288,245.1522 L334.3288,247.8709 Z " fill="#000000"/><text fill="#000000" font-family="sans-serif" font-size="12" font-style="italic" lengthAdjust="spacing" textLength="134" x="343.36" y="238.2362">&#171;MedicationRequest&#187;</text><text fill="#000000" font-family="sans-serif" font-size="14" lengthAdjust="spacing" textLength="77" x="371.86" y="254.0614">Rekvisisjon</text><line style="stroke:#181818;stroke-width:0.5;" x1="317.36" x2="477.36" y1="262.3631" y2="262.3631"/><line style="stroke:#181818;stroke-width:0.5;" x1="317.36" x2="477.36" y1="270.3631" y2="270.3631"/></g><!--class Institusjonsopphold--><g id="elem_Institusjonsopphold"><rect codeLine="33" fill="#F1F1F1" height="56.2656" id="Institusjonsopphold" rx="2.5" ry="2.5" style="stroke:#181818;stroke-width:0.5;" width="168" x="531.36" y="222.0975"/><ellipse cx="546.36" cy="242.2303" fill="#ADD1B2" rx="11" ry="11" style="stroke:#181818;stroke-width:1.0;"/><path d="M549.3288,247.8709 Q548.7506,248.1678 548.11,248.3084 Q547.4694,248.4647 546.7663,248.4647 Q544.2663,248.4647 542.9381,246.8241 Q541.6256,245.1678 541.6256,242.0428 Q541.6256,238.9178 542.9381,237.2616 Q544.2663,235.6053 546.7663,235.6053 Q547.4694,235.6053 548.11,235.7616 Q548.7663,235.9178 549.3288,236.2147 L549.3288,238.9334 Q548.7038,238.3553 548.11,238.0897 Q547.5163,237.8084 546.8913,237.8084 Q545.5475,237.8084 544.86,238.8866 Q544.1725,239.9491 544.1725,242.0428 Q544.1725,244.1366 544.86,245.2147 Q545.5475,246.2772 546.8913,246.2772 Q547.5163,246.2772 548.11,246.0116 Q548.7038,245.7303 549.3288,245.1522 L549.3288,247.8709 Z " fill="#000000"/><text fill="#000000" font-family="sans-serif" font-size="12" font-style="italic" lengthAdjust="spacing" textLength="106" x="575.36" y="238.2362">&#171;EpisodeOfCate&#187;</text><text fill="#000000" font-family="sans-serif" font-size="14" lengthAdjust="spacing" textLength="136" x="560.36" y="254.0614">Institusjonsopphold</text><line style="stroke:#181818;stroke-width:0.5;" x1="532.36" x2="698.36" y1="262.3631" y2="262.3631"/><line style="stroke:#181818;stroke-width:0.5;" x1="532.36" x2="698.36" y1="270.3631" y2="270.3631"/></g><!--class Diagnose--><g id="elem_Diagnose"><rect codeLine="40" fill="#F1F1F1" height="56.2656" id="Diagnose" rx="2.5" ry="2.5" style="stroke:#181818;stroke-width:0.5;" width="106" x="479.36" y="338.3675"/><ellipse cx="494.36" cy="358.5003" fill="#ADD1B2" rx="11" ry="11" style="stroke:#181818;stroke-width:1.0;"/><path d="M497.3288,364.1409 Q496.7506,364.4378 496.11,364.5784 Q495.4694,364.7347 494.7663,364.7347 Q492.2663,364.7347 490.9381,363.0941 Q489.6256,361.4378 489.6256,358.3128 Q489.6256,355.1878 490.9381,353.5316 Q492.2663,351.8753 494.7663,351.8753 Q495.4694,351.8753 496.11,352.0316 Q496.7663,352.1878 497.3288,352.4847 L497.3288,355.2034 Q496.7038,354.6253 496.11,354.3597 Q495.5163,354.0784 494.8913,354.0784 Q493.5475,354.0784 492.86,355.1566 Q492.1725,356.2191 492.1725,358.3128 Q492.1725,360.4066 492.86,361.4847 Q493.5475,362.5472 494.8913,362.5472 Q495.5163,362.5472 496.11,362.2816 Q496.7038,362.0003 497.3288,361.4222 L497.3288,364.1409 Z " fill="#000000"/><text fill="#000000" font-family="sans-serif" font-size="12" font-style="italic" lengthAdjust="spacing" textLength="78" x="506.36" y="354.5062">&#171;Condtition&#187;</text><text fill="#000000" font-family="sans-serif" font-size="14" lengthAdjust="spacing" textLength="66" x="512.36" y="370.3314">Diagnose</text><line style="stroke:#181818;stroke-width:0.5;" x1="480.36" x2="584.36" y1="378.6331" y2="378.6331"/><line style="stroke:#181818;stroke-width:0.5;" x1="480.36" x2="584.36" y1="386.6331" y2="386.6331"/></g><!--link Legemiddeladministrasjon to Legemiddel--><g id="link_Legemiddeladministrasjon_Legemiddel"><path codeLine="16" d="M292.9,162.4275 C254.55,215.5675 199.9217,291.2825 169.6917,333.1625 " fill="none" id="Legemiddeladministrasjon-to-Legemiddel" style="stroke:#181818;stroke-width:1.0;"/><polygon fill="#181818" points="166.18,338.0275,174.6908,333.0711,169.1064,333.9733,168.2042,328.3889,166.18,338.0275" style="stroke:#181818;stroke-width:1.0;"/></g><!--link Legemiddeladministrasjon to Pasient--><g id="link_Legemiddeladministrasjon_Pasient"><path codeLine="17" d="M225.2,162.5875 C127.39,218.0075 6,309.2875 72.36,394.6275 C117.06,452.1075 333.8374,482.1885 429.5574,492.9285 " fill="none" id="Legemiddeladministrasjon-to-Pasient" style="stroke:#181818;stroke-width:1.0;"/><polygon fill="#181818" points="435.52,493.5975,427.0221,488.6189,430.5512,493.04,426.1301,496.569,435.52,493.5975" style="stroke:#181818;stroke-width:1.0;"/></g><!--link Legemiddeladministrasjon to Helsepersonell--><g id="link_Legemiddeladministrasjon_Helsepersonell"><path codeLine="18" d="M312.8,162.4075 C307.35,181.0075 302.06,202.2775 299.36,222.0975 C295.98,246.8775 298.5,253.3675 299.36,278.3675 C300.05,298.3675 301.1419,314.9266 302.5119,332.0666 " fill="none" id="Legemiddeladministrasjon-to-Helsepersonell" style="stroke:#181818;stroke-width:1.0;"/><polygon fill="#181818" points="302.99,338.0475,306.2602,328.7574,302.5916,333.0634,298.2856,329.3948,302.99,338.0475" style="stroke:#181818;stroke-width:1.0;"/></g><!--link Legemiddeladministrasjon to Organisasjon--><g id="link_Legemiddeladministrasjon_Organisasjon"><path codeLine="19" d="M436.72,113.3475 C523.66,121.4375 643.69,146.8075 716.36,222.0975 C746.49,253.3075 752.414,299.8086 753.034,331.8786 " fill="none" id="Legemiddeladministrasjon-to-Organisasjon" style="stroke:#181818;stroke-width:1.0;"/><polygon fill="#181818" points="753.15,337.8775,756.9753,328.8019,753.0534,332.8784,748.9768,328.9565,753.15,337.8775" style="stroke:#181818;stroke-width:1.0;"/></g><!--link Legemiddeladministrasjon to Rekvisisjon--><g id="link_Legemiddeladministrasjon_Rekvisisjon"><path codeLine="20" d="M355.5,162.5675 C365.23,182.7075 373.3511,199.5244 381.5111,216.4244 " fill="none" id="Legemiddeladministrasjon-to-Rekvisisjon" style="stroke:#181818;stroke-width:1.0;"/><polygon fill="#181818" points="384.12,221.8275,383.8088,211.9836,381.946,217.3249,376.6046,215.462,384.12,221.8275" style="stroke:#181818;stroke-width:1.0;"/></g><!--link Legemiddeladministrasjon to Institusjonsopphold--><g id="link_Legemiddeladministrasjon_Institusjonsopphold"><path codeLine="21" d="M436.48,162.1675 C477.95,182.3475 518.4253,202.0513 553.3253,219.0413 " fill="none" id="Legemiddeladministrasjon-to-Institusjonsopphold" style="stroke:#181818;stroke-width:1.0;"/><polygon fill="#181818" points="558.72,221.6675,552.3788,214.1317,554.2244,219.479,548.8771,221.3246,558.72,221.6675" style="stroke:#181818;stroke-width:1.0;"/></g><!--link Organisasjon to Organisasjon--><g id="link_Organisasjon_Organisasjon"><path codeLine="31" d="M813.76,344.7075 C833.1,345.0375 848.36,352.3075 848.36,366.4975 C848.36,380.6875 839.0991,387.842 819.7591,388.182 " fill="none" id="Organisasjon-to-Organisasjon" style="stroke:#181818;stroke-width:1.0;"/><polygon fill="#181818" points="813.76,388.2875,822.8289,392.1287,818.7592,388.1996,822.6883,384.1299,813.76,388.2875" style="stroke:#181818;stroke-width:1.0;"/></g><!--link Institusjonsopphold to Pasient--><g id="link_Institusjonsopphold_Pasient"><path codeLine="36" d="M618.84,278.8475 C621.33,309.0575 621.44,358.0575 602.36,394.6275 C584.74,428.3875 555.9716,452.289 528.2616,470.289 " fill="none" id="Institusjonsopphold-to-Pasient" style="stroke:#181818;stroke-width:1.0;"/><polygon fill="#181818" points="523.23,473.5575,532.9564,472.0092,527.423,470.8338,528.5984,465.3004,523.23,473.5575" style="stroke:#181818;stroke-width:1.0;"/></g><!--link Institusjonsopphold to Organisasjon--><g id="link_Institusjonsopphold_Organisasjon"><path codeLine="37" d="M648.18,278.5975 C669.71,296.5575 693.1633,316.1132 714.7333,334.1132 " fill="none" id="Institusjonsopphold-to-Organisasjon" style="stroke:#181818;stroke-width:1.0;"/><polygon fill="#181818" points="719.34,337.9575,714.9928,329.12,715.5011,334.754,709.8671,335.2622,719.34,337.9575" style="stroke:#181818;stroke-width:1.0;"/></g><!--link Institusjonsopphold to Diagnose--><g id="link_Institusjonsopphold_Diagnose"><path codeLine="38" d="M595.48,278.5975 C582.44,296.5575 568.9653,315.1024 555.8953,333.1024 " fill="none" id="Institusjonsopphold-to-Diagnose" style="stroke:#181818;stroke-width:1.0;"/><polygon fill="#181818" points="552.37,337.9575,560.8947,333.0251,555.3078,333.9116,554.4213,328.3246,552.37,337.9575" style="stroke:#181818;stroke-width:1.0;"/></g><!--link Diagnose to Pasient--><g id="link_Diagnose_Pasient"><path codeLine="43" d="M521.25,394.8675 C514.27,412.0675 507.3686,429.0788 499.3886,448.7188 " fill="none" id="Diagnose-to-Pasient" style="stroke:#181818;stroke-width:1.0;stroke-dasharray:7.0,7.0;"/><polygon fill="#181818" points="497.13,454.2775,504.2236,447.4452,499.0121,449.6453,496.8121,444.4338,497.13,454.2775" style="stroke:#181818;stroke-width:1.0;"/></g><!--link Rekvisisjon to Diagnose--><g id="link_Rekvisisjon_Diagnose"><path codeLine="48" d="M429.7,278.5975 C450.91,296.5575 473.9808,316.0805 495.2408,334.0805 " fill="none" id="Rekvisisjon-to-Diagnose" style="stroke:#181818;stroke-width:1.0;"/><polygon fill="#181818" points="499.82,337.9575,495.5359,329.0892,496.004,334.7267,490.3666,335.1948,499.82,337.9575" style="stroke:#181818;stroke-width:1.0;"/></g><!--link Rekvisisjon to Legemiddel--><g id="link_Rekvisisjon_Legemiddel"><path codeLine="49" d="M336.92,278.7475 C296.16,297.2975 248.2005,319.1309 208.3005,337.3009 " fill="none" id="Rekvisisjon-to-Legemiddel" style="stroke:#181818;stroke-width:1.0;"/><polygon fill="#181818" points="202.84,339.7875,212.6884,339.6979,207.3904,337.7153,209.3729,332.4172,202.84,339.7875" style="stroke:#181818;stroke-width:1.0;"/></g><!--link Rekvisisjon to Pasient--><g id="link_Rekvisisjon_Pasient"><path codeLine="50" d="M406.45,278.5875 C420.59,321.1375 446.0783,397.8635 462.9683,448.7035 " fill="none" id="Rekvisisjon-to-Pasient" style="stroke:#181818;stroke-width:1.0;"/><polygon fill="#181818" points="464.86,454.3975,465.8185,444.5954,463.2836,449.6525,458.2265,447.1176,464.86,454.3975" style="stroke:#181818;stroke-width:1.0;"/></g><!--link Rekvisisjon to Helsepersonell--><g id="link_Rekvisisjon_Helsepersonell"><path codeLine="51" d="M375.32,278.5975 C360.87,296.5575 345.7808,315.2824 331.3008,333.2824 " fill="none" id="Rekvisisjon-to-Helsepersonell" style="stroke:#181818;stroke-width:1.0;"/><polygon fill="#181818" points="327.54,337.9575,336.2979,333.4521,330.674,334.0616,330.0645,328.4377,327.54,337.9575" style="stroke:#181818;stroke-width:1.0;"/></g><!--link Rekvisisjon to Rekvisisjon--><g id="link_Rekvisisjon_Rekvisisjon"><path codeLine="52" d="M478.67,228.7675 C498.56,230.3575 513.36,237.5175 513.36,250.2275 C513.36,262.9475 504.5409,269.6194 484.6509,271.2094 " fill="none" id="Rekvisisjon-to-Rekvisisjon" style="stroke:#181818;stroke-width:1.0;"/><polygon fill="#181818" points="478.67,271.6875,487.9601,274.9576,483.6541,271.2891,487.3226,266.9831,478.67,271.6875" style="stroke:#181818;stroke-width:1.0;"/></g><text fill="#888888" font-family="sans-serif" font-size="10" lengthAdjust="spacing" textLength="140" x="350.68" y="558.7691">Folkehelseinstituttet / Vali AS</text><!--SRC=[XPBDRi8m48JlUOfLJd2WlLS82T5MHGA1gDhx5c-2YsEdjk7Ggk_UDKd87z1JOk_dsV5uTuI2BCGBIYcJGf0Iw14IYo2ryz8VtAVHuAM26h6KIkV9aeyZHXH1FDU9iHa6s6M66VK0Ryi5x1KwHq9YYXaCq7wG5Ev8De13607fFQauIepnmSQpKNlQaN9KTlUUFDp3Eoe9qzSuYhP14DRe96aFu_4QVVYRJE0dIiaFXb5kNFZyLcpj6qKcDJkt9vzyUCdEjYnWzFHS2gk-6fycJuNiLS7HQDBe1hV1yWgtePSGHSvn6SsHtcPNDaNUEctS9ZUqFqed_mVdzGWua-SxeqG_rLQEf-JEqRVjXzUok6L51icMQ44spJDNBBzRaYsaT-5Ivu9ZbdlAfUEXN2Kpz5JfNKAR3tEjtcfx3NhaYTV6KUMhMhEPcT6YoA1oSYxUtTNjouEDjse5lQ6l0pbVIJInLlzkeNwtNgdgtDtl366tt5Z_0G00]--></g></svg>