<svg xmlns="http://www.w3.org/2000/svg" xmlns:xlink="http://www.w3.org/1999/xlink" contentStyleType="text/css" height="487px" preserveAspectRatio="none" style="width:785px;height:487px;background:#FFFFFF;" version="1.1" viewBox="0 0 785 487" width="785px" zoomAndPan="magnify"><defs/><g><text fill="#888888" font-family="sans-serif" font-size="10" lengthAdjust="spacing" textLength="263" x="508.14" y="9.2822">Legemiddeldata fra institusjon til Legemiddelregisteret</text><text fill="#000000" font-family="sans-serif" font-size="14" font-weight="bold" lengthAdjust="spacing" textLength="359" x="206.07" y="35.6357">Informasjonsmodell: UML klassediagam - MVP</text><!--class Pasient--><g id="elem_Pasient"><rect codeLine="5" fill="#00FFFF" height="56.2656" id="Pasient" rx="2.5" ry="2.5" style="stroke:#181818;stroke-width:0.5;" width="87" x="240.14" y="405.7275"/><ellipse cx="255.14" cy="425.8603" fill="#ADD1B2" rx="11" ry="11" style="stroke:#181818;stroke-width:1.0;"/><path d="M258.1088,431.5009 Q257.5306,431.7978 256.89,431.9384 Q256.2494,432.0947 255.5463,432.0947 Q253.0463,432.0947 251.7181,430.4541 Q250.4056,428.7978 250.4056,425.6728 Q250.4056,422.5478 251.7181,420.8916 Q253.0463,419.2353 255.5463,419.2353 Q256.2494,419.2353 256.89,419.3916 Q257.5463,419.5478 258.1088,419.8447 L258.1088,422.5634 Q257.4838,421.9853 256.89,421.7197 Q256.2963,421.4384 255.6713,421.4384 Q254.3275,421.4384 253.64,422.5166 Q252.9525,423.5791 252.9525,425.6728 Q252.9525,427.7666 253.64,428.8447 Q254.3275,429.9072 255.6713,429.9072 Q256.2963,429.9072 256.89,429.6416 Q257.4838,429.3603 258.1088,428.7822 L258.1088,431.5009 Z " fill="#000000"/><text fill="#000000" font-family="sans-serif" font-size="12" font-style="italic" lengthAdjust="spacing" textLength="59" x="267.14" y="421.8662">&#171;Patient&#187;</text><text fill="#000000" font-family="sans-serif" font-size="14" lengthAdjust="spacing" textLength="51" x="271.14" y="437.6914">Pasient</text><line style="stroke:#181818;stroke-width:0.5;" x1="241.14" x2="326.14" y1="445.9931" y2="445.9931"/><line style="stroke:#181818;stroke-width:0.5;" x1="241.14" x2="326.14" y1="453.9931" y2="453.9931"/></g><!--class Legemiddeladministrasjon--><g id="elem_Legemiddeladministrasjon"><rect codeLine="8" fill="#00FFFF" height="56.2656" id="Legemiddeladministrasjon" rx="2.5" ry="2.5" style="stroke:#181818;stroke-width:0.5;" width="212" x="296.64" y="56.9375"/><ellipse cx="311.64" cy="77.0703" fill="#ADD1B2" rx="11" ry="11" style="stroke:#181818;stroke-width:1.0;"/><path d="M314.6088,82.7109 Q314.0306,83.0078 313.39,83.1484 Q312.7494,83.3047 312.0463,83.3047 Q309.5463,83.3047 308.2181,81.6641 Q306.9056,80.0078 306.9056,76.8828 Q306.9056,73.7578 308.2181,72.1016 Q309.5463,70.4453 312.0463,70.4453 Q312.7494,70.4453 313.39,70.6016 Q314.0463,70.7578 314.6088,71.0547 L314.6088,73.7734 Q313.9838,73.1953 313.39,72.9297 Q312.7963,72.6484 312.1713,72.6484 Q310.8275,72.6484 310.14,73.7266 Q309.4525,74.7891 309.4525,76.8828 Q309.4525,78.9766 310.14,80.0547 Q310.8275,81.1172 312.1713,81.1172 Q312.7963,81.1172 313.39,80.8516 Q313.9838,80.5703 314.6088,79.9922 L314.6088,82.7109 Z " fill="#000000"/><text fill="#000000" font-family="sans-serif" font-size="12" font-style="italic" lengthAdjust="spacing" textLength="172" x="329.64" y="73.0762">&#171;MedicationAdministration&#187;</text><text fill="#000000" font-family="sans-serif" font-size="14" lengthAdjust="spacing" textLength="180" x="325.64" y="88.9014">Legemiddeladministrasjon</text><line style="stroke:#181818;stroke-width:0.5;" x1="297.64" x2="507.64" y1="97.2031" y2="97.2031"/><line style="stroke:#181818;stroke-width:0.5;" x1="297.64" x2="507.64" y1="105.2031" y2="105.2031"/></g><!--class Legemiddel--><g id="elem_Legemiddel"><rect codeLine="17" fill="#00FFFF" height="56.2656" id="Legemiddel" rx="2.5" ry="2.5" style="stroke:#181818;stroke-width:0.5;" width="112" x="424.64" y="289.4675"/><ellipse cx="439.64" cy="309.6003" fill="#ADD1B2" rx="11" ry="11" style="stroke:#181818;stroke-width:1.0;"/><path d="M442.6088,315.2409 Q442.0306,315.5378 441.39,315.6784 Q440.7494,315.8347 440.0463,315.8347 Q437.5463,315.8347 436.2181,314.1941 Q434.9056,312.5378 434.9056,309.4128 Q434.9056,306.2878 436.2181,304.6316 Q437.5463,302.9753 440.0463,302.9753 Q440.7494,302.9753 441.39,303.1316 Q442.0463,303.2878 442.6088,303.5847 L442.6088,306.3034 Q441.9838,305.7253 441.39,305.4597 Q440.7963,305.1784 440.1713,305.1784 Q438.8275,305.1784 438.14,306.2566 Q437.4525,307.3191 437.4525,309.4128 Q437.4525,311.5066 438.14,312.5847 Q438.8275,313.6472 440.1713,313.6472 Q440.7963,313.6472 441.39,313.3816 Q441.9838,313.1003 442.6088,312.5222 L442.6088,315.2409 Z " fill="#000000"/><text fill="#000000" font-family="sans-serif" font-size="12" font-style="italic" lengthAdjust="spacing" textLength="82" x="452.64" y="305.6062">&#171;Medication&#187;</text><text fill="#000000" font-family="sans-serif" font-size="14" lengthAdjust="spacing" textLength="80" x="453.64" y="321.4314">Legemiddel</text><line style="stroke:#181818;stroke-width:0.5;" x1="425.64" x2="535.64" y1="329.7331" y2="329.7331"/><line style="stroke:#181818;stroke-width:0.5;" x1="425.64" x2="535.64" y1="337.7331" y2="337.7331"/></g><!--class Helsepersonell--><g id="elem_Helsepersonell"><rect codeLine="20" fill="#F1F1F1" height="56.2656" id="Helsepersonell" rx="2.5" ry="2.5" style="stroke:#181818;stroke-width:0.5;" width="135" x="643.14" y="289.4675"/><ellipse cx="658.14" cy="309.6003" fill="#ADD1B2" rx="11" ry="11" style="stroke:#181818;stroke-width:1.0;"/><path d="M661.1088,315.2409 Q660.5306,315.5378 659.89,315.6784 Q659.2494,315.8347 658.5463,315.8347 Q656.0463,315.8347 654.7181,314.1941 Q653.4056,312.5378 653.4056,309.4128 Q653.4056,306.2878 654.7181,304.6316 Q656.0463,302.9753 658.5463,302.9753 Q659.2494,302.9753 659.89,303.1316 Q660.5463,303.2878 661.1088,303.5847 L661.1088,306.3034 Q660.4838,305.7253 659.89,305.4597 Q659.2963,305.1784 658.6713,305.1784 Q657.3275,305.1784 656.64,306.2566 Q655.9525,307.3191 655.9525,309.4128 Q655.9525,311.5066 656.64,312.5847 Q657.3275,313.6472 658.6713,313.6472 Q659.2963,313.6472 659.89,313.3816 Q660.4838,313.1003 661.1088,312.5222 L661.1088,315.2409 Z " fill="#000000"/><text fill="#000000" font-family="sans-serif" font-size="12" font-style="italic" lengthAdjust="spacing" textLength="87" x="680.14" y="305.6062">&#171;Practitioner&#187;</text><text fill="#000000" font-family="sans-serif" font-size="14" lengthAdjust="spacing" textLength="103" x="672.14" y="321.4314">Helsepersonell</text><line style="stroke:#181818;stroke-width:0.5;" x1="644.14" x2="777.14" y1="329.7331" y2="329.7331"/><line style="stroke:#181818;stroke-width:0.5;" x1="644.14" x2="777.14" y1="337.7331" y2="337.7331"/></g><!--class Rekvisisjon--><g id="elem_Rekvisisjon"><rect codeLine="39" fill="#F1F1F1" height="56.2656" id="Rekvisisjon" rx="2.5" ry="2.5" style="stroke:#181818;stroke-width:0.5;" width="162" x="455.64" y="173.1975"/><ellipse cx="470.64" cy="193.3303" fill="#ADD1B2" rx="11" ry="11" style="stroke:#181818;stroke-width:1.0;"/><path d="M473.6088,198.9709 Q473.0306,199.2678 472.39,199.4084 Q471.7494,199.5647 471.0463,199.5647 Q468.5463,199.5647 467.2181,197.9241 Q465.9056,196.2678 465.9056,193.1428 Q465.9056,190.0178 467.2181,188.3616 Q468.5463,186.7053 471.0463,186.7053 Q471.7494,186.7053 472.39,186.8616 Q473.0463,187.0178 473.6088,187.3147 L473.6088,190.0334 Q472.9838,189.4553 472.39,189.1897 Q471.7963,188.9084 471.1713,188.9084 Q469.8275,188.9084 469.14,189.9866 Q468.4525,191.0491 468.4525,193.1428 Q468.4525,195.2366 469.14,196.3147 Q469.8275,197.3772 471.1713,197.3772 Q471.7963,197.3772 472.39,197.1116 Q472.9838,196.8303 473.6088,196.2522 L473.6088,198.9709 Z " fill="#000000"/><text fill="#000000" font-family="sans-serif" font-size="12" font-style="italic" lengthAdjust="spacing" textLength="134" x="482.64" y="189.3362">&#171;MedicationRequest&#187;</text><text fill="#000000" font-family="sans-serif" font-size="14" lengthAdjust="spacing" textLength="77" x="511.14" y="205.1614">Rekvisisjon</text><line style="stroke:#181818;stroke-width:0.5;" x1="456.64" x2="616.64" y1="213.4631" y2="213.4631"/><line style="stroke:#181818;stroke-width:0.5;" x1="456.64" x2="616.64" y1="221.4631" y2="221.4631"/></g><!--class Institusjonsopphold--><g id="elem_Institusjonsopphold"><rect codeLine="27" fill="#F1F1F1" height="56.2656" id="Institusjonsopphold" rx="2.5" ry="2.5" style="stroke:#181818;stroke-width:0.5;" width="168" x="153.64" y="173.1975"/><ellipse cx="168.64" cy="193.3303" fill="#ADD1B2" rx="11" ry="11" style="stroke:#181818;stroke-width:1.0;"/><path d="M171.6088,198.9709 Q171.0306,199.2678 170.39,199.4084 Q169.7494,199.5647 169.0463,199.5647 Q166.5463,199.5647 165.2181,197.9241 Q163.9056,196.2678 163.9056,193.1428 Q163.9056,190.0178 165.2181,188.3616 Q166.5463,186.7053 169.0463,186.7053 Q169.7494,186.7053 170.39,186.8616 Q171.0463,187.0178 171.6088,187.3147 L171.6088,190.0334 Q170.9838,189.4553 170.39,189.1897 Q169.7963,188.9084 169.1713,188.9084 Q167.8275,188.9084 167.14,189.9866 Q166.4525,191.0491 166.4525,193.1428 Q166.4525,195.2366 167.14,196.3147 Q167.8275,197.3772 169.1713,197.3772 Q169.7963,197.3772 170.39,197.1116 Q170.9838,196.8303 171.6088,196.2522 L171.6088,198.9709 Z " fill="#000000"/><text fill="#000000" font-family="sans-serif" font-size="12" font-style="italic" lengthAdjust="spacing" textLength="106" x="197.64" y="189.3362">&#171;EpisodeOfCare&#187;</text><text fill="#000000" font-family="sans-serif" font-size="14" lengthAdjust="spacing" textLength="136" x="182.64" y="205.1614">Institusjonsopphold</text><line style="stroke:#181818;stroke-width:0.5;" x1="154.64" x2="320.64" y1="213.4631" y2="213.4631"/><line style="stroke:#181818;stroke-width:0.5;" x1="154.64" x2="320.64" y1="221.4631" y2="221.4631"/></g><!--class Organisasjon--><g id="elem_Organisasjon"><rect codeLine="22" fill="#F1F1F1" height="56.2656" id="Organisasjon" rx="2.5" ry="2.5" style="stroke:#181818;stroke-width:0.5;" width="122" x="37.64" y="289.4675"/><ellipse cx="52.64" cy="309.6003" fill="#ADD1B2" rx="11" ry="11" style="stroke:#181818;stroke-width:1.0;"/><path d="M55.6088,315.2409 Q55.0306,315.5378 54.39,315.6784 Q53.7494,315.8347 53.0463,315.8347 Q50.5463,315.8347 49.2181,314.1941 Q47.9056,312.5378 47.9056,309.4128 Q47.9056,306.2878 49.2181,304.6316 Q50.5463,302.9753 53.0463,302.9753 Q53.7494,302.9753 54.39,303.1316 Q55.0463,303.2878 55.6088,303.5847 L55.6088,306.3034 Q54.9838,305.7253 54.39,305.4597 Q53.7963,305.1784 53.1713,305.1784 Q51.8275,305.1784 51.14,306.2566 Q50.4525,307.3191 50.4525,309.4128 Q50.4525,311.5066 51.14,312.5847 Q51.8275,313.6472 53.1713,313.6472 Q53.7963,313.6472 54.39,313.3816 Q54.9838,313.1003 55.6088,312.5222 L55.6088,315.2409 Z " fill="#000000"/><text fill="#000000" font-family="sans-serif" font-size="12" font-style="italic" lengthAdjust="spacing" textLength="92" x="65.64" y="305.6062">&#171;Organization&#187;</text><text fill="#000000" font-family="sans-serif" font-size="14" lengthAdjust="spacing" textLength="90" x="66.64" y="321.4314">Organisasjon</text><line style="stroke:#181818;stroke-width:0.5;" x1="38.64" x2="158.64" y1="329.7331" y2="329.7331"/><line style="stroke:#181818;stroke-width:0.5;" x1="38.64" x2="158.64" y1="337.7331" y2="337.7331"/></g><!--class Diagnose--><g id="elem_Diagnose"><rect codeLine="34" fill="#F1F1F1" height="56.2656" id="Diagnose" rx="2.5" ry="2.5" style="stroke:#181818;stroke-width:0.5;" width="106" x="283.64" y="289.4675"/><ellipse cx="298.64" cy="309.6003" fill="#ADD1B2" rx="11" ry="11" style="stroke:#181818;stroke-width:1.0;"/><path d="M301.6088,315.2409 Q301.0306,315.5378 300.39,315.6784 Q299.7494,315.8347 299.0463,315.8347 Q296.5463,315.8347 295.2181,314.1941 Q293.9056,312.5378 293.9056,309.4128 Q293.9056,306.2878 295.2181,304.6316 Q296.5463,302.9753 299.0463,302.9753 Q299.7494,302.9753 300.39,303.1316 Q301.0463,303.2878 301.6088,303.5847 L301.6088,306.3034 Q300.9838,305.7253 300.39,305.4597 Q299.7963,305.1784 299.1713,305.1784 Q297.8275,305.1784 297.14,306.2566 Q296.4525,307.3191 296.4525,309.4128 Q296.4525,311.5066 297.14,312.5847 Q297.8275,313.6472 299.1713,313.6472 Q299.7963,313.6472 300.39,313.3816 Q300.9838,313.1003 301.6088,312.5222 L301.6088,315.2409 Z " fill="#000000"/><text fill="#000000" font-family="sans-serif" font-size="12" font-style="italic" lengthAdjust="spacing" textLength="78" x="310.64" y="305.6062">&#171;Condtition&#187;</text><text fill="#000000" font-family="sans-serif" font-size="14" lengthAdjust="spacing" textLength="66" x="316.64" y="321.4314">Diagnose</text><line style="stroke:#181818;stroke-width:0.5;" x1="284.64" x2="388.64" y1="329.7331" y2="329.7331"/><line style="stroke:#181818;stroke-width:0.5;" x1="284.64" x2="388.64" y1="337.7331" y2="337.7331"/></g><!--link Legemiddeladministrasjon to Legemiddel--><g id="link_Legemiddeladministrasjon_Legemiddel"><path codeLine="11" d="M407.8,113.5175 C413.69,142.7475 424.39,190.1275 438.64,229.4675 C446.08,249.9875 454.0223,266.814 462.7723,283.644 " fill="none" id="Legemiddeladministrasjon-to-Legemiddel" style="stroke:#181818;stroke-width:1.0;"/><polygon fill="#181818" points="465.54,288.9675,464.9374,279.1371,463.2336,284.5312,457.8394,282.8274,465.54,288.9675" style="stroke:#181818;stroke-width:1.0;"/></g><!--link Legemiddeladministrasjon to Pasient--><g id="link_Legemiddeladministrasjon_Pasient"><path codeLine="12" d="M296.59,104.6675 C200.03,128.3275 65.86,180.1075 20.64,289.4675 C11.09,312.5775 6,325.4575 20.64,345.7275 C70.91,415.3375 172.9456,429.9773 233.7556,432.6173 " fill="none" id="Legemiddeladministrasjon-to-Pasient" style="stroke:#181818;stroke-width:1.0;"/><polygon fill="#181818" points="239.75,432.8775,230.932,428.4909,234.7547,432.6606,230.585,436.4834,239.75,432.8775" style="stroke:#181818;stroke-width:1.0;"/></g><!--link Legemiddeladministrasjon to Helsepersonell--><g id="link_Legemiddeladministrasjon_Helsepersonell"><path codeLine="13" d="M508.85,102.0075 C558.15,114.2075 614.4,135.6575 653.64,173.1975 C686.36,204.4975 699.6195,251.0693 705.5995,283.1193 " fill="none" id="Legemiddeladministrasjon-to-Helsepersonell" style="stroke:#181818;stroke-width:1.0;"/><polygon fill="#181818" points="706.7,289.0175,708.9814,279.4365,705.7829,284.1023,701.1171,280.9039,706.7,289.0175" style="stroke:#181818;stroke-width:1.0;"/></g><!--link Legemiddeladministrasjon to Rekvisisjon--><g id="link_Legemiddeladministrasjon_Rekvisisjon"><path codeLine="14" d="M434.74,113.4375 C455.8,131.3975 478.6742,150.9047 499.7742,168.8947 " fill="none" id="Legemiddeladministrasjon-to-Rekvisisjon" style="stroke:#181818;stroke-width:1.0;"/><polygon fill="#181818" points="504.34,172.7875,500.0866,163.9045,500.5352,169.5435,494.8962,169.9921,504.34,172.7875" style="stroke:#181818;stroke-width:1.0;"/></g><!--link Legemiddeladministrasjon to Institusjonsopphold--><g id="link_Legemiddeladministrasjon_Institusjonsopphold"><path codeLine="15" d="M363.12,113.4375 C337.19,131.3975 308.3334,151.3826 282.3434,169.3726 " fill="none" id="Legemiddeladministrasjon-to-Institusjonsopphold" style="stroke:#181818;stroke-width:1.0;"/><polygon fill="#181818" points="277.41,172.7875,287.0867,170.9542,281.5212,169.9418,282.5336,164.3763,277.41,172.7875" style="stroke:#181818;stroke-width:1.0;"/></g><!--link Organisasjon to Organisasjon--><g id="link_Organisasjon_Organisasjon"><path codeLine="25" d="M160.04,295.8075 C179.38,296.1475 194.64,303.4075 194.64,317.5975 C194.64,331.7875 185.3791,338.9551 166.0391,339.2851 " fill="none" id="Organisasjon-to-Organisasjon" style="stroke:#181818;stroke-width:1.0;"/><polygon fill="#181818" points="160.04,339.3875,169.1069,343.2334,165.0393,339.3022,168.9704,335.2345,160.04,339.3875" style="stroke:#181818;stroke-width:1.0;"/></g><!--link Institusjonsopphold to Pasient--><g id="link_Institusjonsopphold_Pasient"><path codeLine="30" d="M243.1,229.6875 C251.95,274.0475 268.1656,355.3236 277.0156,399.6636 " fill="none" id="Institusjonsopphold-to-Pasient" style="stroke:#181818;stroke-width:1.0;"/><polygon fill="#181818" points="278.19,405.5475,280.351,395.9387,277.2113,400.6442,272.5058,397.5045,278.19,405.5475" style="stroke:#181818;stroke-width:1.0;"/></g><!--link Institusjonsopphold to Organisasjon--><g id="link_Institusjonsopphold_Organisasjon"><path codeLine="31" d="M204.35,229.7075 C182.5,247.6575 158.6646,267.2569 136.7846,285.2469 " fill="none" id="Institusjonsopphold-to-Organisasjon" style="stroke:#181818;stroke-width:1.0;"/><polygon fill="#181818" points="132.15,289.0575,141.6423,286.4313,136.0121,285.882,136.5615,280.2519,132.15,289.0575" style="stroke:#181818;stroke-width:1.0;"/></g><!--link Institusjonsopphold to Diagnose--><g id="link_Institusjonsopphold_Diagnose"><path codeLine="32" d="M261.35,229.7075 C276.91,247.6575 293.2606,266.5332 308.8506,284.5232 " fill="none" id="Institusjonsopphold-to-Diagnose" style="stroke:#181818;stroke-width:1.0;"/><polygon fill="#181818" points="312.78,289.0575,309.9088,279.6365,309.5055,285.2789,303.863,284.8756,312.78,289.0575" style="stroke:#181818;stroke-width:1.0;"/></g><!--link Diagnose to Pasient--><g id="link_Diagnose_Pasient"><path codeLine="37" d="M323.95,345.9675 C315.62,363.9275 307.2824,381.8835 298.9424,399.8835 " fill="none" id="Diagnose-to-Pasient" style="stroke:#181818;stroke-width:1.0;stroke-dasharray:7.0,7.0;"/><polygon fill="#181818" points="296.42,405.3275,303.833,398.8431,298.522,400.7908,296.5742,395.4799,296.42,405.3275" style="stroke:#181818;stroke-width:1.0;"/></g><!--link Rekvisisjon to Diagnose--><g id="link_Rekvisisjon_Diagnose"><path codeLine="42" d="M488.48,229.8475 C457.04,247.8075 421.3591,268.19 389.9391,286.15 " fill="none" id="Rekvisisjon-to-Diagnose" style="stroke:#181818;stroke-width:1.0;"/><polygon fill="#181818" points="384.73,289.1275,394.5286,288.1339,389.0709,286.6462,390.5585,281.1885,384.73,289.1275" style="stroke:#181818;stroke-width:1.0;"/></g><!--link Rekvisisjon to Legemiddel--><g id="link_Rekvisisjon_Legemiddel"><path codeLine="43" d="M523.23,229.7075 C514.43,247.6575 505.6013,265.6801 496.7813,283.6701 " fill="none" id="Rekvisisjon-to-Legemiddel" style="stroke:#181818;stroke-width:1.0;"/><polygon fill="#181818" points="494.14,289.0575,501.6935,282.7373,496.3411,284.568,494.5103,279.2156,494.14,289.0575" style="stroke:#181818;stroke-width:1.0;"/></g><!--link Rekvisisjon to Pasient--><g id="link_Rekvisisjon_Pasient"><path codeLine="44" d="M550.48,229.7175 C564.05,260.8575 579.4,311.7675 554.64,345.7275 C502.32,417.5175 395.8571,431.2718 333.5171,433.2018 " fill="none" id="Rekvisisjon-to-Pasient" style="stroke:#181818;stroke-width:1.0;"/><polygon fill="#181818" points="327.52,433.3875,336.6395,437.1071,332.5176,433.2328,336.3919,429.1109,327.52,433.3875" style="stroke:#181818;stroke-width:1.0;"/></g><!--link Rekvisisjon to Helsepersonell--><g id="link_Rekvisisjon_Helsepersonell"><path codeLine="45" d="M578.32,229.7075 C605.67,247.6575 636.2844,267.7744 663.6844,285.7644 " fill="none" id="Rekvisisjon-to-Helsepersonell" style="stroke:#181818;stroke-width:1.0;"/><polygon fill="#181818" points="668.7,289.0575,663.372,280.7742,664.5204,286.3133,658.9813,287.4616,668.7,289.0575" style="stroke:#181818;stroke-width:1.0;"/></g><!--link Rekvisisjon to Rekvisisjon--><g id="link_Rekvisisjon_Rekvisisjon"><path codeLine="46" d="M617.95,179.8775 C637.84,181.4675 652.64,188.6175 652.64,201.3375 C652.64,214.0475 643.8209,220.7294 623.9309,222.3194 " fill="none" id="Rekvisisjon-to-Rekvisisjon" style="stroke:#181818;stroke-width:1.0;"/><polygon fill="#181818" points="617.95,222.7975,627.2401,226.0676,622.9341,222.3991,626.6026,218.0931,617.95,222.7975" style="stroke:#181818;stroke-width:1.0;"/></g><text fill="#888888" font-family="sans-serif" font-size="10" lengthAdjust="spacing" textLength="140" x="315.57" y="477.2754">Folkehelseinstituttet / Vali AS</text><!--SRC=[VP9FRy8m3CNl_HHMTuRT9uI4s2QGG22cSRSQjsIaIPU4ITkqxpu72Fq3z5R7Fp-_lcH7ACX2kg22IYa4AO4U8RS8KZil_S5z60rUAgWHIuLqdYpvD6544QHpdHjROe1TQPXHJ_2-NC1UeNCa91POmW2MstMQvCRuiFFLg3tjI3awh_AUF3p25fM4oLkQ95cOXZKwITh3QBH67xx6OtZ8lb73R_8NeTeTYb9gzcUFRdXgoVipdZHwScc5gYrpLs0m63VKeHyyU-s7Pk6VAxBEQ0wgdztG_aiw6Uf-S5vVbpDLjJDAN6VJIkDMZ6rh8NAB6UioJfO70deYLxP0jX13FfK_KVWesKA2n-P1t7Z3DykzLDBnCrhbKxGKzMwXpT3lzLjhxq7F_4QrSHHznPhDJ8qMfmoYaqjpEApNdmSRDzQAUqEV1t8-IZInrlvkexwzgrRSt3tlFB1kkr7_0m00]--></g></svg>