<svg version="1.1" id="Layer_1" xmlns="http://www.w3.org/2000/svg" xmlns:xlink="http://www.w3.org/1999/xlink" x="0px" y="0px"
	 width="100%" viewBox="0 0 400 169" enable-background="new 0 0 400 169" xml:space="preserve">
<path fill="#FEFFFF" opacity="1.000000" stroke="none" 
	d="
M272.000000,170.000000 
	C181.333344,170.000000 91.166687,170.000000 1.000024,170.000000 
	C1.000016,113.666687 1.000016,57.333370 1.000008,1.000039 
	C134.333298,1.000026 267.666595,1.000026 400.999939,1.000013 
	C400.999939,57.333294 400.999939,113.666588 400.999969,169.999939 
	C358.166656,170.000000 315.333344,170.000000 272.000000,170.000000 
M78.326988,111.090248 
	C82.943039,109.493164 88.254959,108.851746 92.031570,106.101814 
	C100.114578,100.216148 101.133224,88.622337 94.612488,78.647469 
	C85.570229,64.815369 72.723198,57.037708 55.859207,57.064495 
	C38.206799,57.092533 28.882732,71.614738 37.264668,87.154243 
	C45.673885,102.744331 59.180138,111.223923 78.326988,111.090248 
M267.499939,82.058380 
	C257.848022,82.058380 248.191833,81.907021 238.547653,82.180214 
	C236.505875,82.238052 234.508041,83.847588 232.489960,84.742188 
	C234.574982,85.555328 236.647705,87.033173 238.747040,87.071968 
	C250.891037,87.296417 263.041443,87.145691 275.189362,87.202354 
	C279.007202,87.220161 282.880371,87.126930 286.629089,87.715729 
	C293.847870,88.849564 296.488251,93.339584 294.578400,100.966118 
	C279.891357,100.966118 265.098602,100.702049 250.326035,101.131653 
	C246.053635,101.255898 241.277725,102.487671 237.710938,104.752419 
	C229.405777,110.025795 229.834869,120.693939 238.436234,125.535141 
	C241.895096,127.481918 246.238861,128.453674 250.250488,128.694885 
	C258.209564,129.173431 266.219238,128.933075 274.204926,128.802704 
	C279.509216,128.716110 284.906860,128.849564 290.086426,127.911316 
	C297.830383,126.508537 302.017303,120.901314 302.148254,113.058281 
	C302.223236,108.566360 302.177795,104.072166 302.163666,99.579063 
	C302.129089,88.587234 296.105682,82.393051 284.973999,82.088249 
	C279.486420,81.937988 273.991455,82.059723 267.499939,82.058380 
M190.578323,123.065125 
	C192.394653,124.987061 194.210983,126.908989 196.027328,128.830917 
	C197.675934,126.919098 199.783798,125.241661 200.898575,123.057396 
	C208.079941,108.986481 215.056870,94.811043 222.073715,80.656433 
	C225.176468,74.397453 228.347198,68.165009 231.164734,61.778309 
	C231.684860,60.599289 230.659882,58.738651 230.348068,57.192619 
	C228.745483,57.686413 226.932953,57.872860 225.610260,58.776390 
	C224.644257,59.436272 224.305832,61.031670 223.717178,62.224602 
	C215.107178,79.673424 206.507462,97.127319 197.883316,114.569130 
	C197.341675,115.664558 196.618622,116.670288 195.682175,118.206184 
	C194.509735,115.970222 193.650757,114.368393 192.824127,112.750038 
	C183.974976,95.425407 175.112839,78.107368 166.305435,60.761524 
	C165.016266,58.222553 163.627777,55.627838 160.349213,57.337875 
	C156.834198,59.171227 159.382370,61.704712 160.393372,63.709816 
	C170.276810,83.311638 180.250717,102.867844 190.578323,123.065125 
M120.948654,100.551895 
	C126.787346,106.299149 133.707520,109.385254 141.993607,108.957550 
	C152.230545,108.429153 157.373123,100.232239 153.413452,90.840515 
	C148.847733,80.011337 134.810669,72.677925 123.395958,75.158401 
	C116.156937,76.731476 111.918251,84.386620 114.859009,91.339890 
	C116.181694,94.467323 118.545807,97.154305 120.948654,100.551895 
M312.025452,104.490082 
	C312.025726,106.820114 312.020264,109.150154 312.027283,111.480171 
	C312.056519,121.156853 316.457458,126.707428 326.139557,128.249466 
	C330.857849,129.000931 335.758087,128.886368 340.555878,128.684830 
	C341.902771,128.628250 343.178253,126.872269 344.486511,125.895798 
	C343.220459,125.031425 342.016937,123.557716 340.676270,123.420044 
	C337.050690,123.047752 333.358154,123.392906 329.707794,123.182640 
	C322.192474,122.749733 318.992432,119.278275 318.984161,111.744858 
	C318.966736,95.933922 319.044769,80.122414 318.916412,64.312492 
	C318.893707,61.519417 320.518005,57.123199 315.360748,57.172710 
	C310.547607,57.218922 312.111755,61.395901 312.085327,64.049973 
	C311.954346,77.196732 312.025543,90.345497 312.025452,104.490082 
M102.873032,108.734077 
	C100.461853,114.455322 103.070999,118.770752 107.017632,122.476280 
	C111.899628,127.060036 117.628128,129.236649 124.387756,127.368813 
	C128.565002,126.214546 130.349609,123.236511 130.022537,119.103325 
	C129.465118,112.059357 124.653458,108.179504 118.825661,105.650017 
	C113.371574,103.282738 107.798370,102.860336 102.873032,108.734077 
M358.816681,82.623924 
	C354.802490,81.194832 353.219849,82.957352 353.222168,86.857300 
	C353.229492,99.161041 353.089172,111.468002 353.381134,123.764809 
	C353.421356,125.457703 355.360626,128.248840 356.807587,128.528305 
	C359.872833,129.120346 360.230774,126.419571 360.219147,123.856445 
	C360.164124,111.719223 360.218903,99.581490 360.161316,87.444283 
	C360.154480,86.003120 359.699524,84.564072 358.816681,82.623924 
M355.863159,70.711998 
	C352.619995,71.841072 352.675964,74.499535 353.680908,76.827026 
	C354.148499,77.910011 356.424347,79.007187 357.594635,78.757553 
	C358.663177,78.529610 359.819183,76.589539 360.096802,75.232262 
	C360.619781,72.675186 359.846039,70.533455 355.863159,70.711998 
z"/>
<path fill="#8ED4DD" opacity="1.000000" stroke="none" 
	d="
M77.860275,111.093887 
	C59.180138,111.223923 45.673885,102.744331 37.264668,87.154243 
	C28.882732,71.614738 38.206799,57.092533 55.859207,57.064495 
	C72.723198,57.037708 85.570229,64.815369 94.612488,78.647469 
	C101.133224,88.622337 100.114578,100.216148 92.031570,106.101814 
	C88.254959,108.851746 82.943039,109.493164 77.860275,111.093887 
z"/>
<path fill="#424F52" opacity="1.000000" stroke="none" 
	d="
M267.999878,82.058380 
	C273.991455,82.059723 279.486420,81.937988 284.973999,82.088249 
	C296.105682,82.393051 302.129089,88.587234 302.163666,99.579063 
	C302.177795,104.072166 302.223236,108.566360 302.148254,113.058281 
	C302.017303,120.901314 297.830383,126.508537 290.086426,127.911316 
	C284.906860,128.849564 279.509216,128.716110 274.204926,128.802704 
	C266.219238,128.933075 258.209564,129.173431 250.250488,128.694885 
	C246.238861,128.453674 241.895096,127.481918 238.436234,125.535141 
	C229.834869,120.693939 229.405777,110.025795 237.710938,104.752419 
	C241.277725,102.487671 246.053635,101.255898 250.326035,101.131653 
	C265.098602,100.702049 279.891357,100.966118 294.578400,100.966118 
	C296.488251,93.339584 293.847870,88.849564 286.629089,87.715729 
	C282.880371,87.126930 279.007202,87.220161 275.189362,87.202354 
	C263.041443,87.145691 250.891037,87.296417 238.747040,87.071968 
	C236.647705,87.033173 234.574982,85.555328 232.489960,84.742188 
	C234.508041,83.847588 236.505875,82.238052 238.547653,82.180214 
	C248.191833,81.907021 257.848022,82.058380 267.999878,82.058380 
M243.537079,107.811005 
	C239.950348,109.512100 237.588486,112.656342 239.131729,116.163445 
	C240.345230,118.921219 243.563370,121.054390 246.322754,122.771088 
	C247.811539,123.697296 250.206146,123.268623 252.192764,123.276329 
	C261.990112,123.314346 271.787811,123.319420 281.585175,123.287552 
	C293.801697,123.247810 297.349243,118.674225 294.728424,106.153404 
	C279.521942,106.153404 264.268951,106.116570 249.016678,106.207947 
	C247.416092,106.217537 245.820038,106.983765 243.537079,107.811005 
z"/>
<path fill="#414F52" opacity="1.000000" stroke="none" 
	d="
M190.388611,122.751076 
	C180.250717,102.867844 170.276810,83.311638 160.393372,63.709816 
	C159.382370,61.704712 156.834198,59.171227 160.349213,57.337875 
	C163.627777,55.627838 165.016266,58.222553 166.305435,60.761524 
	C175.112839,78.107368 183.974976,95.425407 192.824127,112.750038 
	C193.650757,114.368393 194.509735,115.970222 195.682175,118.206184 
	C196.618622,116.670288 197.341675,115.664558 197.883316,114.569130 
	C206.507462,97.127319 215.107178,79.673424 223.717178,62.224602 
	C224.305832,61.031670 224.644257,59.436272 225.610260,58.776390 
	C226.932953,57.872860 228.745483,57.686413 230.348068,57.192619 
	C230.659882,58.738651 231.684860,60.599289 231.164734,61.778309 
	C228.347198,68.165009 225.176468,74.397453 222.073715,80.656433 
	C215.056870,94.811043 208.079941,108.986481 200.898575,123.057396 
	C199.783798,125.241661 197.675934,126.919098 196.027328,128.830917 
	C194.210983,126.908989 192.394653,124.987061 190.388611,122.751076 
z"/>
<path fill="#8FD4DE" opacity="1.000000" stroke="none" 
	d="
M120.693016,100.296524 
	C118.545807,97.154305 116.181694,94.467323 114.859009,91.339890 
	C111.918251,84.386620 116.156937,76.731476 123.395958,75.158401 
	C134.810669,72.677925 148.847733,80.011337 153.413452,90.840515 
	C157.373123,100.232239 152.230545,108.429153 141.993607,108.957550 
	C133.707520,109.385254 126.787346,106.299149 120.693016,100.296524 
z"/>
<path fill="#424F53" opacity="1.000000" stroke="none" 
	d="
M312.025452,103.991821 
	C312.025543,90.345497 311.954346,77.196732 312.085327,64.049973 
	C312.111755,61.395901 310.547607,57.218922 315.360748,57.172710 
	C320.518005,57.123199 318.893707,61.519417 318.916412,64.312492 
	C319.044769,80.122414 318.966736,95.933922 318.984161,111.744858 
	C318.992432,119.278275 322.192474,122.749733 329.707794,123.182640 
	C333.358154,123.392906 337.050690,123.047752 340.676270,123.420044 
	C342.016937,123.557716 343.220459,125.031425 344.486511,125.895798 
	C343.178253,126.872269 341.902771,128.628250 340.555878,128.684830 
	C335.758087,128.886368 330.857849,129.000931 326.139557,128.249466 
	C316.457458,126.707428 312.056519,121.156853 312.027283,111.480171 
	C312.020264,109.150154 312.025726,106.820114 312.025452,103.991821 
z"/>
<path fill="#8FD4DE" opacity="1.000000" stroke="none" 
	d="
M103.110527,108.420761 
	C107.798370,102.860336 113.371574,103.282738 118.825661,105.650017 
	C124.653458,108.179504 129.465118,112.059357 130.022537,119.103325 
	C130.349609,123.236511 128.565002,126.214546 124.387756,127.368813 
	C117.628128,129.236649 111.899628,127.060036 107.017632,122.476280 
	C103.070999,118.770752 100.461853,114.455322 103.110527,108.420761 
z"/>
<path fill="#424F53" opacity="1.000000" stroke="none" 
	d="
M359.134521,82.873978 
	C359.699524,84.564072 360.154480,86.003120 360.161316,87.444283 
	C360.218903,99.581490 360.164124,111.719223 360.219147,123.856445 
	C360.230774,126.419571 359.872833,129.120346 356.807587,128.528305 
	C355.360626,128.248840 353.421356,125.457703 353.381134,123.764809 
	C353.089172,111.468002 353.229492,99.161041 353.222168,86.857300 
	C353.219849,82.957352 354.802490,81.194832 359.134521,82.873978 
z"/>
<path fill="#475458" opacity="1.000000" stroke="none" 
	d="
M356.215363,70.650223 
	C359.846039,70.533455 360.619781,72.675186 360.096802,75.232262 
	C359.819183,76.589539 358.663177,78.529610 357.594635,78.757553 
	C356.424347,79.007187 354.148499,77.910011 353.680908,76.827026 
	C352.675964,74.499535 352.619995,71.841072 356.215363,70.650223 
z"/>
<path fill="#FCFDFD" opacity="1.000000" stroke="none" 
	d="
M243.879486,107.604980 
	C245.820038,106.983765 247.416092,106.217537 249.016678,106.207947 
	C264.268951,106.116570 279.521942,106.153404 294.728424,106.153404 
	C297.349243,118.674225 293.801697,123.247810 281.585175,123.287552 
	C271.787811,123.319420 261.990112,123.314346 252.192764,123.276329 
	C250.206146,123.268623 247.811539,123.697296 246.322754,122.771088 
	C243.563370,121.054390 240.345230,118.921219 239.131729,116.163445 
	C237.588486,112.656342 239.950348,109.512100 243.879486,107.604980 
z"/>
</svg>