<svg xmlns="http://www.w3.org/2000/svg" xmlns:xlink="http://www.w3.org/1999/xlink" contentStyleType="text/css" height="482px" preserveAspectRatio="none" style="width:583px;height:482px;background:#FFFFFF;" version="1.1" viewBox="0 0 583 482" width="583px" zoomAndPan="magnify"><defs/><g><text fill="#000000" font-family="sans-serif" font-size="14" font-weight="bold" lengthAdjust="spacing" textLength="192" x="191.5" y="40.6357">Eksempel p&#229; enkel flyt 2</text><rect fill="none" height="218.8984" style="stroke:#000000;stroke-width:1.5;" width="556" x="10" y="120.2344"/><line style="stroke:#181818;stroke-width:0.5;stroke-dasharray:5.0,5.0;" x1="84" x2="84" y1="103.2344" y2="414.3984"/><line style="stroke:#181818;stroke-width:0.5;stroke-dasharray:5.0,5.0;" x1="362.5" x2="362.5" y1="103.2344" y2="414.3984"/><line style="stroke:#181818;stroke-width:0.5;stroke-dasharray:5.0,5.0;" x1="523" x2="523" y1="299.3516" y2="414.3984"/><rect fill="#90EE90" height="30.2969" rx="2.5" ry="2.5" style="stroke:#181818;stroke-width:0.5;" width="128" x="20" y="71.9375"/><text fill="#000000" font-family="sans-serif" font-size="14" lengthAdjust="spacing" textLength="114" x="27" y="91.9326">Klient / fagystem</text><rect fill="#90EE90" height="30.2969" rx="2.5" ry="2.5" style="stroke:#181818;stroke-width:0.5;" width="128" x="20" y="413.3984"/><text fill="#000000" font-family="sans-serif" font-size="14" lengthAdjust="spacing" textLength="114" x="27" y="433.3936">Klient / fagystem</text><text fill="#000000" font-family="sans-serif" font-size="14" lengthAdjust="spacing" textLength="89" x="315.5" y="99.9326">LMR FHIR API</text><path d="M342.5,58.9375 L342.5,82.9375 M342.5,70.9375 L359.5,70.9375 " fill="none" style="stroke:#181818;stroke-width:0.5;"/><ellipse cx="371.5" cy="70.9375" fill="#FFFF00" rx="12" ry="12" style="stroke:#181818;stroke-width:0.5;"/><text fill="#000000" font-family="sans-serif" font-size="14" lengthAdjust="spacing" textLength="89" x="315.5" y="426.3936">LMR FHIR API</text><path d="M342.5,433.6953 L342.5,457.6953 M342.5,445.6953 L359.5,445.6953 " fill="none" style="stroke:#181818;stroke-width:0.5;"/><ellipse cx="371.5" cy="445.6953" fill="#FFFF00" rx="12" ry="12" style="stroke:#181818;stroke-width:0.5;"/><rect fill="#E2E2F0" height="30.2969" rx="2.5" ry="2.5" style="stroke:#181818;stroke-width:0.5;" width="65" x="491" y="413.3984"/><text fill="#000000" font-family="sans-serif" font-size="14" lengthAdjust="spacing" textLength="51" x="498" y="433.3936">Pasient</text><path d="M10,120.2344 L74,120.2344 L74,127.3672 L64,137.3672 L10,137.3672 L10,120.2344 " fill="#EEEEEE" style="stroke:#000000;stroke-width:1.5;"/><rect fill="none" height="218.8984" style="stroke:#000000;stroke-width:1.5;" width="556" x="10" y="120.2344"/><text fill="#000000" font-family="sans-serif" font-size="13" font-weight="bold" lengthAdjust="spacing" textLength="19" x="25" y="133.3013">alt</text><text fill="#000000" font-family="sans-serif" font-size="11" font-weight="bold" lengthAdjust="spacing" textLength="128" x="89" y="132.4448">[Registrere Pasient]</text><polygon fill="#181818" points="351,154.5,361,158.5,351,162.5,355,158.5" style="stroke:#181818;stroke-width:1.0;"/><line style="stroke:#181818;stroke-width:1.0;" x1="84" x2="357" y1="158.5" y2="158.5"/><text fill="#000000" font-family="sans-serif" font-size="13" lengthAdjust="spacing" textLength="172" x="91" y="153.4341">S&#248;k p&#229; Pasient (f.eks. FNR)</text><polygon fill="#181818" points="95,183.6328,85,187.6328,95,191.6328,91,187.6328" style="stroke:#181818;stroke-width:1.0;"/><line style="stroke:#181818;stroke-width:1.0;" x1="89" x2="362" y1="187.6328" y2="187.6328"/><text fill="#000000" font-family="sans-serif" font-size="13" lengthAdjust="spacing" textLength="255" x="101" y="182.5669">Return&#233;r svar p&#229; s&#248;k (1..*  ID = positivt)</text><line style="stroke:#000000;stroke-width:1.0;stroke-dasharray:2.0,2.0;" x1="10" x2="566" y1="196.6328" y2="196.6328"/><text fill="#000000" font-family="sans-serif" font-size="11" font-weight="bold" lengthAdjust="spacing" textLength="67" x="15" y="206.8433">[Hvis ikke]</text><polygon fill="#181818" points="95,227.5703,85,231.5703,95,235.5703,91,231.5703" style="stroke:#181818;stroke-width:1.0;"/><line style="stroke:#181818;stroke-width:1.0;stroke-dasharray:2.0,2.0;" x1="89" x2="362" y1="231.5703" y2="231.5703"/><text fill="#000000" font-family="sans-serif" font-size="13" lengthAdjust="spacing" textLength="237" x="101" y="226.5044">Retun&#233;r svar p&#229; s&#248;k (0 ID = negativt)</text><polygon fill="#181818" points="351,256.7031,361,260.7031,351,264.7031,355,260.7031" style="stroke:#181818;stroke-width:1.0;"/><line style="stroke:#181818;stroke-width:1.0;" x1="84" x2="357" y1="260.7031" y2="260.7031"/><text fill="#000000" font-family="sans-serif" font-size="13" lengthAdjust="spacing" textLength="82" x="91" y="255.6372">Skriv Pasient</text><polygon fill="#181818" points="479,285.8359,489,289.8359,479,293.8359,483,289.8359" style="stroke:#181818;stroke-width:1.0;"/><line style="stroke:#181818;stroke-width:1.0;" x1="363" x2="485" y1="289.8359" y2="289.8359"/><text fill="#000000" font-family="sans-serif" font-size="13" lengthAdjust="spacing" textLength="104" x="370" y="284.77">opprettPasient()</text><rect fill="#E2E2F0" height="30.2969" rx="2.5" ry="2.5" style="stroke:#181818;stroke-width:0.5;" width="65" x="491" y="268.7031"/><text fill="#000000" font-family="sans-serif" font-size="14" lengthAdjust="spacing" textLength="51" x="498" y="288.6982">Pasient</text><polygon fill="#181818" points="95,327.1328,85,331.1328,95,335.1328,91,331.1328" style="stroke:#181818;stroke-width:1.0;"/><line style="stroke:#181818;stroke-width:1.0;" x1="89" x2="362" y1="331.1328" y2="331.1328"/><text fill="#000000" font-family="sans-serif" font-size="13" lengthAdjust="spacing" textLength="72" x="101" y="326.0669">Return&#233;r ID</text><polygon fill="#181818" points="351,363.2656,361,367.2656,351,371.2656,355,367.2656" style="stroke:#181818;stroke-width:1.0;"/><line style="stroke:#181818;stroke-width:1.0;" x1="84" x2="357" y1="367.2656" y2="367.2656"/><text fill="#000000" font-family="sans-serif" font-size="13" lengthAdjust="spacing" textLength="109" x="91" y="362.1997">Hent Pasient (ID)</text><polygon fill="#181818" points="95,392.3984,85,396.3984,95,400.3984,91,396.3984" style="stroke:#181818;stroke-width:1.0;"/><line style="stroke:#181818;stroke-width:1.0;" x1="89" x2="362" y1="396.3984" y2="396.3984"/><text fill="#000000" font-family="sans-serif" font-size="13" lengthAdjust="spacing" textLength="106" x="101" y="391.3325">Return&#233;r Pasient</text><text fill="#888888" font-family="sans-serif" font-size="10" lengthAdjust="spacing" textLength="182" x="393" y="14.2822">Legemiddeldata fra institusjon til LMR</text><text fill="#888888" font-family="sans-serif" font-size="10" lengthAdjust="spacing" textLength="140" x="217.5" y="471.9775">Folkehelseinstituttet / Vali AS</text><!--SRC=[RL3DJkCm4BxxAJw5Iq5gsTqZOf4gbQfH0Q5KsliicQI3NJkofqLz80xx1dllYwsJZO13Rnvz_qvMV4UHTjXigGvlubiqv18RewAEKTpRnBkE7RhJEzZR_6hSKV6ZC5kccYEA1svv9tNDhYObD94WFcNzFhq63nM7XyUgC4q8slENmLdUSauPQQgikCOlSeBvfZ0cLr9vaOwyebWxOT_Z3RN7fBmhG0bhN3Xfjzf6Pcz-XxslAHvpcSSAorLPOVvS3iGvBexiN7WpXfoYubQIHewCPqgzirbZUfTfDzYS_jfXvuXWqipOfXcMJzMbcVUqTQPLhFleJtyYqe7Y84YzSl9zDhi2oWL-eWj9L0vwQOpfbs9ra0InbdFSxNGwvFL6vto-_VVmtDBeyLdHHZbyD3SlaKa_bmmLn-C6eUiYguxt9DkScL0kSa5VVubOzSi_Vg1Sd5q-uly0]--></g></svg>