<svg xmlns="http://www.w3.org/2000/svg" xmlns:xlink="http://www.w3.org/1999/xlink" contentStyleType="text/css" height="497px" preserveAspectRatio="none" style="width:551px;height:497px;background:#FFFFFF;" version="1.1" viewBox="0 0 551 497" width="551px" zoomAndPan="magnify"><defs/><g><text fill="#000000" font-family="sans-serif" font-size="14" font-weight="bold" lengthAdjust="spacing" textLength="177" x="180.5" y="40.6357">Eksempel p&#229; enkel flyt</text><rect fill="#FFFFFF" height="241.8672" style="stroke:#181818;stroke-width:1.0;" width="10" x="269" y="141.2344"/><rect fill="#FFFFFF" height="241.8672" style="stroke:#181818;stroke-width:1.0;" width="10" x="511" y="141.2344"/><rect fill="none" height="119.3359" style="stroke:#000000;stroke-width:1.5;" width="298.5" x="10" y="206.5"/><line style="stroke:#181818;stroke-width:0.5;stroke-dasharray:5.0,5.0;" x1="42" x2="42" y1="131.2344" y2="401.1016"/><line style="stroke:#181818;stroke-width:0.5;stroke-dasharray:5.0,5.0;" x1="273.5" x2="273.5" y1="131.2344" y2="401.1016"/><line style="stroke:#181818;stroke-width:0.5;stroke-dasharray:5.0,5.0;" x1="516" x2="516" y1="131.2344" y2="401.1016"/><text fill="#000000" font-family="sans-serif" font-size="14" lengthAdjust="spacing" textLength="38" x="20" y="127.9326">Klient</text><ellipse cx="42" cy="63.4375" fill="#E2E2F0" rx="8" ry="8" style="stroke:#181818;stroke-width:0.5;"/><path d="M42,71.4375 L42,98.4375 M29,79.4375 L55,79.4375 M42,98.4375 L29,113.4375 M42,98.4375 L55,113.4375 " fill="none" style="stroke:#181818;stroke-width:0.5;"/><text fill="#000000" font-family="sans-serif" font-size="14" lengthAdjust="spacing" textLength="38" x="20" y="413.0967">Klient</text><ellipse cx="42" cy="424.8984" fill="#E2E2F0" rx="8" ry="8" style="stroke:#181818;stroke-width:0.5;"/><path d="M42,432.8984 L42,459.8984 M29,440.8984 L55,440.8984 M42,459.8984 L29,474.8984 M42,459.8984 L55,474.8984 " fill="none" style="stroke:#181818;stroke-width:0.5;"/><text fill="#000000" font-family="sans-serif" font-size="14" lengthAdjust="spacing" textLength="21" x="260.5" y="127.9326">API</text><path d="M253.5,86.9375 L253.5,110.9375 M253.5,98.9375 L270.5,98.9375 " fill="none" style="stroke:#181818;stroke-width:0.5;"/><ellipse cx="282.5" cy="98.9375" fill="#E2E2F0" rx="12" ry="12" style="stroke:#181818;stroke-width:0.5;"/><text fill="#000000" font-family="sans-serif" font-size="14" lengthAdjust="spacing" textLength="21" x="260.5" y="413.0967">API</text><path d="M253.5,420.3984 L253.5,444.3984 M253.5,432.3984 L270.5,432.3984 " fill="none" style="stroke:#181818;stroke-width:0.5;"/><ellipse cx="282.5" cy="432.3984" fill="#E2E2F0" rx="12" ry="12" style="stroke:#181818;stroke-width:0.5;"/><text fill="#000000" font-family="sans-serif" font-size="14" lengthAdjust="spacing" textLength="29" x="498.5" y="127.9326">LMR</text><path d="M498,78.9375 C498,68.9375 516,68.9375 516,68.9375 C516,68.9375 534,68.9375 534,78.9375 L534,104.9375 C534,114.9375 516,114.9375 516,114.9375 C516,114.9375 498,114.9375 498,104.9375 L498,78.9375 " fill="#E2E2F0" style="stroke:#181818;stroke-width:1.5;"/><path d="M498,78.9375 C498,88.9375 516,88.9375 516,88.9375 C516,88.9375 534,88.9375 534,78.9375 " fill="none" style="stroke:#181818;stroke-width:1.5;"/><text fill="#000000" font-family="sans-serif" font-size="14" lengthAdjust="spacing" textLength="29" x="498.5" y="413.0967">LMR</text><path d="M498,426.3984 C498,416.3984 516,416.3984 516,416.3984 C516,416.3984 534,416.3984 534,426.3984 L534,452.3984 C534,462.3984 516,462.3984 516,462.3984 C516,462.3984 498,462.3984 498,452.3984 L498,426.3984 " fill="#E2E2F0" style="stroke:#181818;stroke-width:1.5;"/><path d="M498,426.3984 C498,436.3984 516,436.3984 516,436.3984 C516,436.3984 534,436.3984 534,426.3984 " fill="none" style="stroke:#181818;stroke-width:1.5;"/><rect fill="#FFFFFF" height="241.8672" style="stroke:#181818;stroke-width:1.0;" width="10" x="269" y="141.2344"/><rect fill="#FFFFFF" height="241.8672" style="stroke:#181818;stroke-width:1.0;" width="10" x="511" y="141.2344"/><polygon fill="#181818" points="257,158.3672,267,162.3672,257,166.3672,261,162.3672" style="stroke:#181818;stroke-width:1.0;"/><line style="stroke:#181818;stroke-width:1.0;" x1="42" x2="263" y1="162.3672" y2="162.3672"/><text fill="#000000" font-family="sans-serif" font-size="13" lengthAdjust="spacing" textLength="74" x="49" y="157.3013">Autentisere</text><polygon fill="#181818" points="53,187.5,43,191.5,53,195.5,49,191.5" style="stroke:#181818;stroke-width:1.0;"/><line style="stroke:#181818;stroke-width:1.0;" x1="47" x2="268" y1="191.5" y2="191.5"/><text fill="#000000" font-family="sans-serif" font-size="13" lengthAdjust="spacing" textLength="103" x="59" y="186.4341">Autentisert (OK)</text><path d="M10,206.5 L74,206.5 L74,213.6328 L64,223.6328 L10,223.6328 L10,206.5 " fill="#EEEEEE" style="stroke:#000000;stroke-width:1.5;"/><rect fill="none" height="119.3359" style="stroke:#000000;stroke-width:1.5;" width="298.5" x="10" y="206.5"/><text fill="#000000" font-family="sans-serif" font-size="13" font-weight="bold" lengthAdjust="spacing" textLength="19" x="25" y="219.5669">alt</text><text fill="#000000" font-family="sans-serif" font-size="11" font-weight="bold" lengthAdjust="spacing" textLength="140" x="89" y="218.7104">["Registrere Pasient"]</text><polygon fill="#181818" points="257,240.7656,267,244.7656,257,248.7656,261,244.7656" style="stroke:#181818;stroke-width:1.0;"/><line style="stroke:#181818;stroke-width:1.0;" x1="42" x2="263" y1="244.7656" y2="244.7656"/><text fill="#000000" font-family="sans-serif" font-size="13" lengthAdjust="spacing" textLength="95" x="49" y="239.6997">S&#248;k p&#229; Pasient</text><polygon fill="#181818" points="53,269.8984,43,273.8984,53,277.8984,49,273.8984" style="stroke:#181818;stroke-width:1.0;"/><line style="stroke:#181818;stroke-width:1.0;" x1="47" x2="268" y1="273.8984" y2="273.8984"/><text fill="#000000" font-family="sans-serif" font-size="13" lengthAdjust="spacing" textLength="106" x="59" y="268.8325">Return&#233;r Pasient</text><line style="stroke:#000000;stroke-width:1.0;stroke-dasharray:2.0,2.0;" x1="10" x2="308.5" y1="282.8984" y2="282.8984"/><text fill="#000000" font-family="sans-serif" font-size="11" font-weight="bold" lengthAdjust="spacing" textLength="67" x="15" y="293.1089">[Hvis ikke]</text><polygon fill="#181818" points="257,313.8359,267,317.8359,257,321.8359,261,317.8359" style="stroke:#181818;stroke-width:1.0;"/><line style="stroke:#181818;stroke-width:1.0;" x1="42" x2="263" y1="317.8359" y2="317.8359"/><text fill="#000000" font-family="sans-serif" font-size="13" lengthAdjust="spacing" textLength="82" x="49" y="312.77">Skriv Pasient</text><polygon fill="#181818" points="257,349.9688,267,353.9688,257,357.9688,261,353.9688" style="stroke:#181818;stroke-width:1.0;"/><line style="stroke:#181818;stroke-width:1.0;" x1="42" x2="263" y1="353.9688" y2="353.9688"/><text fill="#000000" font-family="sans-serif" font-size="13" lengthAdjust="spacing" textLength="203" x="49" y="348.9028">Skriv Legemiddeladministrasjon</text><polygon fill="#181818" points="504,379.1016,514,383.1016,504,387.1016,508,383.1016" style="stroke:#181818;stroke-width:1.0;"/><line style="stroke:#181818;stroke-width:1.0;" x1="274" x2="510" y1="383.1016" y2="383.1016"/><text fill="#000000" font-family="sans-serif" font-size="13" lengthAdjust="spacing" textLength="208" x="281" y="378.0356">Lagre Legemiddeladministrasjon</text><text fill="#888888" font-family="sans-serif" font-size="10" lengthAdjust="spacing" textLength="75" x="463" y="14.2822">Innrapportering</text><text fill="#888888" font-family="sans-serif" font-size="10" lengthAdjust="spacing" textLength="140" x="199" y="486.6807">Folkehelseinstituttet / Vali AS</text><!--SRC=[TP2nJiCm48PtFyKf4mo8dG4f0uYgHLIDn7x5b-ImOqVs9QWFnC0RiFV5k9G2GONDv__xVzr_sN7eCM47LOisld1ee4QVoPYMq5A2HGW9-puceQIg4HPFKDouJ5rF7lhzAr1m-ghzJWfJnwWat4Rlg2LDuf3LCuYGm2KyecSeAsFmIMA2fMSAOhPn21RJ3ihrmbWKt68cWDNzvW3oY487xPE7Y-jfWYie1z6PCoKoquyAHsIk2PmzBCyroWiK6seuIr87h35FR74IM-tVtQ7PaJZ9tf0CAUpVqZSnLOMxaJEmStIQw1AFFt2mis9JpR_v5JNKiRNaqNOSfhqnFyVmjOywbLrXesN-PItzEk5iLFi7]--></g></svg>