<svg xmlns="http://www.w3.org/2000/svg" xmlns:xlink="http://www.w3.org/1999/xlink" contentStyleType="text/css" data-diagram-type="CLASS" height="1089px" preserveAspectRatio="none" style="width:1568px;height:1089px;background:#FFFFFF;" version="1.1" viewBox="0 0 1568 1089" width="1568px" zoomAndPan="magnify"><defs/><g><!--class Diagnose--><a href="https://hl7norway.github.io/LMDI/currentbuild/StructureDefinition-lmdi-condition.html" target="_top" title="https://hl7norway.github.io/LMDI/currentbuild/StructureDefinition-lmdi-condition.html" xlink:actuate="onRequest" xlink:href="https://hl7norway.github.io/LMDI/currentbuild/StructureDefinition-lmdi-condition.html" xlink:show="new" xlink:title="https://hl7norway.github.io/LMDI/currentbuild/StructureDefinition-lmdi-condition.html" xlink:type="simple"><g class="entity" data-entity="Diagnose" data-source-line="8" data-uid="ent0002" id="entity_Diagnose"><rect fill="#FFFFFF" height="129.75" rx="2.5" ry="2.5" style="stroke:#000000;stroke-width:0.5;" width="314.4834" x="1114.38" y="689.25"/><ellipse cx="1233.3981" cy="709.3828" fill="#ADD1B2" rx="11" ry="11" style="stroke:#181818;stroke-width:1;"/><path d="M1236.3668,715.0234 Q1235.7887,715.3203 1235.1481,715.4609 Q1234.5074,715.6172 1233.8043,715.6172 Q1231.3043,715.6172 1229.9762,713.9766 Q1228.6637,712.3203 1228.6637,709.1953 Q1228.6637,706.0703 1229.9762,704.4141 Q1231.3043,702.7578 1233.8043,702.7578 Q1234.5074,702.7578 1235.1481,702.9141 Q1235.8043,703.0703 1236.3668,703.3672 L1236.3668,706.0859 Q1235.7418,705.5078 1235.1481,705.2422 Q1234.5543,704.9609 1233.9293,704.9609 Q1232.5856,704.9609 1231.8981,706.0391 Q1231.2106,707.1016 1231.2106,709.1953 Q1231.2106,711.2891 1231.8981,712.3672 Q1232.5856,713.4297 1233.9293,713.4297 Q1234.5543,713.4297 1235.1481,713.1641 Q1235.7418,712.8828 1236.3668,712.3047 L1236.3668,715.0234 Z " fill="#000000"/><text fill="#000000" font-family="sans-serif" font-size="12" font-style="italic" lengthAdjust="spacing" textLength="71.9473" x="1251.8981" y="705.3887">&#171;Condition&#187;</text><text fill="#000000" font-family="sans-serif" font-size="14" lengthAdjust="spacing" textLength="65.4814" x="1255.131" y="721.2139">Diagnose</text><line style="stroke:#000000;stroke-width:0.5;" x1="1115.38" x2="1427.8634" y1="729.5156" y2="729.5156"/><text fill="#000000" font-family="sans-serif" font-size="14" lengthAdjust="spacing" textLength="272.4326" x="1120.38" y="746.5107">clinicalStatus : CodeableConcept [0..1]</text><text fill="#000000" font-family="sans-serif" font-size="14" lengthAdjust="spacing" textLength="213.1787" x="1120.38" y="762.8076">code : CodeableConcept [1..1]</text><text fill="#000000" font-family="sans-serif" font-size="14" lengthAdjust="spacing" textLength="179.6963" x="1120.38" y="779.1045">identifier : Identifier [0..*]</text><text fill="#000000" font-family="sans-serif" font-size="14" lengthAdjust="spacing" textLength="219.5498" x="1120.38" y="795.4014">stage : BackboneElement [0..*]</text><text fill="#000000" font-family="sans-serif" font-size="14" lengthAdjust="spacing" textLength="302.4834" x="1120.38" y="811.6982">verificationStatus : CodeableConcept [0..1]</text></g></a><!--class Episode--><a href="https://hl7norway.github.io/LMDI/currentbuild/StructureDefinition-lmdi-encounter.html" target="_top" title="https://hl7norway.github.io/LMDI/currentbuild/StructureDefinition-lmdi-encounter.html" xlink:actuate="onRequest" xlink:href="https://hl7norway.github.io/LMDI/currentbuild/StructureDefinition-lmdi-encounter.html" xlink:show="new" xlink:title="https://hl7norway.github.io/LMDI/currentbuild/StructureDefinition-lmdi-encounter.html" xlink:type="simple"><g class="entity" data-entity="Episode" data-source-line="15" data-uid="ent0003" id="entity_Episode"><rect fill="#FFFFFF" height="97.1563" rx="2.5" ry="2.5" style="stroke:#000000;stroke-width:0.5;" width="191.6963" x="110.78" y="705.55"/><ellipse cx="166.3567" cy="725.6828" fill="#ADD1B2" rx="11" ry="11" style="stroke:#181818;stroke-width:1;"/><path d="M169.3254,731.3234 Q168.7473,731.6203 168.1067,731.7609 Q167.466,731.9172 166.7629,731.9172 Q164.2629,731.9172 162.9348,730.2766 Q161.6223,728.6203 161.6223,725.4953 Q161.6223,722.3703 162.9348,720.7141 Q164.2629,719.0578 166.7629,719.0578 Q167.466,719.0578 168.1067,719.2141 Q168.7629,719.3703 169.3254,719.6672 L169.3254,722.3859 Q168.7004,721.8078 168.1067,721.5422 Q167.5129,721.2609 166.8879,721.2609 Q165.5442,721.2609 164.8567,722.3391 Q164.1692,723.4016 164.1692,725.4953 Q164.1692,727.5891 164.8567,728.6672 Q165.5442,729.7297 166.8879,729.7297 Q167.5129,729.7297 168.1067,729.4641 Q168.7004,729.1828 169.3254,728.6047 L169.3254,731.3234 Z " fill="#000000"/><text fill="#000000" font-family="sans-serif" font-size="12" font-style="italic" lengthAdjust="spacing" textLength="76.043" x="184.8567" y="721.6887">&#171;Encounter&#187;</text><text fill="#000000" font-family="sans-serif" font-size="14" lengthAdjust="spacing" textLength="54.9814" x="195.3874" y="737.5139">Episode</text><line style="stroke:#000000;stroke-width:0.5;" x1="111.78" x2="301.4763" y1="745.8156" y2="745.8156"/><text fill="#000000" font-family="sans-serif" font-size="14" lengthAdjust="spacing" textLength="139.3369" x="116.78" y="762.8107">class : Coding [1..1]</text><text fill="#000000" font-family="sans-serif" font-size="14" lengthAdjust="spacing" textLength="179.6963" x="116.78" y="779.1076">identifier : Identifier [0..*]</text><text fill="#000000" font-family="sans-serif" font-size="14" lengthAdjust="spacing" textLength="132.4873" x="116.78" y="795.4045">status : code [1..1]</text></g></a><!--class Legemiddel--><a href="https://hl7norway.github.io/LMDI/currentbuild/StructureDefinition-lmdi-medication.html" target="_top" title="https://hl7norway.github.io/LMDI/currentbuild/StructureDefinition-lmdi-medication.html" xlink:actuate="onRequest" xlink:href="https://hl7norway.github.io/LMDI/currentbuild/StructureDefinition-lmdi-medication.html" xlink:show="new" xlink:title="https://hl7norway.github.io/LMDI/currentbuild/StructureDefinition-lmdi-medication.html" xlink:type="simple"><g class="entity" data-entity="Legemiddel" data-source-line="20" data-uid="ent0004" id="entity_Legemiddel"><rect fill="#FFFFFF" height="162.3438" rx="2.5" ry="2.5" style="stroke:#000000;stroke-width:0.5;" width="264.458" x="337.39" y="672.95"/><ellipse cx="424.5106" cy="693.0828" fill="#ADD1B2" rx="11" ry="11" style="stroke:#181818;stroke-width:1;"/><path d="M427.4794,698.7234 Q426.9012,699.0203 426.2606,699.1609 Q425.62,699.3172 424.9169,699.3172 Q422.4169,699.3172 421.0887,697.6766 Q419.7762,696.0203 419.7762,692.8953 Q419.7762,689.7703 421.0887,688.1141 Q422.4169,686.4578 424.9169,686.4578 Q425.62,686.4578 426.2606,686.6141 Q426.9169,686.7703 427.4794,687.0672 L427.4794,689.7859 Q426.8544,689.2078 426.2606,688.9422 Q425.6669,688.6609 425.0419,688.6609 Q423.6981,688.6609 423.0106,689.7391 Q422.3231,690.8016 422.3231,692.8953 Q422.3231,694.9891 423.0106,696.0672 Q423.6981,697.1297 425.0419,697.1297 Q425.6669,697.1297 426.2606,696.8641 Q426.8544,696.5828 427.4794,696.0047 L427.4794,698.7234 Z " fill="#000000"/><text fill="#000000" font-family="sans-serif" font-size="12" font-style="italic" lengthAdjust="spacing" textLength="80.3086" x="445.7147" y="689.0887">&#171;Medication&#187;</text><text fill="#000000" font-family="sans-serif" font-size="14" lengthAdjust="spacing" textLength="81.7168" x="445.0106" y="704.9139">Legemiddel</text><line style="stroke:#000000;stroke-width:0.5;" x1="338.39" x2="600.848" y1="713.2156" y2="713.2156"/><text fill="#000000" font-family="sans-serif" font-size="14" lengthAdjust="spacing" textLength="145.9746" x="343.39" y="730.2107">amount : Ratio [0..1]</text><text fill="#000000" font-family="sans-serif" font-size="14" lengthAdjust="spacing" textLength="222.1201" x="343.39" y="746.5076">batch : BackboneElement [0..1]</text><text fill="#000000" font-family="sans-serif" font-size="14" lengthAdjust="spacing" textLength="213.1787" x="343.39" y="762.8045">code : CodeableConcept [1..1]</text><text fill="#000000" font-family="sans-serif" font-size="14" lengthAdjust="spacing" textLength="212.3037" x="343.39" y="779.1014">form : CodeableConcept [0..1]</text><text fill="#000000" font-family="sans-serif" font-size="14" lengthAdjust="spacing" textLength="179.6963" x="343.39" y="795.3982">identifier : Identifier [0..*]</text><text fill="#000000" font-family="sans-serif" font-size="14" lengthAdjust="spacing" textLength="252.458" x="343.39" y="811.6951">ingredient : BackboneElement [0..*]</text><text fill="#000000" font-family="sans-serif" font-size="14" lengthAdjust="spacing" textLength="132.4873" x="343.39" y="827.992">status : code [0..1]</text></g></a><!--class Legemiddeladministrering--><a href="https://hl7norway.github.io/LMDI/currentbuild/StructureDefinition-lmdi-medicationadministration.html" target="_top" title="https://hl7norway.github.io/LMDI/currentbuild/StructureDefinition-lmdi-medicationadministration.html" xlink:actuate="onRequest" xlink:href="https://hl7norway.github.io/LMDI/currentbuild/StructureDefinition-lmdi-medicationadministration.html" xlink:show="new" xlink:title="https://hl7norway.github.io/LMDI/currentbuild/StructureDefinition-lmdi-medicationadministration.html" xlink:type="simple"><g class="entity" data-entity="Legemiddeladministrering" data-source-line="29" data-uid="ent0005" id="entity_Legemiddeladministrering"><rect fill="#FFFFFF" height="202.9375" rx="2.5" ry="2.5" style="stroke:#000000;stroke-width:0.5;" width="358.8213" x="684.21" y="7"/><ellipse cx="767.3555" cy="27.1328" fill="#ADD1B2" rx="11" ry="11" style="stroke:#181818;stroke-width:1;"/><path d="M770.3243,32.7734 Q769.7461,33.0703 769.1055,33.2109 Q768.4649,33.3672 767.7618,33.3672 Q765.2618,33.3672 763.9336,31.7266 Q762.6211,30.0703 762.6211,26.9453 Q762.6211,23.8203 763.9336,22.1641 Q765.2618,20.5078 767.7618,20.5078 Q768.4649,20.5078 769.1055,20.6641 Q769.7618,20.8203 770.3243,21.1172 L770.3243,23.8359 Q769.6993,23.2578 769.1055,22.9922 Q768.5118,22.7109 767.8868,22.7109 Q766.543,22.7109 765.8555,23.7891 Q765.168,24.8516 765.168,26.9453 Q765.168,29.0391 765.8555,30.1172 Q766.543,31.1797 767.8868,31.1797 Q768.5118,31.1797 769.1055,30.9141 Q769.6993,30.6328 770.3243,30.0547 L770.3243,32.7734 Z " fill="#000000"/><text fill="#000000" font-family="sans-serif" font-size="12" font-style="italic" lengthAdjust="spacing" textLength="168.3281" x="795.7066" y="23.1387">&#171;MedicationAdministration&#187;</text><text fill="#000000" font-family="sans-serif" font-size="14" lengthAdjust="spacing" textLength="184.0303" x="787.8555" y="38.9639">Legemiddeladministrering</text><line style="stroke:#000000;stroke-width:0.5;" x1="685.21" x2="1042.0313" y1="47.2656" y2="47.2656"/><text fill="#000000" font-family="sans-serif" font-size="14" lengthAdjust="spacing" textLength="241.2881" x="690.21" y="64.2607">category : CodeableConcept [0..1]</text><text fill="#000000" font-family="sans-serif" font-size="14" lengthAdjust="spacing" textLength="233.4199" x="690.21" y="80.5576">dosage : BackboneElement [0..1]</text><text fill="#000000" font-family="sans-serif" font-size="14" lengthAdjust="spacing" textLength="179.6963" x="690.21" y="96.8545">identifier : Identifier [0..*]</text><text fill="#000000" font-family="sans-serif" font-size="14" lengthAdjust="spacing" textLength="154.6699" x="690.21" y="113.1514">instantiates : uri [0..*]</text><text fill="#000000" font-family="sans-serif" font-size="14" lengthAdjust="spacing" textLength="261.0303" x="690.21" y="129.4482">reasonCode : CodeableConcept [0..*]</text><text fill="#000000" font-family="sans-serif" font-size="14" lengthAdjust="spacing" textLength="132.4873" x="690.21" y="145.7451">status : code [1..1]</text><text fill="#000000" font-family="sans-serif" font-size="14" lengthAdjust="spacing" textLength="272.1797" x="690.21" y="162.042">statusReason : CodeableConcept [0..*]</text><line style="stroke:#000000;stroke-width:0.5;" x1="685.21" x2="1042.0313" y1="169.3438" y2="169.3438"/><text fill="#000000" font-family="sans-serif" font-size="14" lengthAdjust="spacing" textLength="257.8789" x="690.21" y="186.3389">effective[x] (sliced) : dateTime [1..1]</text><text fill="#000000" font-family="sans-serif" font-size="14" lengthAdjust="spacing" textLength="346.8213" x="690.21" y="202.6357">effective[x] (effectiveDateTime) : dateTime [1..1]</text></g></a><!--class Legemiddelrekvirering--><a href="https://hl7norway.github.io/LMDI/currentbuild/StructureDefinition-lmdi-medicationrequest.html" target="_top" title="https://hl7norway.github.io/LMDI/currentbuild/StructureDefinition-lmdi-medicationrequest.html" xlink:actuate="onRequest" xlink:href="https://hl7norway.github.io/LMDI/currentbuild/StructureDefinition-lmdi-medicationrequest.html" xlink:show="new" xlink:title="https://hl7norway.github.io/LMDI/currentbuild/StructureDefinition-lmdi-medicationrequest.html" xlink:type="simple"><g class="entity" data-entity="Legemiddelrekvirering" data-source-line="40" data-uid="ent0006" id="entity_Legemiddelrekvirering"><rect fill="#FFFFFF" height="309.0156" rx="2.5" ry="2.5" style="stroke:#000000;stroke-width:0.5;" width="346.0449" x="690.6" y="286.94"/><ellipse cx="780.3012" cy="307.0728" fill="#ADD1B2" rx="11" ry="11" style="stroke:#181818;stroke-width:1;"/><path d="M783.2699,312.7134 Q782.6918,313.0103 782.0512,313.1509 Q781.4105,313.3072 780.7074,313.3072 Q778.2074,313.3072 776.8793,311.6666 Q775.5668,310.0103 775.5668,306.8853 Q775.5668,303.7603 776.8793,302.1041 Q778.2074,300.4478 780.7074,300.4478 Q781.4105,300.4478 782.0512,300.6041 Q782.7074,300.7603 783.2699,301.0572 L783.2699,303.7759 Q782.6449,303.1978 782.0512,302.9322 Q781.4574,302.6509 780.8324,302.6509 Q779.4887,302.6509 778.8012,303.7291 Q778.1137,304.7916 778.1137,306.8853 Q778.1137,308.9791 778.8012,310.0572 Q779.4887,311.1197 780.8324,311.1197 Q781.4574,311.1197 782.0512,310.8541 Q782.6449,310.5728 783.2699,309.9947 L783.2699,312.7134 Z " fill="#000000"/><text fill="#000000" font-family="sans-serif" font-size="12" font-style="italic" lengthAdjust="spacing" textLength="129.5918" x="815.0766" y="303.0787">&#171;MedicationRequest&#187;</text><text fill="#000000" font-family="sans-serif" font-size="14" lengthAdjust="spacing" textLength="158.1426" x="800.8012" y="318.9039">Legemiddelrekvirering</text><line style="stroke:#000000;stroke-width:0.5;" x1="691.6" x2="1035.6449" y1="327.2056" y2="327.2056"/><text fill="#000000" font-family="sans-serif" font-size="14" lengthAdjust="spacing" textLength="205.4951" x="696.6" y="344.2007">authoredOn : dateTime [0..1]</text><text fill="#000000" font-family="sans-serif" font-size="14" lengthAdjust="spacing" textLength="239.3809" x="696.6" y="360.4976">category : CodeableConcept [0..*]</text><text fill="#000000" font-family="sans-serif" font-size="14" lengthAdjust="spacing" textLength="334.0449" x="696.6" y="376.7945">courseOfTherapyType : CodeableConcept [0..1]</text><text fill="#000000" font-family="sans-serif" font-size="14" lengthAdjust="spacing" textLength="209.3574" x="696.6" y="393.0914">doNotPerform : boolean [0..1]</text><text fill="#000000" font-family="sans-serif" font-size="14" lengthAdjust="spacing" textLength="232.2715" x="696.6" y="409.3882">dosageInstruction : Dosage [0..*]</text><text fill="#000000" font-family="sans-serif" font-size="14" lengthAdjust="spacing" textLength="222.8105" x="696.6" y="425.6851">groupIdentifier : Identifier [0..1]</text><text fill="#000000" font-family="sans-serif" font-size="14" lengthAdjust="spacing" textLength="179.6963" x="696.6" y="441.982">identifier : Identifier [0..*]</text><text fill="#000000" font-family="sans-serif" font-size="14" lengthAdjust="spacing" textLength="271.5166" x="696.6" y="458.2789">instantiatesCanonical : canonical [0..*]</text><text fill="#000000" font-family="sans-serif" font-size="14" lengthAdjust="spacing" textLength="174.5625" x="696.6" y="474.5757">instantiatesUri : uri [0..*]</text><text fill="#000000" font-family="sans-serif" font-size="14" lengthAdjust="spacing" textLength="130.6963" x="696.6" y="490.8726">intent : code [1..1]</text><text fill="#000000" font-family="sans-serif" font-size="14" lengthAdjust="spacing" textLength="139.9863" x="696.6" y="507.1695">priority : code [0..1]</text><text fill="#000000" font-family="sans-serif" font-size="14" lengthAdjust="spacing" textLength="261.0303" x="696.6" y="523.4664">reasonCode : CodeableConcept [0..*]</text><text fill="#000000" font-family="sans-serif" font-size="14" lengthAdjust="spacing" textLength="191.4541" x="696.6" y="539.7632">reported[x] : boolean [0..1]</text><text fill="#000000" font-family="sans-serif" font-size="14" lengthAdjust="spacing" textLength="132.4873" x="696.6" y="556.0601">status : code [1..1]</text><text fill="#000000" font-family="sans-serif" font-size="14" lengthAdjust="spacing" textLength="274.0869" x="696.6" y="572.357">statusReason : CodeableConcept [0..1]</text><text fill="#000000" font-family="sans-serif" font-size="14" lengthAdjust="spacing" textLength="265.501" x="696.6" y="588.6539">substitution : BackboneElement [0..1]</text></g></a><!--class Organisasjon--><a href="https://hl7norway.github.io/LMDI/currentbuild/StructureDefinition-lmdi-organization.html" target="_top" title="https://hl7norway.github.io/LMDI/currentbuild/StructureDefinition-lmdi-organization.html" xlink:actuate="onRequest" xlink:href="https://hl7norway.github.io/LMDI/currentbuild/StructureDefinition-lmdi-organization.html" xlink:show="new" xlink:title="https://hl7norway.github.io/LMDI/currentbuild/StructureDefinition-lmdi-organization.html" xlink:type="simple"><g class="entity" data-entity="Organisasjon" data-source-line="58" data-uid="ent0007" id="entity_Organisasjon"><rect fill="#FFFFFF" height="170.3438" rx="2.5" ry="2.5" style="stroke:#000000;stroke-width:0.5;" width="249.248" x="7" y="912.3"/><ellipse cx="81.6245" cy="932.4328" fill="#ADD1B2" rx="11" ry="11" style="stroke:#181818;stroke-width:1;"/><path d="M84.5933,938.0734 Q84.0151,938.3703 83.3745,938.5109 Q82.7339,938.6672 82.0308,938.6672 Q79.5308,938.6672 78.2026,937.0266 Q76.8901,935.3703 76.8901,932.2453 Q76.8901,929.1203 78.2026,927.4641 Q79.5308,925.8078 82.0308,925.8078 Q82.7339,925.8078 83.3745,925.9641 Q84.0308,926.1203 84.5933,926.4172 L84.5933,929.1359 Q83.9683,928.5578 83.3745,928.2922 Q82.7808,928.0109 82.1558,928.0109 Q80.812,928.0109 80.1245,929.0891 Q79.437,930.1516 79.437,932.2453 Q79.437,934.3391 80.1245,935.4172 Q80.812,936.4797 82.1558,936.4797 Q82.7808,936.4797 83.3745,936.2141 Q83.9683,935.9328 84.5933,935.3547 L84.5933,938.0734 Z " fill="#000000"/><text fill="#000000" font-family="sans-serif" font-size="12" font-style="italic" lengthAdjust="spacing" textLength="91.6113" x="102.0684" y="928.4387">&#171;Organization&#187;</text><text fill="#000000" font-family="sans-serif" font-size="14" lengthAdjust="spacing" textLength="91.499" x="102.1245" y="944.2639">Organisasjon</text><line style="stroke:#000000;stroke-width:0.5;" x1="8" x2="255.248" y1="952.5656" y2="952.5656"/><text fill="#000000" font-family="sans-serif" font-size="14" lengthAdjust="spacing" textLength="165.416" x="13" y="969.5607">address : Address [0..*]</text><text fill="#000000" font-family="sans-serif" font-size="14" lengthAdjust="spacing" textLength="126.2188" x="13" y="985.8576">alias : string [0..*]</text><text fill="#000000" font-family="sans-serif" font-size="14" lengthAdjust="spacing" textLength="135.5977" x="13" y="1002.1545">name : string [1..1]</text><text fill="#000000" font-family="sans-serif" font-size="14" lengthAdjust="spacing" textLength="208.7832" x="13" y="1018.4514">type : CodeableConcept [1..*]</text><line style="stroke:#000000;stroke-width:0.5;" x1="8" x2="255.248" y1="1025.7531" y2="1025.7531"/><text fill="#000000" font-family="sans-serif" font-size="14" lengthAdjust="spacing" textLength="237.248" x="13" y="1042.7482">identifier (sliced) : Identifier [0..1]</text><text fill="#000000" font-family="sans-serif" font-size="14" lengthAdjust="spacing" textLength="226.8232" x="13" y="1059.0451">identifier (ENH) : Identifier [0..1]</text><text fill="#000000" font-family="sans-serif" font-size="14" lengthAdjust="spacing" textLength="234.9648" x="13" y="1075.342">identifier (RESH) : Identifier [0..1]</text></g></a><!--class Pasient--><a href="https://hl7norway.github.io/LMDI/currentbuild/StructureDefinition-lmdi-patient.html" target="_top" title="https://hl7norway.github.io/LMDI/currentbuild/StructureDefinition-lmdi-patient.html" xlink:actuate="onRequest" xlink:href="https://hl7norway.github.io/LMDI/currentbuild/StructureDefinition-lmdi-patient.html" xlink:show="new" xlink:title="https://hl7norway.github.io/LMDI/currentbuild/StructureDefinition-lmdi-patient.html" xlink:type="simple"><g class="entity" data-entity="Pasient" data-source-line="67" data-uid="ent0008" id="entity_Pasient"><rect fill="#FFFFFF" height="154.0469" rx="2.5" ry="2.5" style="stroke:#000000;stroke-width:0.5;" width="249.248" x="1147" y="920.44"/><ellipse cx="1240.8711" cy="940.5728" fill="#ADD1B2" rx="11" ry="11" style="stroke:#181818;stroke-width:1;"/><path d="M1243.8398,946.2134 Q1243.2617,946.5103 1242.6211,946.6509 Q1241.9805,946.8072 1241.2773,946.8072 Q1238.7773,946.8072 1237.4492,945.1666 Q1236.1367,943.5103 1236.1367,940.3853 Q1236.1367,937.2603 1237.4492,935.6041 Q1238.7773,933.9478 1241.2773,933.9478 Q1241.9805,933.9478 1242.6211,934.1041 Q1243.2773,934.2603 1243.8398,934.5572 L1243.8398,937.2759 Q1243.2148,936.6978 1242.6211,936.4322 Q1242.0273,936.1509 1241.4023,936.1509 Q1240.0586,936.1509 1239.3711,937.2291 Q1238.6836,938.2916 1238.6836,940.3853 Q1238.6836,942.4791 1239.3711,943.5572 Q1240.0586,944.6197 1241.4023,944.6197 Q1242.0273,944.6197 1242.6211,944.3541 Q1243.2148,944.0728 1243.8398,943.4947 L1243.8398,946.2134 Z " fill="#000000"/><text fill="#000000" font-family="sans-serif" font-size="12" font-style="italic" lengthAdjust="spacing" textLength="57.0059" x="1259.3711" y="936.5787">&#171;Patient&#187;</text><text fill="#000000" font-family="sans-serif" font-size="14" lengthAdjust="spacing" textLength="51.1807" x="1262.2837" y="952.4039">Pasient</text><line style="stroke:#000000;stroke-width:0.5;" x1="1148" x2="1395.248" y1="960.7056" y2="960.7056"/><text fill="#000000" font-family="sans-serif" font-size="14" lengthAdjust="spacing" textLength="165.416" x="1153" y="977.7007">address : Address [0..*]</text><text fill="#000000" font-family="sans-serif" font-size="14" lengthAdjust="spacing" textLength="153.6309" x="1153" y="993.9976">birthDate : date [0..1]</text><text fill="#000000" font-family="sans-serif" font-size="14" lengthAdjust="spacing" textLength="139.0977" x="1153" y="1010.2945">gender : code [0..1]</text><line style="stroke:#000000;stroke-width:0.5;" x1="1148" x2="1395.248" y1="1017.5963" y2="1017.5963"/><text fill="#000000" font-family="sans-serif" font-size="14" lengthAdjust="spacing" textLength="237.248" x="1153" y="1034.5914">identifier (sliced) : Identifier [0..1]</text><text fill="#000000" font-family="sans-serif" font-size="14" lengthAdjust="spacing" textLength="225.2305" x="1153" y="1050.8882">identifier (FNR) : Identifier [0..1]</text><text fill="#000000" font-family="sans-serif" font-size="14" lengthAdjust="spacing" textLength="227.958" x="1153" y="1067.1851">identifier (DNR) : Identifier [0..1]</text></g></a><!--class Helsepersonell--><a href="https://hl7norway.github.io/LMDI/currentbuild/StructureDefinition-lmdi-practitioner.html" target="_top" title="https://hl7norway.github.io/LMDI/currentbuild/StructureDefinition-lmdi-practitioner.html" xlink:actuate="onRequest" xlink:href="https://hl7norway.github.io/LMDI/currentbuild/StructureDefinition-lmdi-practitioner.html" xlink:show="new" xlink:title="https://hl7norway.github.io/LMDI/currentbuild/StructureDefinition-lmdi-practitioner.html" xlink:type="simple"><g class="entity" data-entity="Helsepersonell" data-source-line="75" data-uid="ent0009" id="entity_Helsepersonell"><rect fill="#FFFFFF" height="80.8594" rx="2.5" ry="2.5" style="stroke:#000000;stroke-width:0.5;" width="193.6035" x="766.82" y="713.69"/><ellipse cx="808.0483" cy="733.8228" fill="#ADD1B2" rx="11" ry="11" style="stroke:#181818;stroke-width:1;"/><path d="M811.0171,739.4634 Q810.4389,739.7603 809.7983,739.9009 Q809.1577,740.0572 808.4546,740.0572 Q805.9546,740.0572 804.6264,738.4166 Q803.3139,736.7603 803.3139,733.6353 Q803.3139,730.5103 804.6264,728.8541 Q805.9546,727.1978 808.4546,727.1978 Q809.1577,727.1978 809.7983,727.3541 Q810.4546,727.5103 811.0171,727.8072 L811.0171,730.5259 Q810.3921,729.9478 809.7983,729.6822 Q809.2046,729.4009 808.5796,729.4009 Q807.2358,729.4009 806.5483,730.4791 Q805.8608,731.5416 805.8608,733.6353 Q805.8608,735.7291 806.5483,736.8072 Q807.2358,737.8697 808.5796,737.8697 Q809.2046,737.8697 809.7983,737.6041 Q810.3921,737.3228 811.0171,736.7447 L811.0171,739.4634 Z " fill="#000000"/><text fill="#000000" font-family="sans-serif" font-size="12" font-style="italic" lengthAdjust="spacing" textLength="84.1465" x="837.4628" y="729.8287">&#171;Practitioner&#187;</text><text fill="#000000" font-family="sans-serif" font-size="14" lengthAdjust="spacing" textLength="103.3184" x="827.8768" y="745.6539">Helsepersonell</text><line style="stroke:#000000;stroke-width:0.5;" x1="767.82" x2="959.4235" y1="753.9556" y2="753.9556"/><text fill="#000000" font-family="sans-serif" font-size="14" lengthAdjust="spacing" textLength="154.2324" x="772.82" y="770.9507">active : boolean [0..1]</text><text fill="#000000" font-family="sans-serif" font-size="14" lengthAdjust="spacing" textLength="181.6035" x="772.82" y="787.2476">identifier : Identifier [1..1]</text></g></a><!--class Substance--><a href="https://hl7.org/fhir/R4/substance.html" target="_top" title="https://hl7.org/fhir/R4/substance.html" xlink:actuate="onRequest" xlink:href="https://hl7.org/fhir/R4/substance.html" xlink:show="new" xlink:title="https://hl7.org/fhir/R4/substance.html" xlink:type="simple"><g class="entity" data-entity="Substance" data-source-line="79" data-uid="ent0010" id="entity_Substance"><rect fill="#FFFFFF" height="154.0781" rx="2.5" ry="2.5" style="stroke:#000000;stroke-width:0.5;" width="264.458" x="362.39" y="920.43"/><ellipse cx="453.7728" cy="936.43" fill="#ADD1B2" rx="11" ry="11" style="stroke:#181818;stroke-width:1;"/><path d="M456.7416,942.0706 Q456.1634,942.3675 455.5228,942.5081 Q454.8822,942.6644 454.1791,942.6644 Q451.6791,942.6644 450.3509,941.0238 Q449.0384,939.3675 449.0384,936.2425 Q449.0384,933.1175 450.3509,931.4613 Q451.6791,929.805 454.1791,929.805 Q454.8822,929.805 455.5228,929.9613 Q456.1791,930.1175 456.7416,930.4144 L456.7416,933.1331 Q456.1166,932.555 455.5228,932.2894 Q454.9291,932.0081 454.3041,932.0081 Q452.9603,932.0081 452.2728,933.0863 Q451.5853,934.1488 451.5853,936.2425 Q451.5853,938.3363 452.2728,939.4144 Q452.9603,940.4769 454.3041,940.4769 Q454.9291,940.4769 455.5228,940.2113 Q456.1166,939.93 456.7416,939.3519 L456.7416,942.0706 Z " fill="#000000"/><text fill="#000000" font-family="sans-serif" font-size="14" lengthAdjust="spacing" textLength="73.1924" x="474.2728" y="941.2767">Substance</text><line style="stroke:#000000;stroke-width:0.5;" x1="363.39" x2="625.848" y1="952.43" y2="952.43"/><text fill="#000000" font-family="sans-serif" font-size="14" lengthAdjust="spacing" textLength="239.3809" x="368.39" y="969.4251">category : CodeableConcept [0..*]</text><text fill="#000000" font-family="sans-serif" font-size="14" lengthAdjust="spacing" textLength="213.1787" x="368.39" y="985.722">code : CodeableConcept [1..1]</text><text fill="#000000" font-family="sans-serif" font-size="14" lengthAdjust="spacing" textLength="173.7354" x="368.39" y="1002.0189">description : string [0..1]</text><text fill="#000000" font-family="sans-serif" font-size="14" lengthAdjust="spacing" textLength="179.6963" x="368.39" y="1018.3157">identifier : Identifier [0..*]</text><text fill="#000000" font-family="sans-serif" font-size="14" lengthAdjust="spacing" textLength="252.458" x="368.39" y="1034.6126">ingredient : BackboneElement [0..*]</text><text fill="#000000" font-family="sans-serif" font-size="14" lengthAdjust="spacing" textLength="239.9961" x="368.39" y="1050.9095">instance : BackboneElement [0..*]</text><text fill="#000000" font-family="sans-serif" font-size="14" lengthAdjust="spacing" textLength="132.4873" x="368.39" y="1067.2064">status : code [0..1]</text></g></a><!--link Diagnose to Pasient--><g class="link" data-entity-1="Diagnose" data-entity-2="Pasient" data-source-line="89" data-uid="lnk11" id="link_Diagnose_Pasient"><path codeLine="89" d="M1271.62,819.48 C1271.62,850.48 1271.62,881.87 1271.62,914.29 " fill="none" id="Diagnose-to-Pasient" style="stroke:#000000;stroke-width:1;"/><polygon fill="#000000" points="1271.62,920.29,1275.62,911.29,1271.62,915.29,1267.62,911.29,1271.62,920.29" style="stroke:#000000;stroke-width:1;"/><text fill="#000000" font-family="sans-serif" font-size="13" lengthAdjust="spacing" textLength="47.1187" x="1272.62" y="878.3669">subject</text><text fill="#000000" font-family="sans-serif" font-size="13" lengthAdjust="spacing" textLength="24.8066" x="1246.4239" y="839.0669">1..1</text></g><!--link Episode to Organisasjon--><g class="link" data-entity-1="Episode" data-entity-2="Organisasjon" data-source-line="90" data-uid="lnk12" id="link_Episode_Organisasjon"><path codeLine="90" d="M191.72,803.09 C182.06,834.16 171.0001,869.7501 159.6701,906.2201 " fill="none" id="Episode-to-Organisasjon" style="stroke:#000000;stroke-width:1;"/><polygon fill="#000000" points="157.89,911.95,164.38,904.5419,159.3734,907.1751,156.7402,902.1685,157.89,911.95" style="stroke:#000000;stroke-width:1;"/><text fill="#000000" font-family="sans-serif" font-size="13" lengthAdjust="spacing" textLength="100.604" x="172.62" y="878.3669">serviceProvider</text><text fill="#000000" font-family="sans-serif" font-size="13" lengthAdjust="spacing" textLength="24.8066" x="164.1584" y="822.7529">0..1</text></g><!--link Legemiddel to Substance--><g class="link" data-entity-1="Legemiddel" data-entity-2="Substance" data-source-line="91" data-uid="lnk13" id="link_Legemiddel_Substance"><path codeLine="91" d="M477.95,835.49 C480.78,862.78 483.3002,887.2021 486.1002,914.1621 " fill="none" id="Legemiddel-to-Substance" style="stroke:#000000;stroke-width:1;"/><polygon fill="#000000" points="486.72,920.13,489.7689,910.7649,486.2035,915.1567,481.8117,911.5914,486.72,920.13" style="stroke:#000000;stroke-width:1;"/><text fill="#000000" font-family="sans-serif" font-size="13" lengthAdjust="spacing" textLength="100.147" x="483.62" y="878.3669">ingredient.item</text><text fill="#000000" font-family="sans-serif" font-size="13" lengthAdjust="spacing" textLength="23.0356" x="454.6693" y="855.4776">0..*</text></g><!--link Legemiddel to Legemiddel--><g class="link" data-entity-1="Legemiddel" data-entity-2="Legemiddel" data-source-line="92" data-uid="lnk14" id="link_Legemiddel_Legemiddel"><path codeLine="92" d="M602.1,733.56 C622.77,736.63 636.85,743.49 636.85,754.12 C636.85,764.76 628.7045,770.7257 608.0345,773.8057 " fill="none" id="Legemiddel-to-Legemiddel" style="stroke:#000000;stroke-width:1;"/><polygon fill="#000000" points="602.1,774.69,611.5912,777.3199,607.0454,773.9531,610.4122,769.4073,602.1,774.69" style="stroke:#000000;stroke-width:1;"/><text fill="#000000" font-family="sans-serif" font-size="13" lengthAdjust="spacing" textLength="100.147" x="642.85" y="758.6869">ingredient.item</text><text fill="#000000" font-family="sans-serif" font-size="13" lengthAdjust="spacing" textLength="23.0356" x="609.9749" y="729.0959">0..*</text></g><!--link Legemiddeladministrering to Legemiddel--><g class="link" data-entity-1="Legemiddeladministrering" data-entity-2="Legemiddel" data-source-line="93" data-uid="lnk15" id="link_Legemiddeladministrering_Legemiddel"><path codeLine="93" d="M683.84,204.12 C651.84,227.61 621.47,255.29 598.62,286.94 C514.2,403.87 485.5969,567.7708 475.5169,666.9108 " fill="none" id="Legemiddeladministrering-to-Legemiddel" style="stroke:#000000;stroke-width:1;"/><polygon fill="#000000" points="474.91,672.88,479.7999,664.3308,475.4158,667.9056,471.8409,663.5216,474.91,672.88" style="stroke:#000000;stroke-width:1;"/><text fill="#000000" font-family="sans-serif" font-size="13" lengthAdjust="spacing" textLength="72.541" x="599.62" y="446.0069">medication</text><text fill="#000000" font-family="sans-serif" font-size="13" lengthAdjust="spacing" textLength="24.8066" x="651.1682" y="205.1843">1..1</text></g><!--link Legemiddeladministrering to Pasient--><g class="link" data-entity-1="Legemiddeladministrering" data-entity-2="Pasient" data-source-line="94" data-uid="lnk16" id="link_Legemiddeladministrering_Pasient"><path codeLine="94" d="M1043.22,121.21 C1162.17,138.97 1311.62,182.32 1397.62,286.94 C1553.02,475.95 1544.89,611.21 1446.62,835.3 C1432.44,867.64 1412.6249,892.2869 1386.6449,916.1969 " fill="none" id="Legemiddeladministrering-to-Pasient" style="stroke:#000000;stroke-width:1;"/><polygon fill="#000000" points="1382.23,920.26,1391.5611,917.1086,1385.9091,916.8741,1386.1436,911.2221,1382.23,920.26" style="stroke:#000000;stroke-width:1;"/><text fill="#000000" font-family="sans-serif" font-size="13" lengthAdjust="spacing" textLength="47.1187" x="1513.62" y="639.0169">subject</text><text fill="#000000" font-family="sans-serif" font-size="13" lengthAdjust="spacing" textLength="24.8066" x="1051.3201" y="118.5008">1..1</text></g><!--link Legemiddeladministrering to Episode--><g class="link" data-entity-1="Legemiddeladministrering" data-entity-2="Episode" data-source-line="95" data-uid="lnk17" id="link_Legemiddeladministrering_Episode"><path codeLine="95" d="M683.93,149.97 C597.89,176.9 498.44,219.99 427.62,286.94 C301.36,406.31 240.9653,606.6493 218.4253,699.5093 " fill="none" id="Legemiddeladministrering-to-Episode" style="stroke:#000000;stroke-width:1;"/><polygon fill="#000000" points="217.01,705.34,223.0201,697.5375,218.1894,700.4811,215.2458,695.6504,217.01,705.34" style="stroke:#000000;stroke-width:1;"/><text fill="#000000" font-family="sans-serif" font-size="13" lengthAdjust="spacing" textLength="49.2261" x="428.62" y="446.0069">context</text><text fill="#000000" font-family="sans-serif" font-size="13" lengthAdjust="spacing" textLength="24.8066" x="651.2623" y="148.5806">0..1</text></g><!--link Legemiddeladministrering to Diagnose--><g class="link" data-entity-1="Legemiddeladministrering" data-entity-2="Diagnose" data-source-line="96" data-uid="lnk18" id="link_Legemiddeladministrering_Diagnose"><path codeLine="96" d="M1043.24,170.55 C1098.76,197.88 1154.92,235.78 1191.62,286.94 C1278.63,408.2 1282.7377,586.2684 1277.6177,682.8384 " fill="none" id="Legemiddeladministrering-to-Diagnose" style="stroke:#000000;stroke-width:1;"/><polygon fill="#000000" points="1277.3,688.83,1281.7709,680.0544,1277.5647,683.837,1273.7821,679.6308,1277.3,688.83" style="stroke:#000000;stroke-width:1;"/><text fill="#000000" font-family="sans-serif" font-size="13" lengthAdjust="spacing" textLength="110.6079" x="1278.62" y="446.0069">reasonReference</text><text fill="#000000" font-family="sans-serif" font-size="13" lengthAdjust="spacing" textLength="23.0356" x="1051.3036" y="169.9223">0..*</text></g><!--link Legemiddeladministrering to Legemiddelrekvirering--><g class="link" data-entity-1="Legemiddeladministrering" data-entity-2="Legemiddelrekvirering" data-source-line="97" data-uid="lnk19" id="link_Legemiddeladministrering_Legemiddelrekvirering"><path codeLine="97" d="M863.62,210.12 C863.62,234.27 863.62,254.62 863.62,280.58 " fill="none" id="Legemiddeladministrering-to-Legemiddelrekvirering" style="stroke:#000000;stroke-width:1;"/><polygon fill="#000000" points="863.62,286.58,867.62,277.58,863.62,281.58,859.62,277.58,863.62,286.58" style="stroke:#000000;stroke-width:1;"/><text fill="#000000" font-family="sans-serif" font-size="13" lengthAdjust="spacing" textLength="49.7021" x="864.62" y="253.0069">request</text><text fill="#000000" font-family="sans-serif" font-size="13" lengthAdjust="spacing" textLength="24.8066" x="838.8046" y="229.8663">0..1</text></g><!--link Legemiddelrekvirering to Legemiddel--><g class="link" data-entity-1="Legemiddelrekvirering" data-entity-2="Legemiddel" data-source-line="98" data-uid="lnk20" id="link_Legemiddelrekvirering_Legemiddel"><path codeLine="98" d="M728.7,596.27 C711.26,612.87 693.04,628.84 674.62,642.95 C652.42,659.98 632.4531,672.8971 607.5131,686.9971 " fill="none" id="Legemiddelrekvirering-to-Legemiddel" style="stroke:#000000;stroke-width:1;"/><polygon fill="#000000" points="602.29,689.95,612.0932,689.0027,606.6426,687.4893,608.156,682.0386,602.29,689.95" style="stroke:#000000;stroke-width:1;"/><text fill="#000000" font-family="sans-serif" font-size="13" lengthAdjust="spacing" textLength="72.541" x="693.62" y="639.0169">medication</text><text fill="#000000" font-family="sans-serif" font-size="13" lengthAdjust="spacing" textLength="24.8066" x="697.603" y="616.2026">1..1</text></g><!--link Legemiddelrekvirering to Pasient--><g class="link" data-entity-1="Legemiddelrekvirering" data-entity-2="Pasient" data-source-line="99" data-uid="lnk21" id="link_Legemiddelrekvirering_Pasient"><path codeLine="99" d="M941.09,596.28 C953.53,621.78 966.1,648.03 977.62,672.95 C1010.61,744.27 998.39,774.06 1047.62,835.3 C1075.01,869.37 1106.4281,896.1843 1141.8381,921.0243 " fill="none" id="Legemiddelrekvirering-to-Pasient" style="stroke:#000000;stroke-width:1;"/><polygon fill="#000000" points="1146.75,924.47,1141.6792,916.0268,1142.6567,921.5986,1137.085,922.5761,1146.75,924.47" style="stroke:#000000;stroke-width:1;"/><text fill="#000000" font-family="sans-serif" font-size="13" lengthAdjust="spacing" textLength="47.1187" x="1048.62" y="758.6869">subject</text><text fill="#000000" font-family="sans-serif" font-size="13" lengthAdjust="spacing" textLength="24.8066" x="920.2806" y="616.2131">1..1</text></g><!--link Legemiddelrekvirering to Episode--><g class="link" data-entity-1="Legemiddelrekvirering" data-entity-2="Episode" data-source-line="100" data-uid="lnk22" id="link_Legemiddelrekvirering_Episode"><path codeLine="100" d="M690.41,555.04 C663.33,570.06 635.18,584.28 607.62,595.95 C485.62,647.63 439.55,616.62 319.62,672.95 C301.12,681.65 287.3351,689.9303 270.6451,701.7603 " fill="none" id="Legemiddelrekvirering-to-Episode" style="stroke:#000000;stroke-width:1;"/><polygon fill="#000000" points="265.75,705.23,275.4057,703.2889,269.8292,702.3386,270.7795,696.7622,265.75,705.23" style="stroke:#000000;stroke-width:1;"/><text fill="#000000" font-family="sans-serif" font-size="13" lengthAdjust="spacing" textLength="66.2568" x="505.62" y="639.0169">encounter</text><text fill="#000000" font-family="sans-serif" font-size="13" lengthAdjust="spacing" textLength="24.8066" x="658.0358" y="556.9172">0..1</text></g><!--link Legemiddelrekvirering to Helsepersonell--><g class="link" data-entity-1="Legemiddelrekvirering" data-entity-2="Helsepersonell" data-source-line="101" data-uid="lnk23" id="link_Legemiddelrekvirering_Helsepersonell"><path codeLine="101" d="M863.62,596.42 C863.62,639.75 863.62,677.23 863.62,707.35 " fill="none" id="Legemiddelrekvirering-to-Helsepersonell" style="stroke:#000000;stroke-width:1;"/><polygon fill="#000000" points="863.62,713.35,867.62,704.35,863.62,708.35,859.62,704.35,863.62,713.35" style="stroke:#000000;stroke-width:1;"/><text fill="#000000" font-family="sans-serif" font-size="13" lengthAdjust="spacing" textLength="63.0449" x="864.62" y="639.0169">requester</text><text fill="#000000" font-family="sans-serif" font-size="13" lengthAdjust="spacing" textLength="24.8066" x="839.0944" y="615.8519">1..1</text></g><!--link Legemiddelrekvirering to Diagnose--><g class="link" data-entity-1="Legemiddelrekvirering" data-entity-2="Diagnose" data-source-line="102" data-uid="lnk24" id="link_Legemiddelrekvirering_Diagnose"><path codeLine="102" d="M1036.8,579.49 C1064.38,600.9 1092.69,622.65 1119.62,642.95 C1139.67,658.06 1156.5463,670.5128 1177.1463,685.4828 " fill="none" id="Legemiddelrekvirering-to-Diagnose" style="stroke:#000000;stroke-width:1;"/><polygon fill="#000000" points="1182,689.01,1177.0709,680.4834,1177.9552,686.0707,1172.3679,686.955,1182,689.01" style="stroke:#000000;stroke-width:1;"/><text fill="#000000" font-family="sans-serif" font-size="13" lengthAdjust="spacing" textLength="110.6079" x="1120.62" y="639.0169">reasonReference</text><text fill="#000000" font-family="sans-serif" font-size="13" lengthAdjust="spacing" textLength="23.0356" x="1044.5918" y="582.0669">0..*</text></g><!--link Legemiddelrekvirering to Legemiddelrekvirering--><g class="link" data-entity-1="Legemiddelrekvirering" data-entity-2="Legemiddelrekvirering" data-source-line="103" data-uid="lnk25" id="link_Legemiddelrekvirering_Legemiddelrekvirering"><path codeLine="103" d="M1036.98,410.24 C1057.93,415.87 1071.65,426.27 1071.65,441.44 C1071.65,456.62 1063.7244,465.4628 1042.7744,471.0928 " fill="none" id="Legemiddelrekvirering-to-Legemiddelrekvirering" style="stroke:#000000;stroke-width:1;"/><polygon fill="#000000" points="1036.98,472.65,1046.7097,474.1772,1041.8087,471.3524,1044.6335,466.4513,1036.98,472.65" style="stroke:#000000;stroke-width:1;"/><text fill="#000000" font-family="sans-serif" font-size="13" lengthAdjust="spacing" textLength="107.7197" x="1077.65" y="446.0069">priorPrescription</text><text fill="#000000" font-family="sans-serif" font-size="13" lengthAdjust="spacing" textLength="24.8066" x="1044.8168" y="405.6767">0..1</text></g><!--link Organisasjon to Organisasjon--><g class="link" data-entity-1="Organisasjon" data-entity-2="Organisasjon" data-source-line="104" data-uid="lnk26" id="link_Organisasjon_Organisasjon"><path codeLine="104" d="M256.44,975.96 C277.05,979.01 291.25,986.18 291.25,997.47 C291.25,1008.76 282.9858,1015.0545 262.3758,1018.0945 " fill="none" id="Organisasjon-to-Organisasjon" style="stroke:#000000;stroke-width:1;"/><polygon fill="#000000" points="256.44,1018.97,265.9274,1021.6139,261.3865,1018.2404,264.76,1013.6995,256.44,1018.97" style="stroke:#000000;stroke-width:1;"/><text fill="#000000" font-family="sans-serif" font-size="13" lengthAdjust="spacing" textLength="41.4692" x="297.25" y="1002.0369">partOf</text><text fill="#000000" font-family="sans-serif" font-size="13" lengthAdjust="spacing" textLength="24.8066" x="264.373" y="971.3535">0..1</text></g><!--link Substance to Substance--><g class="link" data-entity-1="Substance" data-entity-2="Substance" data-source-line="105" data-uid="lnk27" id="link_Substance_Substance"><path codeLine="105" d="M627.1,976.22 C647.77,979.39 661.85,986.48 661.85,997.47 C661.85,1008.46 653.7002,1014.6277 633.0302,1017.8077 " fill="none" id="Substance-to-Substance" style="stroke:#000000;stroke-width:1;"/><polygon fill="#000000" points="627.1,1018.72,636.6036,1021.305,632.0419,1017.9597,635.3871,1013.398,627.1,1018.72" style="stroke:#000000;stroke-width:1;"/><text fill="#000000" font-family="sans-serif" font-size="13" lengthAdjust="spacing" textLength="137.2617" x="667.85" y="1002.0369">ingredient.substance</text><text fill="#000000" font-family="sans-serif" font-size="13" lengthAdjust="spacing" textLength="23.0356" x="634.9749" y="971.7183">0..*</text></g><!--SRC=[jLTjQ-D64FxkNo7ywHg8dK2X44mWPxjSu2unJae_X51MqjZQYxIhpgvovvRxxvtLwcMbMBAS-ln9bkRrcMTcPoCUWWT9gdTU0eaFg4RgXOkK8Kky86PAUV-EFFfzPC7B5cKcmhcC9Nf_Hbn3_kK6KNwpBp_696N59OQ0xjiVev6rj-1iAwG2RpQRIn5opQMullQUdYAjKtKrdKRnRqBYDxQRRBcECd_2vVJpbyNjDCWGGMW_ut4uVT2O1Jf3MC26YzpAUPo4_3meZKuYdSIrkx_yc8cNv-SYeI0chO353vhfJ7bNtbo6mFmOAAW0KkqzNKmcbyzMbZxjaxYi90X6eVc60vBSRVt763cp8agphR5YaFIbW6KC2Scv8g-0f1Om4_sXk7uKS2vJhanuizbI15GV3NXADA4qQj4ilRq1quIInyh5zdXWRAOvp8LkcTvds4B2mn1Yol0BX0KwfqmngQpQ71sNhJHPOh2WIDT6t6M8ptGGTHHtC8as4fD-8Wv0a_17IWZoE7kuraBzeWDr5YO4bj98rAJAkZMuAJ_zn8gmXezsVLh1jKd9D6mbxleX3QNgxij21ZOR23H_XQVlpzu75VC0mbz89IGFZpm1juXDsUhVeX3jKXjKMQePlITjKxSCkViLWIafvXqaEz1jzOTrRgRRn5k68BoyyZtqMCFV6IZzStY1rdYR46uixTxDT2IfC-v5em9EV_RJvQpiuWmLt6yU8q2MxXvtAHpYrvtKAy2YkNqfOs3YBGDlgRecRPwZlx2iT1oRmpUzxM79-uWqPqBcvw1XHFNS8Vm7KUuDyJYT3lcmQHCgHIwHwrrhnXn3LeHKeeRGzD9UxFuFcql9p5UQwwn0lcCCbBo_nosZaSFKLvAUpUpVVqu-0QLZrvAyuRZDxJ14o0_Wc-B9mP35d9bFHA_yR7OgLxF36Me7QVLXUVTfcE1w-T0ZALW2JbnrxNH7Krqs9j2AgVoKcyrM11CzdHB_r9gqq9UUZa7TvwWZC_IBQUCclWKHvktPRelt5kJtk_KmmKMNO0dg9uWLf7GDe0w8pSgrGaOpoG1pshqoTUnQb5kkss3df-Z-8T0vyfghv8DfT4PSQcOneLwRRYAEq_MlKrNAs9XgbUDsYxEXAry8Aa2U5hF7QT7JBtnsa0VmhhLmL5sZnYRuiNT-VbtrnPKt9jo-qg8p7fKNXF559TQON4OMy9MulKBvIkdXUEGit4RjpAhLs9DEdUI4xfr9buxpjb-fjJawIJLDr1l7CErza7JhrHYLi94UtLyrV3-aLoHSbOKKxQ6wXWrG_mKmpF7-tIctbczOhXLNuaZ4EbJxuMeexSMgkfqEyDMQBtMAFTf70zqHSYVA-OwqmdeAZ4UDTkbfevIXlj-CHtMV36YUQhwD_mC0]--></g></svg>