<svg xmlns="http://www.w3.org/2000/svg" xmlns:xlink="http://www.w3.org/1999/xlink" contentStyleType="text/css" height="487px" preserveAspectRatio="none" style="width:927px;height:487px;background:#FFFFFF;" version="1.1" viewBox="0 0 927 487" width="927px" zoomAndPan="magnify"><defs/><g><text fill="#888888" font-family="sans-serif" font-size="10" lengthAdjust="spacing" textLength="263" x="650.64" y="9.2822">Legemiddeldata fra institusjon til Legemiddelregisteret</text><text fill="#000000" font-family="sans-serif" font-size="14" font-weight="bold" lengthAdjust="spacing" textLength="359" x="277.32" y="35.6357">Informasjonsmodell: UML klassediagam - MVP</text><!--class Pasient--><g id="elem_Pasient"><rect codeLine="5" fill="#90EE90" height="56.2656" id="Pasient" rx="2.5" ry="2.5" style="stroke:#181818;stroke-width:0.5;" width="87" x="240.14" y="405.7275"/><ellipse cx="255.14" cy="425.8603" fill="#ADD1B2" rx="11" ry="11" style="stroke:#181818;stroke-width:1.0;"/><path d="M258.1088,431.5009 Q257.5306,431.7978 256.89,431.9384 Q256.2494,432.0947 255.5463,432.0947 Q253.0463,432.0947 251.7181,430.4541 Q250.4056,428.7978 250.4056,425.6728 Q250.4056,422.5478 251.7181,420.8916 Q253.0463,419.2353 255.5463,419.2353 Q256.2494,419.2353 256.89,419.3916 Q257.5463,419.5478 258.1088,419.8447 L258.1088,422.5634 Q257.4838,421.9853 256.89,421.7197 Q256.2963,421.4384 255.6713,421.4384 Q254.3275,421.4384 253.64,422.5166 Q252.9525,423.5791 252.9525,425.6728 Q252.9525,427.7666 253.64,428.8447 Q254.3275,429.9072 255.6713,429.9072 Q256.2963,429.9072 256.89,429.6416 Q257.4838,429.3603 258.1088,428.7822 L258.1088,431.5009 Z " fill="#000000"/><text fill="#000000" font-family="sans-serif" font-size="12" font-style="italic" lengthAdjust="spacing" textLength="59" x="267.14" y="421.8662">&#171;Patient&#187;</text><text fill="#000000" font-family="sans-serif" font-size="14" lengthAdjust="spacing" textLength="51" x="271.14" y="437.6914">Pasient</text><line style="stroke:#181818;stroke-width:0.5;" x1="241.14" x2="326.14" y1="445.9931" y2="445.9931"/><line style="stroke:#181818;stroke-width:0.5;" x1="241.14" x2="326.14" y1="453.9931" y2="453.9931"/></g><!--class Legemiddeladministrasjon--><g id="elem_Legemiddeladministrasjon"><rect codeLine="8" fill="#90EE90" height="56.2656" id="Legemiddeladministrasjon" rx="2.5" ry="2.5" style="stroke:#181818;stroke-width:0.5;" width="212" x="370.64" y="56.9375"/><ellipse cx="385.64" cy="77.0703" fill="#ADD1B2" rx="11" ry="11" style="stroke:#181818;stroke-width:1.0;"/><path d="M388.6088,82.7109 Q388.0306,83.0078 387.39,83.1484 Q386.7494,83.3047 386.0463,83.3047 Q383.5463,83.3047 382.2181,81.6641 Q380.9056,80.0078 380.9056,76.8828 Q380.9056,73.7578 382.2181,72.1016 Q383.5463,70.4453 386.0463,70.4453 Q386.7494,70.4453 387.39,70.6016 Q388.0463,70.7578 388.6088,71.0547 L388.6088,73.7734 Q387.9838,73.1953 387.39,72.9297 Q386.7963,72.6484 386.1713,72.6484 Q384.8275,72.6484 384.14,73.7266 Q383.4525,74.7891 383.4525,76.8828 Q383.4525,78.9766 384.14,80.0547 Q384.8275,81.1172 386.1713,81.1172 Q386.7963,81.1172 387.39,80.8516 Q387.9838,80.5703 388.6088,79.9922 L388.6088,82.7109 Z " fill="#000000"/><text fill="#000000" font-family="sans-serif" font-size="12" font-style="italic" lengthAdjust="spacing" textLength="172" x="403.64" y="73.0762">&#171;MedicationAdministration&#187;</text><text fill="#000000" font-family="sans-serif" font-size="14" lengthAdjust="spacing" textLength="180" x="399.64" y="88.9014">Legemiddeladministrasjon</text><line style="stroke:#181818;stroke-width:0.5;" x1="371.64" x2="581.64" y1="97.2031" y2="97.2031"/><line style="stroke:#181818;stroke-width:0.5;" x1="371.64" x2="581.64" y1="105.2031" y2="105.2031"/></g><!--class Legemiddel--><g id="elem_Legemiddel"><rect codeLine="18" fill="#90EE90" height="56.2656" id="Legemiddel" rx="2.5" ry="2.5" style="stroke:#181818;stroke-width:0.5;" width="112" x="424.64" y="289.4675"/><ellipse cx="439.64" cy="309.6003" fill="#ADD1B2" rx="11" ry="11" style="stroke:#181818;stroke-width:1.0;"/><path d="M442.6088,315.2409 Q442.0306,315.5378 441.39,315.6784 Q440.7494,315.8347 440.0463,315.8347 Q437.5463,315.8347 436.2181,314.1941 Q434.9056,312.5378 434.9056,309.4128 Q434.9056,306.2878 436.2181,304.6316 Q437.5463,302.9753 440.0463,302.9753 Q440.7494,302.9753 441.39,303.1316 Q442.0463,303.2878 442.6088,303.5847 L442.6088,306.3034 Q441.9838,305.7253 441.39,305.4597 Q440.7963,305.1784 440.1713,305.1784 Q438.8275,305.1784 438.14,306.2566 Q437.4525,307.3191 437.4525,309.4128 Q437.4525,311.5066 438.14,312.5847 Q438.8275,313.6472 440.1713,313.6472 Q440.7963,313.6472 441.39,313.3816 Q441.9838,313.1003 442.6088,312.5222 L442.6088,315.2409 Z " fill="#000000"/><text fill="#000000" font-family="sans-serif" font-size="12" font-style="italic" lengthAdjust="spacing" textLength="82" x="452.64" y="305.6062">&#171;Medication&#187;</text><text fill="#000000" font-family="sans-serif" font-size="14" lengthAdjust="spacing" textLength="80" x="453.64" y="321.4314">Legemiddel</text><line style="stroke:#181818;stroke-width:0.5;" x1="425.64" x2="535.64" y1="329.7331" y2="329.7331"/><line style="stroke:#181818;stroke-width:0.5;" x1="425.64" x2="535.64" y1="337.7331" y2="337.7331"/></g><!--class Helsepersonell--><g id="elem_Helsepersonell"><rect codeLine="21" fill="#F1F1F1" height="56.2656" id="Helsepersonell" rx="2.5" ry="2.5" style="stroke:#181818;stroke-width:0.5;" width="135" x="643.14" y="289.4675"/><ellipse cx="658.14" cy="309.6003" fill="#ADD1B2" rx="11" ry="11" style="stroke:#181818;stroke-width:1.0;"/><path d="M661.1088,315.2409 Q660.5306,315.5378 659.89,315.6784 Q659.2494,315.8347 658.5463,315.8347 Q656.0463,315.8347 654.7181,314.1941 Q653.4056,312.5378 653.4056,309.4128 Q653.4056,306.2878 654.7181,304.6316 Q656.0463,302.9753 658.5463,302.9753 Q659.2494,302.9753 659.89,303.1316 Q660.5463,303.2878 661.1088,303.5847 L661.1088,306.3034 Q660.4838,305.7253 659.89,305.4597 Q659.2963,305.1784 658.6713,305.1784 Q657.3275,305.1784 656.64,306.2566 Q655.9525,307.3191 655.9525,309.4128 Q655.9525,311.5066 656.64,312.5847 Q657.3275,313.6472 658.6713,313.6472 Q659.2963,313.6472 659.89,313.3816 Q660.4838,313.1003 661.1088,312.5222 L661.1088,315.2409 Z " fill="#000000"/><text fill="#000000" font-family="sans-serif" font-size="12" font-style="italic" lengthAdjust="spacing" textLength="87" x="680.14" y="305.6062">&#171;Practitioner&#187;</text><text fill="#000000" font-family="sans-serif" font-size="14" lengthAdjust="spacing" textLength="103" x="672.14" y="321.4314">Helsepersonell</text><line style="stroke:#181818;stroke-width:0.5;" x1="644.14" x2="777.14" y1="329.7331" y2="329.7331"/><line style="stroke:#181818;stroke-width:0.5;" x1="644.14" x2="777.14" y1="337.7331" y2="337.7331"/></g><!--class Rolle helsepersonell--><g id="elem_Rolle helsepersonell"><rect codeLine="49" fill="#F1F1F1" height="56.2656" id="Rolle helsepersonell" rx="2.5" ry="2.5" style="stroke:#181818;stroke-width:0.5;" width="172" x="748.64" y="173.1975"/><ellipse cx="763.64" cy="193.3303" fill="#ADD1B2" rx="11" ry="11" style="stroke:#181818;stroke-width:1.0;"/><path d="M766.6088,198.9709 Q766.0306,199.2678 765.39,199.4084 Q764.7494,199.5647 764.0463,199.5647 Q761.5463,199.5647 760.2181,197.9241 Q758.9056,196.2678 758.9056,193.1428 Q758.9056,190.0178 760.2181,188.3616 Q761.5463,186.7053 764.0463,186.7053 Q764.7494,186.7053 765.39,186.8616 Q766.0463,187.0178 766.6088,187.3147 L766.6088,190.0334 Q765.9838,189.4553 765.39,189.1897 Q764.7963,188.9084 764.1713,188.9084 Q762.8275,188.9084 762.14,189.9866 Q761.4525,191.0491 761.4525,193.1428 Q761.4525,195.2366 762.14,196.3147 Q762.8275,197.3772 764.1713,197.3772 Q764.7963,197.3772 765.39,197.1116 Q765.9838,196.8303 766.6088,196.2522 L766.6088,198.9709 Z " fill="#000000"/><text fill="#000000" font-family="sans-serif" font-size="12" font-style="italic" lengthAdjust="spacing" textLength="114" x="790.64" y="189.3362">&#171;PractitionerRole&#187;</text><text fill="#000000" font-family="sans-serif" font-size="14" lengthAdjust="spacing" textLength="140" x="777.64" y="205.1614">Rolle helsepersonell</text><line style="stroke:#181818;stroke-width:0.5;" x1="749.64" x2="919.64" y1="213.4631" y2="213.4631"/><line style="stroke:#181818;stroke-width:0.5;" x1="749.64" x2="919.64" y1="221.4631" y2="221.4631"/></g><!--class Rekvisisjon--><g id="elem_Rekvisisjon"><rect codeLine="40" fill="#F1F1F1" height="56.2656" id="Rekvisisjon" rx="2.5" ry="2.5" style="stroke:#181818;stroke-width:0.5;" width="162" x="462.64" y="173.1975"/><ellipse cx="477.64" cy="193.3303" fill="#ADD1B2" rx="11" ry="11" style="stroke:#181818;stroke-width:1.0;"/><path d="M480.6088,198.9709 Q480.0306,199.2678 479.39,199.4084 Q478.7494,199.5647 478.0463,199.5647 Q475.5463,199.5647 474.2181,197.9241 Q472.9056,196.2678 472.9056,193.1428 Q472.9056,190.0178 474.2181,188.3616 Q475.5463,186.7053 478.0463,186.7053 Q478.7494,186.7053 479.39,186.8616 Q480.0463,187.0178 480.6088,187.3147 L480.6088,190.0334 Q479.9838,189.4553 479.39,189.1897 Q478.7963,188.9084 478.1713,188.9084 Q476.8275,188.9084 476.14,189.9866 Q475.4525,191.0491 475.4525,193.1428 Q475.4525,195.2366 476.14,196.3147 Q476.8275,197.3772 478.1713,197.3772 Q478.7963,197.3772 479.39,197.1116 Q479.9838,196.8303 480.6088,196.2522 L480.6088,198.9709 Z " fill="#000000"/><text fill="#000000" font-family="sans-serif" font-size="12" font-style="italic" lengthAdjust="spacing" textLength="134" x="489.64" y="189.3362">&#171;MedicationRequest&#187;</text><text fill="#000000" font-family="sans-serif" font-size="14" lengthAdjust="spacing" textLength="77" x="518.14" y="205.1614">Rekvisisjon</text><line style="stroke:#181818;stroke-width:0.5;" x1="463.64" x2="623.64" y1="213.4631" y2="213.4631"/><line style="stroke:#181818;stroke-width:0.5;" x1="463.64" x2="623.64" y1="221.4631" y2="221.4631"/></g><!--class Institusjonsopphold--><g id="elem_Institusjonsopphold"><rect codeLine="28" fill="#90EE90" height="56.2656" id="Institusjonsopphold" rx="2.5" ry="2.5" style="stroke:#181818;stroke-width:0.5;" width="168" x="160.64" y="173.1975"/><ellipse cx="175.64" cy="193.3303" fill="#ADD1B2" rx="11" ry="11" style="stroke:#181818;stroke-width:1.0;"/><path d="M178.6088,198.9709 Q178.0306,199.2678 177.39,199.4084 Q176.7494,199.5647 176.0463,199.5647 Q173.5463,199.5647 172.2181,197.9241 Q170.9056,196.2678 170.9056,193.1428 Q170.9056,190.0178 172.2181,188.3616 Q173.5463,186.7053 176.0463,186.7053 Q176.7494,186.7053 177.39,186.8616 Q178.0463,187.0178 178.6088,187.3147 L178.6088,190.0334 Q177.9838,189.4553 177.39,189.1897 Q176.7963,188.9084 176.1713,188.9084 Q174.8275,188.9084 174.14,189.9866 Q173.4525,191.0491 173.4525,193.1428 Q173.4525,195.2366 174.14,196.3147 Q174.8275,197.3772 176.1713,197.3772 Q176.7963,197.3772 177.39,197.1116 Q177.9838,196.8303 178.6088,196.2522 L178.6088,198.9709 Z " fill="#000000"/><text fill="#000000" font-family="sans-serif" font-size="12" font-style="italic" lengthAdjust="spacing" textLength="106" x="204.64" y="189.3362">&#171;EpisodeOfCare&#187;</text><text fill="#000000" font-family="sans-serif" font-size="14" lengthAdjust="spacing" textLength="136" x="189.64" y="205.1614">Institusjonsopphold</text><line style="stroke:#181818;stroke-width:0.5;" x1="161.64" x2="327.64" y1="213.4631" y2="213.4631"/><line style="stroke:#181818;stroke-width:0.5;" x1="161.64" x2="327.64" y1="221.4631" y2="221.4631"/></g><!--class Organisasjon--><g id="elem_Organisasjon"><rect codeLine="23" fill="#90EE90" height="56.2656" id="Organisasjon" rx="2.5" ry="2.5" style="stroke:#181818;stroke-width:0.5;" width="122" x="37.64" y="289.4675"/><ellipse cx="52.64" cy="309.6003" fill="#ADD1B2" rx="11" ry="11" style="stroke:#181818;stroke-width:1.0;"/><path d="M55.6088,315.2409 Q55.0306,315.5378 54.39,315.6784 Q53.7494,315.8347 53.0463,315.8347 Q50.5463,315.8347 49.2181,314.1941 Q47.9056,312.5378 47.9056,309.4128 Q47.9056,306.2878 49.2181,304.6316 Q50.5463,302.9753 53.0463,302.9753 Q53.7494,302.9753 54.39,303.1316 Q55.0463,303.2878 55.6088,303.5847 L55.6088,306.3034 Q54.9838,305.7253 54.39,305.4597 Q53.7963,305.1784 53.1713,305.1784 Q51.8275,305.1784 51.14,306.2566 Q50.4525,307.3191 50.4525,309.4128 Q50.4525,311.5066 51.14,312.5847 Q51.8275,313.6472 53.1713,313.6472 Q53.7963,313.6472 54.39,313.3816 Q54.9838,313.1003 55.6088,312.5222 L55.6088,315.2409 Z " fill="#000000"/><text fill="#000000" font-family="sans-serif" font-size="12" font-style="italic" lengthAdjust="spacing" textLength="92" x="65.64" y="305.6062">&#171;Organization&#187;</text><text fill="#000000" font-family="sans-serif" font-size="14" lengthAdjust="spacing" textLength="90" x="66.64" y="321.4314">Organisasjon</text><line style="stroke:#181818;stroke-width:0.5;" x1="38.64" x2="158.64" y1="329.7331" y2="329.7331"/><line style="stroke:#181818;stroke-width:0.5;" x1="38.64" x2="158.64" y1="337.7331" y2="337.7331"/></g><!--class Diagnose--><g id="elem_Diagnose"><rect codeLine="35" fill="#F1F1F1" height="56.2656" id="Diagnose" rx="2.5" ry="2.5" style="stroke:#181818;stroke-width:0.5;" width="106" x="283.64" y="289.4675"/><ellipse cx="298.64" cy="309.6003" fill="#ADD1B2" rx="11" ry="11" style="stroke:#181818;stroke-width:1.0;"/><path d="M301.6088,315.2409 Q301.0306,315.5378 300.39,315.6784 Q299.7494,315.8347 299.0463,315.8347 Q296.5463,315.8347 295.2181,314.1941 Q293.9056,312.5378 293.9056,309.4128 Q293.9056,306.2878 295.2181,304.6316 Q296.5463,302.9753 299.0463,302.9753 Q299.7494,302.9753 300.39,303.1316 Q301.0463,303.2878 301.6088,303.5847 L301.6088,306.3034 Q300.9838,305.7253 300.39,305.4597 Q299.7963,305.1784 299.1713,305.1784 Q297.8275,305.1784 297.14,306.2566 Q296.4525,307.3191 296.4525,309.4128 Q296.4525,311.5066 297.14,312.5847 Q297.8275,313.6472 299.1713,313.6472 Q299.7963,313.6472 300.39,313.3816 Q300.9838,313.1003 301.6088,312.5222 L301.6088,315.2409 Z " fill="#000000"/><text fill="#000000" font-family="sans-serif" font-size="12" font-style="italic" lengthAdjust="spacing" textLength="78" x="310.64" y="305.6062">&#171;Condtition&#187;</text><text fill="#000000" font-family="sans-serif" font-size="14" lengthAdjust="spacing" textLength="66" x="316.64" y="321.4314">Diagnose</text><line style="stroke:#181818;stroke-width:0.5;" x1="284.64" x2="388.64" y1="329.7331" y2="329.7331"/><line style="stroke:#181818;stroke-width:0.5;" x1="284.64" x2="388.64" y1="337.7331" y2="337.7331"/></g><!--link Legemiddeladministrasjon to Legemiddel--><g id="link_Legemiddeladministrasjon_Legemiddel"><path codeLine="11" d="M464.08,113.6675 C457.13,130.4875 449.19,152.6275 445.64,173.1975 C441.38,197.8475 440.89,204.9175 445.64,229.4675 C449.66,250.2775 456.0751,266.984 463.9251,283.744 " fill="none" id="Legemiddeladministrasjon-to-Legemiddel" style="stroke:#181818;stroke-width:1.0;"/><polygon fill="#181818" points="466.47,289.1775,466.2749,279.3306,464.3492,284.6496,459.0302,282.7238,466.47,289.1775" style="stroke:#181818;stroke-width:1.0;"/></g><!--link Legemiddeladministrasjon to Pasient--><g id="link_Legemiddeladministrasjon_Pasient"><path codeLine="12" d="M370.38,94.5175 C254.51,110.4675 77.91,156.5175 20.64,289.4675 C10.74,312.4375 6,325.4575 20.64,345.7275 C70.9,415.3375 172.9456,429.9772 233.7456,432.6172 " fill="none" id="Legemiddeladministrasjon-to-Pasient" style="stroke:#181818;stroke-width:1.0;"/><polygon fill="#181818" points="239.74,432.8775,230.922,428.4908,234.7447,432.6606,230.575,436.4833,239.74,432.8775" style="stroke:#181818;stroke-width:1.0;"/></g><!--link Legemiddeladministrasjon to Helsepersonell--><g id="link_Legemiddeladministrasjon_Helsepersonell"><path codeLine="13" d="M570.12,113.6175 C602.44,127.1075 636.54,146.3875 660.64,173.1975 C690.24,206.1475 701.5883,251.6803 706.5383,283.1703 " fill="none" id="Legemiddeladministrasjon-to-Helsepersonell" style="stroke:#181818;stroke-width:1.0;"/><polygon fill="#181818" points="707.47,289.0975,710.0239,279.5855,706.6936,284.1582,702.1209,280.8278,707.47,289.0975" style="stroke:#181818;stroke-width:1.0;"/></g><!--link Legemiddeladministrasjon to Rolle helsepersonell--><g id="link_Legemiddeladministrasjon_Rolle helsepersonell"><path codeLine="14" d="M562.84,113.5875 C619.02,131.5075 686.3241,152.9932 742.5341,170.9332 " fill="none" id="Legemiddeladministrasjon-to-Rolle helsepersonell" style="stroke:#181818;stroke-width:1.0;"/><polygon fill="#181818" points="748.25,172.7575,740.8923,166.2104,743.4867,171.2373,738.4599,173.8317,748.25,172.7575" style="stroke:#181818;stroke-width:1.0;"/></g><!--link Legemiddeladministrasjon to Rekvisisjon--><g id="link_Legemiddeladministrasjon_Rekvisisjon"><path codeLine="15" d="M492.69,113.4375 C503.22,131.3975 513.9048,149.6218 524.4548,167.6118 " fill="none" id="Legemiddeladministrasjon-to-Rekvisisjon" style="stroke:#181818;stroke-width:1.0;"/><polygon fill="#181818" points="527.49,172.7875,526.3876,163.0005,524.9607,168.4744,519.4867,167.0475,527.49,172.7875" style="stroke:#181818;stroke-width:1.0;"/></g><!--link Legemiddeladministrasjon to Institusjonsopphold--><g id="link_Legemiddeladministrasjon_Institusjonsopphold"><path codeLine="16" d="M420.77,113.5875 C384.3,131.5475 342.2527,152.2568 305.8027,170.2068 " fill="none" id="Legemiddeladministrasjon-to-Institusjonsopphold" style="stroke:#181818;stroke-width:1.0;"/><polygon fill="#181818" points="300.42,172.8575,310.2612,172.4699,304.9056,170.6485,306.7269,165.2929,300.42,172.8575" style="stroke:#181818;stroke-width:1.0;"/></g><!--link Organisasjon to Organisasjon--><g id="link_Organisasjon_Organisasjon"><path codeLine="26" d="M160.04,295.8075 C179.38,296.1475 194.64,303.4075 194.64,317.5975 C194.64,331.7875 185.3791,338.9551 166.0391,339.2851 " fill="none" id="Organisasjon-to-Organisasjon" style="stroke:#181818;stroke-width:1.0;"/><polygon fill="#181818" points="160.04,339.3875,169.1069,343.2334,165.0393,339.3022,168.9704,335.2345,160.04,339.3875" style="stroke:#181818;stroke-width:1.0;"/></g><!--link Institusjonsopphold to Pasient--><g id="link_Institusjonsopphold_Pasient"><path codeLine="31" d="M248.53,229.8775 C252.69,258.7875 259.64,305.5375 266.64,345.7275 C270.13,365.7775 273.3554,382.4356 276.8054,399.5656 " fill="none" id="Institusjonsopphold-to-Pasient" style="stroke:#181818;stroke-width:1.0;"/><polygon fill="#181818" points="277.99,405.4475,280.1343,395.8349,277.0028,400.5459,272.2918,397.4144,277.99,405.4475" style="stroke:#181818;stroke-width:1.0;"/></g><!--link Institusjonsopphold to Organisasjon--><g id="link_Institusjonsopphold_Organisasjon"><path codeLine="32" d="M209.67,229.7075 C186.72,247.6575 161.5452,267.3699 138.5552,285.3599 " fill="none" id="Institusjonsopphold-to-Organisasjon" style="stroke:#181818;stroke-width:1.0;"/><polygon fill="#181818" points="133.83,289.0575,143.3829,286.6613,137.7677,285.9762,138.4528,280.361,133.83,289.0575" style="stroke:#181818;stroke-width:1.0;"/></g><!--link Institusjonsopphold to Diagnose--><g id="link_Institusjonsopphold_Diagnose"><path codeLine="33" d="M266.67,229.7075 C281.13,247.6575 296.2063,266.3947 310.6963,284.3847 " fill="none" id="Institusjonsopphold-to-Diagnose" style="stroke:#181818;stroke-width:1.0;"/><polygon fill="#181818" points="314.46,289.0575,311.9297,279.5392,311.3236,285.1635,305.6993,284.5575,314.46,289.0575" style="stroke:#181818;stroke-width:1.0;"/></g><!--link Diagnose to Pasient--><g id="link_Diagnose_Pasient"><path codeLine="38" d="M323.94,345.9675 C315.61,363.9275 307.2849,381.8846 298.9349,399.8846 " fill="none" id="Diagnose-to-Pasient" style="stroke:#181818;stroke-width:1.0;stroke-dasharray:7.0,7.0;"/><polygon fill="#181818" points="296.41,405.3275,303.8259,398.8464,298.5141,400.7918,296.5688,395.4799,296.41,405.3275" style="stroke:#181818;stroke-width:1.0;"/></g><!--link Rekvisisjon to Diagnose--><g id="link_Rekvisisjon_Diagnose"><path codeLine="43" d="M493.79,229.8475 C461.25,247.8075 424.1822,268.2668 391.6622,286.2268 " fill="none" id="Rekvisisjon-to-Diagnose" style="stroke:#181818;stroke-width:1.0;"/><polygon fill="#181818" points="386.41,289.1275,396.2222,288.278,390.7869,286.7103,392.3546,281.275,386.41,289.1275" style="stroke:#181818;stroke-width:1.0;"/></g><!--link Rekvisisjon to Legemiddel--><g id="link_Rekvisisjon_Legemiddel"><path codeLine="44" d="M528.55,229.7075 C518.65,247.6575 508.6372,265.8134 498.7172,283.8034 " fill="none" id="Rekvisisjon-to-Legemiddel" style="stroke:#181818;stroke-width:1.0;"/><polygon fill="#181818" points="495.82,289.0575,503.6686,283.1078,498.2344,284.679,496.6631,279.2448,495.82,289.0575" style="stroke:#181818;stroke-width:1.0;"/></g><!--link Rekvisisjon to Pasient--><g id="link_Rekvisisjon_Pasient"><path codeLine="45" d="M555.5,229.7775 C566.96,260.9775 579.27,311.9375 554.64,345.7275 C502.31,417.5175 395.8571,431.2719 333.5071,433.2019 " fill="none" id="Rekvisisjon-to-Pasient" style="stroke:#181818;stroke-width:1.0;"/><polygon fill="#181818" points="327.51,433.3875,336.6294,437.1071,332.5076,433.2328,336.3819,429.111,327.51,433.3875" style="stroke:#181818;stroke-width:1.0;"/></g><!--link Rekvisisjon to Helsepersonell--><g id="link_Rekvisisjon_Helsepersonell"><path codeLine="46" d="M583.64,229.7075 C609.88,247.6575 639.1383,267.6791 665.4283,285.6691 " fill="none" id="Rekvisisjon-to-Helsepersonell" style="stroke:#181818;stroke-width:1.0;"/><polygon fill="#181818" points="670.38,289.0575,665.2114,280.6738,666.2536,286.2339,660.6936,287.276,670.38,289.0575" style="stroke:#181818;stroke-width:1.0;"/></g><!--link Rekvisisjon to Rekvisisjon--><g id="link_Rekvisisjon_Rekvisisjon"><path codeLine="47" d="M624.94,179.8775 C644.83,181.4675 659.64,188.6175 659.64,201.3375 C659.64,214.0475 650.8109,220.7294 630.9209,222.3194 " fill="none" id="Rekvisisjon-to-Rekvisisjon" style="stroke:#181818;stroke-width:1.0;"/><polygon fill="#181818" points="624.94,222.7975,634.2301,226.0676,629.9241,222.3991,633.5926,218.0931,624.94,222.7975" style="stroke:#181818;stroke-width:1.0;"/></g><text fill="#888888" font-family="sans-serif" font-size="10" lengthAdjust="spacing" textLength="140" x="386.82" y="477.2754">Folkehelseinstituttet / Vali AS</text><!--SRC=[VLDDJyCm3BttLrZbl757qwHfW9YqQTCGkrkBsuQbIKao3Y3-Emvjrm_QtkhuFVlPpyq81Lc8jvHIBeKW9T0Z91P1QkUblxftey5B1Gt4KYgT9qi-ZXYY2EADJepDCO1TRXYZ7k1jjuMBGkT8I4mnXndiJeSuIepneUUpKHVAI3cgMdbF7kxXX4h2wZMEedDWmm6T9ErXiJYW3r_B9TmfcMO-jKGQlgEV6jfeH95BpIhjdoRcxbZ5cVb6hswf40qL6oqpcorRFM0QMEcU1hs4-GkopcXUsZGsFXh5oyuwb7YQSwJBftGonDF0JMEtCqMH6IN-RxMpnt4RkaC5uooUkJgJo38jG4latgR8GcgJol1hj7m77bIt7-hk0vDmwQT2EZxCVR96IqErXsXj6yVo7GbZe4V-0xHnL6kiOnQsDbgKkwas4zsIytdJlYAs_EoOSQIFApbVbsZ3EltxYSRRVwcwS_-zTxBzTFlYAj73Xzkx2yPGAVyN]--></g></svg>