<svg xmlns="http://www.w3.org/2000/svg" xmlns:xlink="http://www.w3.org/1999/xlink" contentStyleType="text/css" data-diagram-type="CLASS" height="487px" preserveAspectRatio="none" style="width:929px;height:487px;background:#FFFFFF;" version="1.1" viewBox="0 0 929 487" width="929px" zoomAndPan="magnify"><title>Informasjonsmodell: UML klassediagam - MVP</title><defs/><g><text fill="#888888" font-family="sans-serif" font-size="10" lengthAdjust="spacing" textLength="275.8008" x="639.249" y="9.2822">Legemiddeldata fra institusjon til Legemiddelregisteret</text><text fill="#000000" font-family="sans-serif" font-size="14" font-weight="bold" lengthAdjust="spacing" textLength="364.3896" x="275.3301" y="35.6357">Informasjonsmodell: UML klassediagam - MVP</text><!--class Pasient--><g id="elem_Pasient"><rect codeLine="5" fill="#90EE90" height="56.2656" id="Pasient" rx="2.5" ry="2.5" style="stroke:#181818;stroke-width:0.5;" width="85.0059" x="242.15" y="405.7275"/><ellipse cx="257.15" cy="425.8603" fill="#ADD1B2" rx="11" ry="11" style="stroke:#181818;stroke-width:1;"/><path d="M260.1188,431.5009 Q259.5406,431.7978 258.9,431.9384 Q258.2594,432.0947 257.5563,432.0947 Q255.0562,432.0947 253.7281,430.4541 Q252.4156,428.7978 252.4156,425.6728 Q252.4156,422.5478 253.7281,420.8916 Q255.0562,419.2353 257.5563,419.2353 Q258.2594,419.2353 258.9,419.3916 Q259.5563,419.5478 260.1188,419.8447 L260.1188,422.5634 Q259.4938,421.9853 258.9,421.7197 Q258.3063,421.4384 257.6813,421.4384 Q256.3375,421.4384 255.65,422.5166 Q254.9625,423.5791 254.9625,425.6728 Q254.9625,427.7666 255.65,428.8447 Q256.3375,429.9072 257.6813,429.9072 Q258.3063,429.9072 258.9,429.6416 Q259.4938,429.3603 260.1188,428.7822 L260.1188,431.5009 Z " fill="#000000"/><text fill="#000000" font-family="sans-serif" font-size="12" font-style="italic" lengthAdjust="spacing" textLength="57.0059" x="269.15" y="421.8662">&#171;Patient&#187;</text><text fill="#000000" font-family="sans-serif" font-size="14" lengthAdjust="spacing" textLength="51.1807" x="272.0626" y="437.6914">Pasient</text><line style="stroke:#181818;stroke-width:0.5;" x1="243.15" x2="326.1559" y1="445.9931" y2="445.9931"/><line style="stroke:#181818;stroke-width:0.5;" x1="243.15" x2="326.1559" y1="453.9931" y2="453.9931"/></g><!--class Legemiddeladministrering--><g id="elem_Legemiddeladministrering"><rect codeLine="8" fill="#90EE90" height="56.2656" id="Legemiddeladministrering" rx="2.5" ry="2.5" style="stroke:#181818;stroke-width:0.5;" width="216.0303" x="372.64" y="56.9375"/><ellipse cx="387.64" cy="77.0703" fill="#ADD1B2" rx="11" ry="11" style="stroke:#181818;stroke-width:1;"/><path d="M390.6088,82.7109 Q390.0306,83.0078 389.39,83.1484 Q388.7494,83.3047 388.0463,83.3047 Q385.5463,83.3047 384.2181,81.6641 Q382.9056,80.0078 382.9056,76.8828 Q382.9056,73.7578 384.2181,72.1016 Q385.5463,70.4453 388.0463,70.4453 Q388.7494,70.4453 389.39,70.6016 Q390.0463,70.7578 390.6088,71.0547 L390.6088,73.7734 Q389.9838,73.1953 389.39,72.9297 Q388.7963,72.6484 388.1713,72.6484 Q386.8275,72.6484 386.14,73.7266 Q385.4525,74.7891 385.4525,76.8828 Q385.4525,78.9766 386.14,80.0547 Q386.8275,81.1172 388.1713,81.1172 Q388.7963,81.1172 389.39,80.8516 Q389.9838,80.5703 390.6088,79.9922 L390.6088,82.7109 Z " fill="#000000"/><text fill="#000000" font-family="sans-serif" font-size="12" font-style="italic" lengthAdjust="spacing" textLength="168.3281" x="409.4911" y="73.0762">&#171;MedicationAdministration&#187;</text><text fill="#000000" font-family="sans-serif" font-size="14" lengthAdjust="spacing" textLength="184.0303" x="401.64" y="88.9014">Legemiddeladministrering</text><line style="stroke:#181818;stroke-width:0.5;" x1="373.64" x2="587.6703" y1="97.2031" y2="97.2031"/><line style="stroke:#181818;stroke-width:0.5;" x1="373.64" x2="587.6703" y1="105.2031" y2="105.2031"/></g><!--class Legemiddel--><g id="elem_Legemiddel"><rect codeLine="18" fill="#90EE90" height="56.2656" id="Legemiddel" rx="2.5" ry="2.5" style="stroke:#181818;stroke-width:0.5;" width="113.7168" x="424.79" y="289.4675"/><ellipse cx="439.79" cy="309.6003" fill="#ADD1B2" rx="11" ry="11" style="stroke:#181818;stroke-width:1;"/><path d="M442.7588,315.2409 Q442.1806,315.5378 441.54,315.6784 Q440.8994,315.8347 440.1963,315.8347 Q437.6963,315.8347 436.3681,314.1941 Q435.0556,312.5378 435.0556,309.4128 Q435.0556,306.2878 436.3681,304.6316 Q437.6963,302.9753 440.1963,302.9753 Q440.8994,302.9753 441.54,303.1316 Q442.1963,303.2878 442.7588,303.5847 L442.7588,306.3034 Q442.1338,305.7253 441.54,305.4597 Q440.9463,305.1784 440.3213,305.1784 Q438.9775,305.1784 438.29,306.2566 Q437.6025,307.3191 437.6025,309.4128 Q437.6025,311.5066 438.29,312.5847 Q438.9775,313.6472 440.3213,313.6472 Q440.9463,313.6472 441.54,313.3816 Q442.1338,313.1003 442.7588,312.5222 L442.7588,315.2409 Z " fill="#000000"/><text fill="#000000" font-family="sans-serif" font-size="12" font-style="italic" lengthAdjust="spacing" textLength="80.3086" x="454.4941" y="305.6062">&#171;Medication&#187;</text><text fill="#000000" font-family="sans-serif" font-size="14" lengthAdjust="spacing" textLength="81.7168" x="453.79" y="321.4314">Legemiddel</text><line style="stroke:#181818;stroke-width:0.5;" x1="425.79" x2="537.5068" y1="329.7331" y2="329.7331"/><line style="stroke:#181818;stroke-width:0.5;" x1="425.79" x2="537.5068" y1="337.7331" y2="337.7331"/></g><!--class Helsepersonell--><g id="elem_Helsepersonell"><rect codeLine="21" fill="#F1F1F1" height="56.2656" id="Helsepersonell" rx="2.5" ry="2.5" style="stroke:#181818;stroke-width:0.5;" width="135.3184" x="644.99" y="289.4675"/><ellipse cx="659.99" cy="309.6003" fill="#ADD1B2" rx="11" ry="11" style="stroke:#181818;stroke-width:1;"/><path d="M662.9588,315.2409 Q662.3806,315.5378 661.74,315.6784 Q661.0994,315.8347 660.3963,315.8347 Q657.8963,315.8347 656.5681,314.1941 Q655.2556,312.5378 655.2556,309.4128 Q655.2556,306.2878 656.5681,304.6316 Q657.8963,302.9753 660.3963,302.9753 Q661.0994,302.9753 661.74,303.1316 Q662.3963,303.2878 662.9588,303.5847 L662.9588,306.3034 Q662.3338,305.7253 661.74,305.4597 Q661.1463,305.1784 660.5213,305.1784 Q659.1775,305.1784 658.49,306.2566 Q657.8025,307.3191 657.8025,309.4128 Q657.8025,311.5066 658.49,312.5847 Q659.1775,313.6472 660.5213,313.6472 Q661.1463,313.6472 661.74,313.3816 Q662.3338,313.1003 662.9588,312.5222 L662.9588,315.2409 Z " fill="#000000"/><text fill="#000000" font-family="sans-serif" font-size="12" font-style="italic" lengthAdjust="spacing" textLength="84.1465" x="683.5759" y="305.6062">&#171;Practitioner&#187;</text><text fill="#000000" font-family="sans-serif" font-size="14" lengthAdjust="spacing" textLength="103.3184" x="673.99" y="321.4314">Helsepersonell</text><line style="stroke:#181818;stroke-width:0.5;" x1="645.99" x2="779.3084" y1="329.7331" y2="329.7331"/><line style="stroke:#181818;stroke-width:0.5;" x1="645.99" x2="779.3084" y1="337.7331" y2="337.7331"/></g><!--class Rolle helsepersonell--><g id="elem_Rolle helsepersonell"><rect codeLine="49" fill="#F1F1F1" height="56.2656" id="Rolle helsepersonell" rx="2.5" ry="2.5" style="stroke:#181818;stroke-width:0.5;" width="172.7998" x="749.25" y="173.1975"/><ellipse cx="764.25" cy="193.3303" fill="#ADD1B2" rx="11" ry="11" style="stroke:#181818;stroke-width:1;"/><path d="M767.2188,198.9709 Q766.6406,199.2678 766,199.4084 Q765.3594,199.5647 764.6563,199.5647 Q762.1563,199.5647 760.8281,197.9241 Q759.5156,196.2678 759.5156,193.1428 Q759.5156,190.0178 760.8281,188.3616 Q762.1563,186.7053 764.6563,186.7053 Q765.3594,186.7053 766,186.8616 Q766.6563,187.0178 767.2188,187.3147 L767.2188,190.0334 Q766.5938,189.4553 766,189.1897 Q765.4063,188.9084 764.7813,188.9084 Q763.4375,188.9084 762.75,189.9866 Q762.0625,191.0491 762.0625,193.1428 Q762.0625,195.2366 762.75,196.3147 Q763.4375,197.3772 764.7813,197.3772 Q765.4063,197.3772 766,197.1116 Q766.5938,196.8303 767.2188,196.2522 L767.2188,198.9709 Z " fill="#000000"/><text fill="#000000" font-family="sans-serif" font-size="12" font-style="italic" lengthAdjust="spacing" textLength="110.543" x="793.3784" y="189.3362">&#171;PractitionerRole&#187;</text><text fill="#000000" font-family="sans-serif" font-size="14" lengthAdjust="spacing" textLength="140.7998" x="778.25" y="205.1614">Rolle helsepersonell</text><line style="stroke:#181818;stroke-width:0.5;" x1="750.25" x2="921.0498" y1="213.4631" y2="213.4631"/><line style="stroke:#181818;stroke-width:0.5;" x1="750.25" x2="921.0498" y1="221.4631" y2="221.4631"/></g><!--class Rekvisisjon--><g id="elem_Rekvisisjon"><rect codeLine="40" fill="#F1F1F1" height="56.2656" id="Rekvisisjon" rx="2.5" ry="2.5" style="stroke:#181818;stroke-width:0.5;" width="157.5918" x="467.85" y="173.1975"/><ellipse cx="482.85" cy="193.3303" fill="#ADD1B2" rx="11" ry="11" style="stroke:#181818;stroke-width:1;"/><path d="M485.8188,198.9709 Q485.2406,199.2678 484.6,199.4084 Q483.9594,199.5647 483.2563,199.5647 Q480.7563,199.5647 479.4281,197.9241 Q478.1156,196.2678 478.1156,193.1428 Q478.1156,190.0178 479.4281,188.3616 Q480.7563,186.7053 483.2563,186.7053 Q483.9594,186.7053 484.6,186.8616 Q485.2563,187.0178 485.8188,187.3147 L485.8188,190.0334 Q485.1938,189.4553 484.6,189.1897 Q484.0063,188.9084 483.3813,188.9084 Q482.0375,188.9084 481.35,189.9866 Q480.6625,191.0491 480.6625,193.1428 Q480.6625,195.2366 481.35,196.3147 Q482.0375,197.3772 483.3813,197.3772 Q484.0063,197.3772 484.6,197.1116 Q485.1938,196.8303 485.8188,196.2522 L485.8188,198.9709 Z " fill="#000000"/><text fill="#000000" font-family="sans-serif" font-size="12" font-style="italic" lengthAdjust="spacing" textLength="129.5918" x="494.85" y="189.3362">&#171;MedicationRequest&#187;</text><text fill="#000000" font-family="sans-serif" font-size="14" lengthAdjust="spacing" textLength="78.4287" x="520.4315" y="205.1614">Rekvisisjon</text><line style="stroke:#181818;stroke-width:0.5;" x1="468.85" x2="624.4418" y1="213.4631" y2="213.4631"/><line style="stroke:#181818;stroke-width:0.5;" x1="468.85" x2="624.4418" y1="221.4631" y2="221.4631"/></g><!--class Institusjonsopphold--><g id="elem_Institusjonsopphold"><rect codeLine="28" fill="#90EE90" height="56.2656" id="Institusjonsopphold" rx="2.5" ry="2.5" style="stroke:#181818;stroke-width:0.5;" width="168.5068" x="163.4" y="173.1975"/><ellipse cx="178.4" cy="193.3303" fill="#ADD1B2" rx="11" ry="11" style="stroke:#181818;stroke-width:1;"/><path d="M181.3688,198.9709 Q180.7906,199.2678 180.15,199.4084 Q179.5094,199.5647 178.8063,199.5647 Q176.3063,199.5647 174.9781,197.9241 Q173.6656,196.2678 173.6656,193.1428 Q173.6656,190.0178 174.9781,188.3616 Q176.3063,186.7053 178.8063,186.7053 Q179.5094,186.7053 180.15,186.8616 Q180.8063,187.0178 181.3688,187.3147 L181.3688,190.0334 Q180.7438,189.4553 180.15,189.1897 Q179.5563,188.9084 178.9313,188.9084 Q177.5875,188.9084 176.9,189.9866 Q176.2125,191.0491 176.2125,193.1428 Q176.2125,195.2366 176.9,196.3147 Q177.5875,197.3772 178.9313,197.3772 Q179.5563,197.3772 180.15,197.1116 Q180.7438,196.8303 181.3688,196.2522 L181.3688,198.9709 Z " fill="#000000"/><text fill="#000000" font-family="sans-serif" font-size="12" font-style="italic" lengthAdjust="spacing" textLength="103.5293" x="208.8888" y="189.3362">&#171;EpisodeOfCare&#187;</text><text fill="#000000" font-family="sans-serif" font-size="14" lengthAdjust="spacing" textLength="136.5068" x="192.4" y="205.1614">Institusjonsopphold</text><line style="stroke:#181818;stroke-width:0.5;" x1="164.4" x2="330.9068" y1="213.4631" y2="213.4631"/><line style="stroke:#181818;stroke-width:0.5;" x1="164.4" x2="330.9068" y1="221.4631" y2="221.4631"/></g><!--class Organisasjon--><g id="elem_Organisasjon"><rect codeLine="23" fill="#90EE90" height="56.2656" id="Organisasjon" rx="2.5" ry="2.5" style="stroke:#181818;stroke-width:0.5;" width="123.499" x="37.9" y="289.4675"/><ellipse cx="52.9" cy="309.6003" fill="#ADD1B2" rx="11" ry="11" style="stroke:#181818;stroke-width:1;"/><path d="M55.8688,315.2409 Q55.2906,315.5378 54.65,315.6784 Q54.0094,315.8347 53.3063,315.8347 Q50.8063,315.8347 49.4781,314.1941 Q48.1656,312.5378 48.1656,309.4128 Q48.1656,306.2878 49.4781,304.6316 Q50.8063,302.9753 53.3063,302.9753 Q54.0094,302.9753 54.65,303.1316 Q55.3063,303.2878 55.8688,303.5847 L55.8688,306.3034 Q55.2438,305.7253 54.65,305.4597 Q54.0563,305.1784 53.4313,305.1784 Q52.0875,305.1784 51.4,306.2566 Q50.7125,307.3191 50.7125,309.4128 Q50.7125,311.5066 51.4,312.5847 Q52.0875,313.6472 53.4313,313.6472 Q54.0563,313.6472 54.65,313.3816 Q55.2438,313.1003 55.8688,312.5222 L55.8688,315.2409 Z " fill="#000000"/><text fill="#000000" font-family="sans-serif" font-size="12" font-style="italic" lengthAdjust="spacing" textLength="91.6113" x="66.8438" y="305.6062">&#171;Organization&#187;</text><text fill="#000000" font-family="sans-serif" font-size="14" lengthAdjust="spacing" textLength="91.499" x="66.9" y="321.4314">Organisasjon</text><line style="stroke:#181818;stroke-width:0.5;" x1="38.9" x2="160.399" y1="329.7331" y2="329.7331"/><line style="stroke:#181818;stroke-width:0.5;" x1="38.9" x2="160.399" y1="337.7331" y2="337.7331"/></g><!--class Diagnose--><g id="elem_Diagnose"><rect codeLine="35" fill="#F1F1F1" height="56.2656" id="Diagnose" rx="2.5" ry="2.5" style="stroke:#181818;stroke-width:0.5;" width="104.6523" x="285.32" y="289.4675"/><ellipse cx="300.32" cy="309.6003" fill="#ADD1B2" rx="11" ry="11" style="stroke:#181818;stroke-width:1;"/><path d="M303.2888,315.2409 Q302.7106,315.5378 302.07,315.6784 Q301.4294,315.8347 300.7263,315.8347 Q298.2263,315.8347 296.8981,314.1941 Q295.5856,312.5378 295.5856,309.4128 Q295.5856,306.2878 296.8981,304.6316 Q298.2263,302.9753 300.7263,302.9753 Q301.4294,302.9753 302.07,303.1316 Q302.7263,303.2878 303.2888,303.5847 L303.2888,306.3034 Q302.6638,305.7253 302.07,305.4597 Q301.4763,305.1784 300.8513,305.1784 Q299.5075,305.1784 298.82,306.2566 Q298.1325,307.3191 298.1325,309.4128 Q298.1325,311.5066 298.82,312.5847 Q299.5075,313.6472 300.8513,313.6472 Q301.4763,313.6472 302.07,313.3816 Q302.6638,313.1003 303.2888,312.5222 L303.2888,315.2409 Z " fill="#000000"/><text fill="#000000" font-family="sans-serif" font-size="12" font-style="italic" lengthAdjust="spacing" textLength="76.6523" x="312.32" y="305.6062">&#171;Condtition&#187;</text><text fill="#000000" font-family="sans-serif" font-size="14" lengthAdjust="spacing" textLength="65.4814" x="317.9054" y="321.4314">Diagnose</text><line style="stroke:#181818;stroke-width:0.5;" x1="286.32" x2="388.9723" y1="329.7331" y2="329.7331"/><line style="stroke:#181818;stroke-width:0.5;" x1="286.32" x2="388.9723" y1="337.7331" y2="337.7331"/></g><!--link Legemiddeladministrering to Legemiddel--><g id="link_Legemiddeladministrering_Legemiddel"><path codeLine="11" d="M468.65,113.3175 C461.88,130.1975 454.11,152.5275 450.65,173.1975 C446.52,197.8675 446.4,204.8275 450.65,229.4675 C454.2,250.0375 459.8475,266.6427 466.7975,283.4527 " fill="#FFFFFF" fill-opacity="0.00000" id="Legemiddeladministrering-to-Legemiddel" style="stroke:#181818;stroke-width:1;"/><polygon fill="#181818" points="469.09,288.9975,469.3478,279.152,467.1796,284.3768,461.9548,282.2086,469.09,288.9975" style="stroke:#181818;stroke-width:1;"/></g><!--link Legemiddeladministrering to Pasient--><g id="link_Legemiddeladministrering_Pasient"><path codeLine="12" d="M372.32,94.4275 C255.56,110.2975 78.67,156.2775 20.65,289.4675 C10.66,312.3975 6,325.4675 20.65,345.7275 C71.48,416.0375 175.0948,430.3288 235.8748,432.7488 " fill="#FFFFFF" fill-opacity="0.00000" id="Legemiddeladministrering-to-Pasient" style="stroke:#181818;stroke-width:1;"/><polygon fill="#181818" points="241.87,432.9875,233.0363,428.6326,236.874,432.7886,232.718,436.6263,241.87,432.9875" style="stroke:#181818;stroke-width:1;"/></g><!--link Legemiddeladministrering to Helsepersonell--><g id="link_Legemiddeladministrering_Helsepersonell"><path codeLine="13" d="M570.55,113.5875 C602.55,127.1675 636.58,146.5175 660.65,173.1975 C690.45,206.2375 702.5004,251.7565 707.9804,283.2165 " fill="#FFFFFF" fill-opacity="0.00000" id="Legemiddeladministrering-to-Helsepersonell" style="stroke:#181818;stroke-width:1;"/><polygon fill="#181818" points="709.01,289.1275,711.4062,279.5746,708.152,284.2017,703.5249,280.9474,709.01,289.1275" style="stroke:#181818;stroke-width:1;"/></g><!--link Legemiddeladministrering to Rolle helsepersonell--><g id="link_Legemiddeladministrering_Rolle helsepersonell"><path codeLine="14" d="M566.13,113.5875 C621.84,131.5075 688.5385,152.9793 744.2785,170.9193 " fill="#FFFFFF" fill-opacity="0.00000" id="Legemiddeladministrering-to-Rolle helsepersonell" style="stroke:#181818;stroke-width:1;"/><polygon fill="#181818" points="749.99,172.7575,742.6483,166.1925,745.2304,171.2256,740.1973,173.8078,749.99,172.7575" style="stroke:#181818;stroke-width:1;"/></g><!--link Legemiddeladministrering to Rekvisisjon--><g id="link_Legemiddeladministrering_Rekvisisjon"><path codeLine="15" d="M496.46,113.4375 C506.83,131.3975 517.3492,149.6018 527.7392,167.5918 " fill="#FFFFFF" fill-opacity="0.00000" id="Legemiddeladministrering-to-Rekvisisjon" style="stroke:#181818;stroke-width:1;"/><polygon fill="#181818" points="530.74,172.7875,529.7027,162.9934,528.2394,168.4577,522.7751,166.9944,530.74,172.7875" style="stroke:#181818;stroke-width:1;"/></g><!--link Legemiddeladministrering to Institusjonsopphold--><g id="link_Legemiddeladministrering_Institusjonsopphold"><path codeLine="16" d="M424.55,113.5875 C387.92,131.5475 345.6673,152.2661 309.0573,170.2161 " fill="#FFFFFF" fill-opacity="0.00000" id="Legemiddeladministrering-to-Institusjonsopphold" style="stroke:#181818;stroke-width:1;"/><polygon fill="#181818" points="303.67,172.8575,313.5119,172.4869,308.1594,170.6563,309.99,165.3039,303.67,172.8575" style="stroke:#181818;stroke-width:1;"/></g><!--link Organisasjon to Organisasjon--><g id="link_Organisasjon_Organisasjon"><path codeLine="26" d="M161.53,295.8075 C181.02,296.1475 196.4,303.4075 196.4,317.5975 C196.4,331.7875 187.0191,338.9559 167.5291,339.2859 " fill="#FFFFFF" fill-opacity="0.00000" id="Organisasjon-to-Organisasjon" style="stroke:#181818;stroke-width:1;"/><polygon fill="#181818" points="161.53,339.3875,170.5964,343.2346,166.5293,339.3029,170.461,335.2357,161.53,339.3875" style="stroke:#181818;stroke-width:1;"/></g><!--link Institusjonsopphold to Pasient--><g id="link_Institusjonsopphold_Pasient"><path codeLine="31" d="M251.04,229.8875 C254.71,258.8075 260.94,305.5675 267.65,345.7275 C271.01,365.7975 274.2222,382.4583 277.7122,399.5883 " fill="#FFFFFF" fill-opacity="0.00000" id="Institusjonsopphold-to-Pasient" style="stroke:#181818;stroke-width:1;"/><polygon fill="#181818" points="278.91,405.4675,281.0328,395.8501,277.9118,400.5681,273.1938,397.4472,278.91,405.4675" style="stroke:#181818;stroke-width:1;"/></g><!--link Institusjonsopphold to Organisasjon--><g id="link_Institusjonsopphold_Organisasjon"><path codeLine="32" d="M212.2,229.7075 C188.94,247.6575 163.3799,267.4017 140.0699,285.3917 " fill="#FFFFFF" fill-opacity="0.00000" id="Institusjonsopphold-to-Organisasjon" style="stroke:#181818;stroke-width:1;"/><polygon fill="#181818" points="135.32,289.0575,144.8888,286.7253,139.2783,286.0026,140.001,280.3921,135.32,289.0575" style="stroke:#181818;stroke-width:1;"/></g><!--link Institusjonsopphold to Diagnose--><g id="link_Institusjonsopphold_Diagnose"><path codeLine="33" d="M269.21,229.7075 C283.35,247.6575 298.0774,266.354 312.2474,284.344 " fill="#FFFFFF" fill-opacity="0.00000" id="Institusjonsopphold-to-Diagnose" style="stroke:#181818;stroke-width:1;"/><polygon fill="#181818" points="315.96,289.0575,313.5334,279.5123,312.8662,285.1296,307.2488,284.4624,315.96,289.0575" style="stroke:#181818;stroke-width:1;"/></g><!--link Diagnose to Pasient--><g id="link_Diagnose_Pasient"><path codeLine="38" d="M324.96,345.9675 C316.63,363.9275 308.2924,381.8835 299.9524,399.8835 " fill="#FFFFFF" fill-opacity="0.00000" id="Diagnose-to-Pasient" style="stroke:#181818;stroke-width:1;stroke-dasharray:7.0,7.0;"/><polygon fill="#181818" points="297.43,405.3275,304.843,398.8431,299.532,400.7908,297.5842,395.4799,297.43,405.3275" style="stroke:#181818;stroke-width:1;"/></g><!--link Rekvisisjon to Diagnose--><g id="link_Rekvisisjon_Diagnose"><path codeLine="43" d="M496.32,229.8475 C463.47,247.8075 426.0042,268.2885 393.1642,286.2485 " fill="#FFFFFF" fill-opacity="0.00000" id="Rekvisisjon-to-Diagnose" style="stroke:#181818;stroke-width:1;"/><polygon fill="#181818" points="387.9,289.1275,397.7156,288.3185,392.2868,286.7284,393.877,281.2996,387.9,289.1275" style="stroke:#181818;stroke-width:1;"/></g><!--link Rekvisisjon to Legemiddel--><g id="link_Rekvisisjon_Legemiddel"><path codeLine="44" d="M531.08,229.7075 C520.87,247.6575 510.5159,265.8518 500.2859,283.8418 " fill="#FFFFFF" fill-opacity="0.00000" id="Rekvisisjon-to-Legemiddel" style="stroke:#181818;stroke-width:1;"/><polygon fill="#181818" points="497.32,289.0575,505.246,283.2112,499.7916,284.7111,498.2917,279.2567,497.32,289.0575" style="stroke:#181818;stroke-width:1;"/></g><!--link Rekvisisjon to Pasient--><g id="link_Rekvisisjon_Pasient"><path codeLine="45" d="M557.96,229.7875 C568.81,260.9975 580.26,311.9675 555.65,345.7275 C503.03,417.9175 395.6175,431.4328 333.4875,433.2428 " fill="#FFFFFF" fill-opacity="0.00000" id="Rekvisisjon-to-Pasient" style="stroke:#181818;stroke-width:1;"/><polygon fill="#181818" points="327.49,433.4175,336.6027,437.1537,332.4879,433.2719,336.3697,429.1571,327.49,433.4175" style="stroke:#181818;stroke-width:1;"/></g><!--link Rekvisisjon to Helsepersonell--><g id="link_Rekvisisjon_Helsepersonell"><path codeLine="46" d="M586.41,229.7075 C612.5,247.6575 641.5574,267.6659 667.6974,285.6559 " fill="#FFFFFF" fill-opacity="0.00000" id="Rekvisisjon-to-Helsepersonell" style="stroke:#181818;stroke-width:1;"/><polygon fill="#181818" points="672.64,289.0575,667.4938,280.6601,668.5212,286.2229,662.9584,287.2502,672.64,289.0575" style="stroke:#181818;stroke-width:1;"/></g><!--link Rekvisisjon to Rekvisisjon--><g id="link_Rekvisisjon_Rekvisisjon"><path codeLine="47" d="M625.89,179.8375 C645.67,181.3375 660.45,188.5075 660.45,201.3375 C660.45,214.1675 651.6526,220.8708 631.8726,222.3808 " fill="#FFFFFF" fill-opacity="0.00000" id="Rekvisisjon-to-Rekvisisjon" style="stroke:#181818;stroke-width:1;"/><polygon fill="#181818" points="625.89,222.8375,635.1684,226.1408,630.8755,222.4569,634.5594,218.164,625.89,222.8375" style="stroke:#181818;stroke-width:1;"/></g><text fill="#888888" font-family="sans-serif" font-size="10" lengthAdjust="spacing" textLength="147.041" x="384.0044" y="477.2754">Folkehelseinstituttet</text><!--SRC=[VPDDJyCm38Rl_HLMEM_SqJHf6Y0cRTeqnExMuhPXQLAIZ0E8_uwpjlI3jhScVbxxZUrcX88in5jAAPT2a1Be4HAB8BNpqb_Tkz7WfO86iPHAvycIZoD6546yqOcnEGROvOOPzG1lkorS53f7GcAAESnWTph4KMAC3pMVZRfGHifHLSfxyd0F9rGILgzn59s36Wxe96aFYyK1VVXQBk5EoJJpgINIy1tzr6ZZ4KKkDRkqPALEMRjZ5sVM6xsgGxVJKBBHDBFPibK3fi7AzpJq4jvVa7L6SzEcsVXe53SxwqZYQSsHBf_IoJ2OQN3JZDkPeiYC4l-xskdZ-1YwZmg3itZcx2mYoxA0bkJUfiX6Rel3N7dy6atVmOFhzaLTVU0bdFgfa8uNSv-iqT9GxY5PUunZyOw5CUYH_m1j7DKUwpCRMnijojvKdOd-WlDvKxuIjkRP6SQHFgxaV9sYZNNgzmFDRF-5wihz-zxAziFjZQjC3ozkRo-OeTB-Bm00]--></g></svg>