<svg xmlns="http://www.w3.org/2000/svg" xmlns:xlink="http://www.w3.org/1999/xlink" contentStyleType="text/css" data-diagram-type="CLASS" height="405px" preserveAspectRatio="none" style="width:1063px;height:405px;background:#FFFFFF;" version="1.1" viewBox="0 0 1063 405" width="1063px" zoomAndPan="magnify"><defs/><g><!--class Diagnose--><a href="https://hl7norway.github.io/LMDI/currentbuild/StructureDefinition-lmdi-condition.html" target="_top" title="https://hl7norway.github.io/LMDI/currentbuild/StructureDefinition-lmdi-condition.html" xlink:actuate="onRequest" xlink:href="https://hl7norway.github.io/LMDI/currentbuild/StructureDefinition-lmdi-condition.html" xlink:show="new" xlink:title="https://hl7norway.github.io/LMDI/currentbuild/StructureDefinition-lmdi-condition.html" xlink:type="simple"><g class="entity" data-entity="Diagnose" data-source-line="8" data-uid="ent0002" id="entity_Diagnose"><rect fill="#FFFFFF" height="40.2656" rx="2.5" ry="2.5" style="stroke:#000000;stroke-width:0.5;" width="99.9473" x="308.78" y="241.53"/><ellipse cx="323.78" cy="261.6628" fill="#ADD1B2" rx="11" ry="11" style="stroke:#181818;stroke-width:1;"/><path d="M326.7488,267.3034 Q326.1706,267.6003 325.53,267.7409 Q324.8894,267.8972 324.1863,267.8972 Q321.6863,267.8972 320.3581,266.2566 Q319.0456,264.6003 319.0456,261.4753 Q319.0456,258.3503 320.3581,256.6941 Q321.6863,255.0378 324.1863,255.0378 Q324.8894,255.0378 325.53,255.1941 Q326.1863,255.3503 326.7488,255.6472 L326.7488,258.3659 Q326.1238,257.7878 325.53,257.5222 Q324.9363,257.2409 324.3113,257.2409 Q322.9675,257.2409 322.28,258.3191 Q321.5925,259.3816 321.5925,261.4753 Q321.5925,263.5691 322.28,264.6472 Q322.9675,265.7097 324.3113,265.7097 Q324.9363,265.7097 325.53,265.4441 Q326.1238,265.1628 326.7488,264.5847 L326.7488,267.3034 Z " fill="#000000"/><text fill="#000000" font-family="sans-serif" font-size="12" font-style="italic" lengthAdjust="spacing" textLength="71.9473" x="335.78" y="257.6687">&#171;Condition&#187;</text><text fill="#000000" font-family="sans-serif" font-size="14" lengthAdjust="spacing" textLength="65.4814" x="339.0129" y="273.4939">Diagnose</text></g></a><!--class Episode--><a href="https://hl7norway.github.io/LMDI/currentbuild/StructureDefinition-lmdi-encounter.html" target="_top" title="https://hl7norway.github.io/LMDI/currentbuild/StructureDefinition-lmdi-encounter.html" xlink:actuate="onRequest" xlink:href="https://hl7norway.github.io/LMDI/currentbuild/StructureDefinition-lmdi-encounter.html" xlink:show="new" xlink:title="https://hl7norway.github.io/LMDI/currentbuild/StructureDefinition-lmdi-encounter.html" xlink:type="simple"><g class="entity" data-entity="Episode" data-source-line="9" data-uid="ent0003" id="entity_Episode"><rect fill="#FFFFFF" height="40.2656" rx="2.5" ry="2.5" style="stroke:#000000;stroke-width:0.5;" width="104.043" x="36.73" y="241.53"/><ellipse cx="51.73" cy="261.6628" fill="#ADD1B2" rx="11" ry="11" style="stroke:#181818;stroke-width:1;"/><path d="M54.6988,267.3034 Q54.1206,267.6003 53.48,267.7409 Q52.8394,267.8972 52.1363,267.8972 Q49.6363,267.8972 48.3081,266.2566 Q46.9956,264.6003 46.9956,261.4753 Q46.9956,258.3503 48.3081,256.6941 Q49.6363,255.0378 52.1363,255.0378 Q52.8394,255.0378 53.48,255.1941 Q54.1363,255.3503 54.6988,255.6472 L54.6988,258.3659 Q54.0738,257.7878 53.48,257.5222 Q52.8863,257.2409 52.2613,257.2409 Q50.9175,257.2409 50.23,258.3191 Q49.5425,259.3816 49.5425,261.4753 Q49.5425,263.5691 50.23,264.6472 Q50.9175,265.7097 52.2613,265.7097 Q52.8863,265.7097 53.48,265.4441 Q54.0738,265.1628 54.6988,264.5847 L54.6988,267.3034 Z " fill="#000000"/><text fill="#000000" font-family="sans-serif" font-size="12" font-style="italic" lengthAdjust="spacing" textLength="76.043" x="63.73" y="257.6687">&#171;Encounter&#187;</text><text fill="#000000" font-family="sans-serif" font-size="14" lengthAdjust="spacing" textLength="54.9814" x="74.2608" y="273.4939">Episode</text></g></a><!--class Helsepersonell--><a href="https://hl7norway.github.io/LMDI/currentbuild/StructureDefinition-lmdi-practitioner.html" target="_top" title="https://hl7norway.github.io/LMDI/currentbuild/StructureDefinition-lmdi-practitioner.html" xlink:actuate="onRequest" xlink:href="https://hl7norway.github.io/LMDI/currentbuild/StructureDefinition-lmdi-practitioner.html" xlink:show="new" xlink:title="https://hl7norway.github.io/LMDI/currentbuild/StructureDefinition-lmdi-practitioner.html" xlink:type="simple"><g class="entity" data-entity="Helsepersonell" data-source-line="10" data-uid="ent0004" id="entity_Helsepersonell"><rect fill="#FFFFFF" height="40.2656" rx="2.5" ry="2.5" style="stroke:#000000;stroke-width:0.5;" width="135.3184" x="625.09" y="241.53"/><ellipse cx="640.09" cy="261.6628" fill="#ADD1B2" rx="11" ry="11" style="stroke:#181818;stroke-width:1;"/><path d="M643.0588,267.3034 Q642.4806,267.6003 641.84,267.7409 Q641.1994,267.8972 640.4963,267.8972 Q637.9963,267.8972 636.6681,266.2566 Q635.3556,264.6003 635.3556,261.4753 Q635.3556,258.3503 636.6681,256.6941 Q637.9963,255.0378 640.4963,255.0378 Q641.1994,255.0378 641.84,255.1941 Q642.4963,255.3503 643.0588,255.6472 L643.0588,258.3659 Q642.4338,257.7878 641.84,257.5222 Q641.2463,257.2409 640.6213,257.2409 Q639.2775,257.2409 638.59,258.3191 Q637.9025,259.3816 637.9025,261.4753 Q637.9025,263.5691 638.59,264.6472 Q639.2775,265.7097 640.6213,265.7097 Q641.2463,265.7097 641.84,265.4441 Q642.4338,265.1628 643.0588,264.5847 L643.0588,267.3034 Z " fill="#000000"/><text fill="#000000" font-family="sans-serif" font-size="12" font-style="italic" lengthAdjust="spacing" textLength="84.1465" x="663.6759" y="257.6687">&#171;Practitioner&#187;</text><text fill="#000000" font-family="sans-serif" font-size="14" lengthAdjust="spacing" textLength="103.3184" x="654.09" y="273.4939">Helsepersonell</text></g></a><!--class Legemiddel--><a href="https://hl7norway.github.io/LMDI/currentbuild/StructureDefinition-lmdi-medication.html" target="_top" title="https://hl7norway.github.io/LMDI/currentbuild/StructureDefinition-lmdi-medication.html" xlink:actuate="onRequest" xlink:href="https://hl7norway.github.io/LMDI/currentbuild/StructureDefinition-lmdi-medication.html" xlink:show="new" xlink:title="https://hl7norway.github.io/LMDI/currentbuild/StructureDefinition-lmdi-medication.html" xlink:type="simple"><g class="entity" data-entity="Legemiddel" data-source-line="11" data-uid="ent0005" id="entity_Legemiddel"><rect fill="#FFFFFF" height="40.2656" rx="2.5" ry="2.5" style="stroke:#000000;stroke-width:0.5;" width="113.7168" x="795.89" y="241.53"/><ellipse cx="810.89" cy="261.6628" fill="#ADD1B2" rx="11" ry="11" style="stroke:#181818;stroke-width:1;"/><path d="M813.8588,267.3034 Q813.2806,267.6003 812.64,267.7409 Q811.9994,267.8972 811.2963,267.8972 Q808.7963,267.8972 807.4681,266.2566 Q806.1556,264.6003 806.1556,261.4753 Q806.1556,258.3503 807.4681,256.6941 Q808.7963,255.0378 811.2963,255.0378 Q811.9994,255.0378 812.64,255.1941 Q813.2963,255.3503 813.8588,255.6472 L813.8588,258.3659 Q813.2338,257.7878 812.64,257.5222 Q812.0463,257.2409 811.4213,257.2409 Q810.0775,257.2409 809.39,258.3191 Q808.7025,259.3816 808.7025,261.4753 Q808.7025,263.5691 809.39,264.6472 Q810.0775,265.7097 811.4213,265.7097 Q812.0463,265.7097 812.64,265.4441 Q813.2338,265.1628 813.8588,264.5847 L813.8588,267.3034 Z " fill="#000000"/><text fill="#000000" font-family="sans-serif" font-size="12" font-style="italic" lengthAdjust="spacing" textLength="80.3086" x="825.5941" y="257.6687">&#171;Medication&#187;</text><text fill="#000000" font-family="sans-serif" font-size="14" lengthAdjust="spacing" textLength="81.7168" x="824.89" y="273.4939">Legemiddel</text></g></a><!--class Legemiddeladministrering--><a href="https://hl7norway.github.io/LMDI/currentbuild/StructureDefinition-lmdi-medicationadministration.html" target="_top" title="https://hl7norway.github.io/LMDI/currentbuild/StructureDefinition-lmdi-medicationadministration.html" xlink:actuate="onRequest" xlink:href="https://hl7norway.github.io/LMDI/currentbuild/StructureDefinition-lmdi-medicationadministration.html" xlink:show="new" xlink:title="https://hl7norway.github.io/LMDI/currentbuild/StructureDefinition-lmdi-medicationadministration.html" xlink:type="simple"><g class="entity" data-entity="Legemiddeladministrering" data-source-line="12" data-uid="ent0006" id="entity_Legemiddeladministrering"><rect fill="#FFFFFF" height="40.2656" rx="2.5" ry="2.5" style="stroke:#000000;stroke-width:0.5;" width="216.0303" x="173.73" y="7"/><ellipse cx="188.73" cy="27.1328" fill="#ADD1B2" rx="11" ry="11" style="stroke:#181818;stroke-width:1;"/><path d="M191.6988,32.7734 Q191.1206,33.0703 190.48,33.2109 Q189.8394,33.3672 189.1363,33.3672 Q186.6363,33.3672 185.3081,31.7266 Q183.9956,30.0703 183.9956,26.9453 Q183.9956,23.8203 185.3081,22.1641 Q186.6363,20.5078 189.1363,20.5078 Q189.8394,20.5078 190.48,20.6641 Q191.1363,20.8203 191.6988,21.1172 L191.6988,23.8359 Q191.0738,23.2578 190.48,22.9922 Q189.8863,22.7109 189.2613,22.7109 Q187.9175,22.7109 187.23,23.7891 Q186.5425,24.8516 186.5425,26.9453 Q186.5425,29.0391 187.23,30.1172 Q187.9175,31.1797 189.2613,31.1797 Q189.8863,31.1797 190.48,30.9141 Q191.0738,30.6328 191.6988,30.0547 L191.6988,32.7734 Z " fill="#000000"/><text fill="#000000" font-family="sans-serif" font-size="12" font-style="italic" lengthAdjust="spacing" textLength="168.3281" x="210.5811" y="23.1387">&#171;MedicationAdministration&#187;</text><text fill="#000000" font-family="sans-serif" font-size="14" lengthAdjust="spacing" textLength="184.0303" x="202.73" y="38.9639">Legemiddeladministrering</text></g></a><!--class Legemiddelrekvirering--><a href="https://hl7norway.github.io/LMDI/currentbuild/StructureDefinition-lmdi-medicationrequest.html" target="_top" title="https://hl7norway.github.io/LMDI/currentbuild/StructureDefinition-lmdi-medicationrequest.html" xlink:actuate="onRequest" xlink:href="https://hl7norway.github.io/LMDI/currentbuild/StructureDefinition-lmdi-medicationrequest.html" xlink:show="new" xlink:title="https://hl7norway.github.io/LMDI/currentbuild/StructureDefinition-lmdi-medicationrequest.html" xlink:type="simple"><g class="entity" data-entity="Legemiddelrekvirering" data-source-line="13" data-uid="ent0007" id="entity_Legemiddelrekvirering"><rect fill="#FFFFFF" height="40.2656" rx="2.5" ry="2.5" style="stroke:#000000;stroke-width:0.5;" width="190.1426" x="455.68" y="124.26"/><ellipse cx="470.68" cy="144.3928" fill="#ADD1B2" rx="11" ry="11" style="stroke:#181818;stroke-width:1;"/><path d="M473.6488,150.0334 Q473.0706,150.3303 472.43,150.4709 Q471.7894,150.6272 471.0863,150.6272 Q468.5863,150.6272 467.2581,148.9866 Q465.9456,147.3303 465.9456,144.2053 Q465.9456,141.0803 467.2581,139.4241 Q468.5863,137.7678 471.0863,137.7678 Q471.7894,137.7678 472.43,137.9241 Q473.0863,138.0803 473.6488,138.3772 L473.6488,141.0959 Q473.0238,140.5178 472.43,140.2522 Q471.8363,139.9709 471.2113,139.9709 Q469.8675,139.9709 469.18,141.0491 Q468.4925,142.1116 468.4925,144.2053 Q468.4925,146.2991 469.18,147.3772 Q469.8675,148.4397 471.2113,148.4397 Q471.8363,148.4397 472.43,148.1741 Q473.0238,147.8928 473.6488,147.3147 L473.6488,150.0334 Z " fill="#000000"/><text fill="#000000" font-family="sans-serif" font-size="12" font-style="italic" lengthAdjust="spacing" textLength="129.5918" x="498.9554" y="140.3987">&#171;MedicationRequest&#187;</text><text fill="#000000" font-family="sans-serif" font-size="14" lengthAdjust="spacing" textLength="158.1426" x="484.68" y="156.2239">Legemiddelrekvirering</text></g></a><!--class Organisasjon--><a href="https://hl7norway.github.io/LMDI/currentbuild/StructureDefinition-lmdi-organization.html" target="_top" title="https://hl7norway.github.io/LMDI/currentbuild/StructureDefinition-lmdi-organization.html" xlink:actuate="onRequest" xlink:href="https://hl7norway.github.io/LMDI/currentbuild/StructureDefinition-lmdi-organization.html" xlink:show="new" xlink:title="https://hl7norway.github.io/LMDI/currentbuild/StructureDefinition-lmdi-organization.html" xlink:type="simple"><g class="entity" data-entity="Organisasjon" data-source-line="14" data-uid="ent0008" id="entity_Organisasjon"><rect fill="#FFFFFF" height="40.2656" rx="2.5" ry="2.5" style="stroke:#000000;stroke-width:0.5;" width="123.499" x="7" y="358.79"/><ellipse cx="22" cy="378.9228" fill="#ADD1B2" rx="11" ry="11" style="stroke:#181818;stroke-width:1;"/><path d="M24.9688,384.5634 Q24.3906,384.8603 23.75,385.0009 Q23.1094,385.1572 22.4063,385.1572 Q19.9063,385.1572 18.5781,383.5166 Q17.2656,381.8603 17.2656,378.7353 Q17.2656,375.6103 18.5781,373.9541 Q19.9063,372.2978 22.4063,372.2978 Q23.1094,372.2978 23.75,372.4541 Q24.4063,372.6103 24.9688,372.9072 L24.9688,375.6259 Q24.3438,375.0478 23.75,374.7822 Q23.1563,374.5009 22.5313,374.5009 Q21.1875,374.5009 20.5,375.5791 Q19.8125,376.6416 19.8125,378.7353 Q19.8125,380.8291 20.5,381.9072 Q21.1875,382.9697 22.5313,382.9697 Q23.1563,382.9697 23.75,382.7041 Q24.3438,382.4228 24.9688,381.8447 L24.9688,384.5634 Z " fill="#000000"/><text fill="#000000" font-family="sans-serif" font-size="12" font-style="italic" lengthAdjust="spacing" textLength="91.6113" x="35.9438" y="374.9287">&#171;Organization&#187;</text><text fill="#000000" font-family="sans-serif" font-size="14" lengthAdjust="spacing" textLength="91.499" x="36" y="390.7539">Organisasjon</text></g></a><!--class Pasient--><a href="https://hl7norway.github.io/LMDI/currentbuild/StructureDefinition-lmdi-patient.html" target="_top" title="https://hl7norway.github.io/LMDI/currentbuild/StructureDefinition-lmdi-patient.html" xlink:actuate="onRequest" xlink:href="https://hl7norway.github.io/LMDI/currentbuild/StructureDefinition-lmdi-patient.html" xlink:show="new" xlink:title="https://hl7norway.github.io/LMDI/currentbuild/StructureDefinition-lmdi-patient.html" xlink:type="simple"><g class="entity" data-entity="Pasient" data-source-line="15" data-uid="ent0009" id="entity_Pasient"><rect fill="#FFFFFF" height="40.2656" rx="2.5" ry="2.5" style="stroke:#000000;stroke-width:0.5;" width="85.0059" x="316.25" y="358.79"/><ellipse cx="331.25" cy="378.9228" fill="#ADD1B2" rx="11" ry="11" style="stroke:#181818;stroke-width:1;"/><path d="M334.2188,384.5634 Q333.6406,384.8603 333,385.0009 Q332.3594,385.1572 331.6563,385.1572 Q329.1563,385.1572 327.8281,383.5166 Q326.5156,381.8603 326.5156,378.7353 Q326.5156,375.6103 327.8281,373.9541 Q329.1563,372.2978 331.6563,372.2978 Q332.3594,372.2978 333,372.4541 Q333.6563,372.6103 334.2188,372.9072 L334.2188,375.6259 Q333.5938,375.0478 333,374.7822 Q332.4063,374.5009 331.7813,374.5009 Q330.4375,374.5009 329.75,375.5791 Q329.0625,376.6416 329.0625,378.7353 Q329.0625,380.8291 329.75,381.9072 Q330.4375,382.9697 331.7813,382.9697 Q332.4063,382.9697 333,382.7041 Q333.5938,382.4228 334.2188,381.8447 L334.2188,384.5634 Z " fill="#000000"/><text fill="#000000" font-family="sans-serif" font-size="12" font-style="italic" lengthAdjust="spacing" textLength="57.0059" x="343.25" y="374.9287">&#171;Patient&#187;</text><text fill="#000000" font-family="sans-serif" font-size="14" lengthAdjust="spacing" textLength="51.1807" x="346.1626" y="390.7539">Pasient</text></g></a><!--class Substance--><a href="https://hl7.org/fhir/R4/substance.html" target="_top" title="https://hl7.org/fhir/R4/substance.html" xlink:actuate="onRequest" xlink:href="https://hl7.org/fhir/R4/substance.html" xlink:show="new" xlink:title="https://hl7.org/fhir/R4/substance.html" xlink:type="simple"><g class="entity" data-entity="Substance" data-source-line="16" data-uid="ent0010" id="entity_Substance"><rect fill="#FFFFFF" height="32" rx="2.5" ry="2.5" style="stroke:#000000;stroke-width:0.5;" width="105.1924" x="800.15" y="362.93"/><ellipse cx="815.15" cy="378.93" fill="#ADD1B2" rx="11" ry="11" style="stroke:#181818;stroke-width:1;"/><path d="M818.1188,384.5706 Q817.5406,384.8675 816.9,385.0081 Q816.2594,385.1644 815.5563,385.1644 Q813.0563,385.1644 811.7281,383.5238 Q810.4156,381.8675 810.4156,378.7425 Q810.4156,375.6175 811.7281,373.9613 Q813.0563,372.305 815.5563,372.305 Q816.2594,372.305 816.9,372.4613 Q817.5563,372.6175 818.1188,372.9144 L818.1188,375.6331 Q817.4938,375.055 816.9,374.7894 Q816.3063,374.5081 815.6813,374.5081 Q814.3375,374.5081 813.65,375.5863 Q812.9625,376.6488 812.9625,378.7425 Q812.9625,380.8363 813.65,381.9144 Q814.3375,382.9769 815.6813,382.9769 Q816.3063,382.9769 816.9,382.7113 Q817.4938,382.43 818.1188,381.8519 L818.1188,384.5706 Z " fill="#000000"/><text fill="#000000" font-family="sans-serif" font-size="14" lengthAdjust="spacing" textLength="73.1924" x="829.15" y="383.7767">Substance</text></g></a><!--link Diagnose to Pasient--><g class="link" data-entity-1="Diagnose" data-entity-2="Pasient" data-source-line="18" data-uid="lnk11" id="link_Diagnose_Pasient"><path codeLine="18" d="M358.75,282.21 C358.75,303.54 358.75,331.45 358.75,352.66 " fill="none" id="Diagnose-to-Pasient" style="stroke:#000000;stroke-width:1;"/><polygon fill="#000000" points="358.75,358.66,362.75,349.66,358.75,353.66,354.75,349.66,358.75,358.66" style="stroke:#000000;stroke-width:1;"/><text fill="#000000" font-family="sans-serif" font-size="13" lengthAdjust="spacing" textLength="47.1187" x="359.75" y="324.8569">subject</text><text fill="#000000" font-family="sans-serif" font-size="13" lengthAdjust="spacing" textLength="24.8066" x="331.6324" y="301.8324">1..1</text></g><!--link Episode to Organisasjon--><g class="link" data-entity-1="Episode" data-entity-2="Organisasjon" data-source-line="19" data-uid="lnk12" id="link_Episode_Organisasjon"><path codeLine="19" d="M77.28,282.04 C72.73,290.81 68.04,301.5 65.75,311.79 C62.33,327.16 62.6423,339.0719 64.4023,352.3619 " fill="none" id="Episode-to-Organisasjon" style="stroke:#000000;stroke-width:1;"/><polygon fill="#000000" points="65.19,358.31,67.9738,348.8628,64.5336,353.3533,60.0431,349.913,65.19,358.31" style="stroke:#000000;stroke-width:1;"/><text fill="#000000" font-family="sans-serif" font-size="13" lengthAdjust="spacing" textLength="100.604" x="66.75" y="324.8569">serviceProvider</text><text fill="#000000" font-family="sans-serif" font-size="13" lengthAdjust="spacing" textLength="24.8066" x="46.7921" y="301.966">0..1</text></g><!--link Legemiddel to Substance--><g class="link" data-entity-1="Legemiddel" data-entity-2="Substance" data-source-line="20" data-uid="lnk13" id="link_Legemiddel_Substance"><path codeLine="20" d="M852.75,282.21 C852.75,304.95 852.75,336 852.75,356.7 " fill="none" id="Legemiddel-to-Substance" style="stroke:#000000;stroke-width:1;"/><polygon fill="#000000" points="852.75,362.7,856.75,353.7,852.75,357.7,848.75,353.7,852.75,362.7" style="stroke:#000000;stroke-width:1;"/><text fill="#000000" font-family="sans-serif" font-size="13" lengthAdjust="spacing" textLength="100.147" x="853.75" y="324.8569">ingredient.item</text><text fill="#000000" font-family="sans-serif" font-size="13" lengthAdjust="spacing" textLength="23.0356" x="826.6646" y="301.8324">0..*</text></g><!--link Legemiddel to Legemiddel--><g class="link" data-entity-1="Legemiddel" data-entity-2="Legemiddel" data-source-line="21" data-uid="lnk14" id="link_Legemiddel_Legemiddel"><path codeLine="21" d="M909.71,250.67 C929.06,250.61 944.61,254.28 944.61,261.66 C944.61,269.05 935.06,272.7286 915.71,272.6686 " fill="none" id="Legemiddel-to-Legemiddel" style="stroke:#000000;stroke-width:1;"/><polygon fill="#000000" points="909.71,272.65,918.6976,276.6779,914.71,272.6655,918.7224,268.6779,909.71,272.65" style="stroke:#000000;stroke-width:1;"/><text fill="#000000" font-family="sans-serif" font-size="13" lengthAdjust="spacing" textLength="100.147" x="950.61" y="266.2269">ingredient.item</text><text fill="#000000" font-family="sans-serif" font-size="13" lengthAdjust="spacing" textLength="23.0356" x="917.6279" y="245.6063">0..*</text></g><!--link Legemiddeladministrering to Legemiddel--><g class="link" data-entity-1="Legemiddeladministrering" data-entity-2="Legemiddel" data-source-line="22" data-uid="lnk15" id="link_Legemiddeladministrering_Legemiddel"><path codeLine="22" d="M390.26,35.84 C523.63,47.38 739.77,73.44 800.75,124.26 C836.57,154.12 847.071,205.5597 850.531,235.4897 " fill="none" id="Legemiddeladministrering-to-Legemiddel" style="stroke:#000000;stroke-width:1;"/><polygon fill="#000000" points="851.22,241.45,854.16,232.0502,850.6458,236.4831,846.2129,232.9689,851.22,241.45" style="stroke:#000000;stroke-width:1;"/><text fill="#000000" font-family="sans-serif" font-size="13" lengthAdjust="spacing" textLength="72.541" x="830.75" y="148.9669">medication</text><text fill="#000000" font-family="sans-serif" font-size="13" lengthAdjust="spacing" textLength="24.8066" x="397.6285" y="32.9845">1..1</text></g><!--link Legemiddeladministrering to Pasient--><g class="link" data-entity-1="Legemiddeladministrering" data-entity-2="Pasient" data-source-line="23" data-uid="lnk16" id="link_Legemiddeladministrering_Pasient"><path codeLine="23" d="M269.04,47.64 C248.69,81.42 213.02,152.79 232.75,211.53 C253.4,273.02 302.4244,325.7435 332.6544,354.3835 " fill="none" id="Legemiddeladministrering-to-Pasient" style="stroke:#000000;stroke-width:1;"/><polygon fill="#000000" points="337.01,358.51,333.2276,349.4164,333.3803,355.0712,327.7255,355.2239,337.01,358.51" style="stroke:#000000;stroke-width:1;"/><text fill="#000000" font-family="sans-serif" font-size="13" lengthAdjust="spacing" textLength="47.1187" x="233.75" y="207.5969">subject</text><text fill="#000000" font-family="sans-serif" font-size="13" lengthAdjust="spacing" textLength="24.8066" x="268.9589" y="67.2517">1..1</text></g><!--link Legemiddeladministrering to Episode--><g class="link" data-entity-1="Legemiddeladministrering" data-entity-2="Episode" data-source-line="24" data-uid="lnk17" id="link_Legemiddeladministrering_Episode"><path codeLine="24" d="M217.01,47.63 C180.5,62.35 138.03,86.6 116.75,124.26 C95.46,161.94 90.5099,207.6156 89.3099,235.2956 " fill="none" id="Legemiddeladministrering-to-Episode" style="stroke:#000000;stroke-width:1;"/><polygon fill="#000000" points="89.05,241.29,93.4361,232.4717,89.2666,236.2947,85.4436,232.1252,89.05,241.29" style="stroke:#000000;stroke-width:1;"/><text fill="#000000" font-family="sans-serif" font-size="13" lengthAdjust="spacing" textLength="49.2261" x="117.75" y="148.9669">context</text><text fill="#000000" font-family="sans-serif" font-size="13" lengthAdjust="spacing" textLength="24.8066" x="172.4958" y="67.239">0..1</text></g><!--link Legemiddeladministrering to Diagnose--><g class="link" data-entity-1="Legemiddeladministrering" data-entity-2="Diagnose" data-source-line="25" data-uid="lnk18" id="link_Legemiddeladministrering_Diagnose"><path codeLine="25" d="M278.34,47.75 C273.25,82.94 267.07,158.06 295.75,211.53 C302.11,223.39 307.8329,229.7875 318.5329,237.5475 " fill="none" id="Legemiddeladministrering-to-Diagnose" style="stroke:#000000;stroke-width:1;"/><polygon fill="#000000" points="323.39,241.07,318.4527,232.5481,319.3424,238.1345,313.7559,239.0243,323.39,241.07" style="stroke:#000000;stroke-width:1;"/><text fill="#000000" font-family="sans-serif" font-size="13" lengthAdjust="spacing" textLength="110.6079" x="280.75" y="148.9669">reasonReference</text><text fill="#000000" font-family="sans-serif" font-size="13" lengthAdjust="spacing" textLength="23.0356" x="251.339" y="67.3912">0..*</text></g><!--link Legemiddeladministrering to Legemiddelrekvirering--><g class="link" data-entity-1="Legemiddeladministrering" data-entity-2="Legemiddelrekvirering" data-source-line="26" data-uid="lnk19" id="link_Legemiddeladministrering_Legemiddelrekvirering"><path codeLine="26" d="M327.38,47.68 C377,68.94 450.305,100.3568 499.825,121.5768 " fill="none" id="Legemiddeladministrering-to-Legemiddelrekvirering" style="stroke:#000000;stroke-width:1;"/><polygon fill="#000000" points="505.34,123.94,498.643,116.7185,500.7442,121.9706,495.492,124.0718,505.34,123.94" style="stroke:#000000;stroke-width:1;"/><text fill="#000000" font-family="sans-serif" font-size="13" lengthAdjust="spacing" textLength="49.7021" x="433.75" y="90.3269">request</text><text fill="#000000" font-family="sans-serif" font-size="13" lengthAdjust="spacing" textLength="24.8066" x="312.5278" y="67.3024">0..1</text></g><!--link Legemiddelrekvirering to Legemiddel--><g class="link" data-entity-1="Legemiddelrekvirering" data-entity-2="Legemiddel" data-source-line="27" data-uid="lnk20" id="link_Legemiddelrekvirering_Legemiddel"><path codeLine="27" d="M616.35,164.98 C643.33,173.46 674.76,183.87 702.75,194.53 C740.12,208.76 776.2053,224.7691 806.0753,238.5991 " fill="none" id="Legemiddelrekvirering-to-Legemiddel" style="stroke:#000000;stroke-width:1;"/><polygon fill="#000000" points="811.52,241.12,805.0336,233.7088,806.9827,239.0192,801.6723,240.9684,811.52,241.12" style="stroke:#000000;stroke-width:1;"/><text fill="#000000" font-family="sans-serif" font-size="13" lengthAdjust="spacing" textLength="72.541" x="744.75" y="207.5969">medication</text><text fill="#000000" font-family="sans-serif" font-size="13" lengthAdjust="spacing" textLength="24.8066" x="606.863" y="184.6132">1..1</text></g><!--link Legemiddelrekvirering to Pasient--><g class="link" data-entity-1="Legemiddelrekvirering" data-entity-2="Pasient" data-source-line="28" data-uid="lnk21" id="link_Legemiddelrekvirering_Pasient"><path codeLine="28" d="M555.75,164.83 C558.24,178.51 559.47,196.92 552.75,211.53 C520.87,280.87 449.487,329.2218 402.647,355.4118 " fill="none" id="Legemiddelrekvirering-to-Pasient" style="stroke:#000000;stroke-width:1;"/><polygon fill="#000000" points="397.41,358.34,407.2176,357.439,401.7741,355.8998,403.3133,350.4564,397.41,358.34" style="stroke:#000000;stroke-width:1;"/><text fill="#000000" font-family="sans-serif" font-size="13" lengthAdjust="spacing" textLength="47.1187" x="533.75" y="266.2269">subject</text><text fill="#000000" font-family="sans-serif" font-size="13" lengthAdjust="spacing" textLength="24.8066" x="529.9768" y="184.4229">1..1</text></g><!--link Legemiddelrekvirering to Episode--><g class="link" data-entity-1="Legemiddelrekvirering" data-entity-2="Episode" data-source-line="29" data-uid="lnk22" id="link_Legemiddelrekvirering_Episode"><path codeLine="29" d="M463.45,164.99 C425.12,173.76 379.64,184.39 338.75,194.53 C270.12,211.55 197.0997,231.0856 146.6097,244.8156 " fill="none" id="Legemiddelrekvirering-to-Episode" style="stroke:#000000;stroke-width:1;"/><polygon fill="#000000" points="140.82,246.39,150.5542,247.8882,145.6448,245.078,148.455,240.1685,140.82,246.39" style="stroke:#000000;stroke-width:1;"/><text fill="#000000" font-family="sans-serif" font-size="13" lengthAdjust="spacing" textLength="66.2568" x="339.75" y="207.5969">encounter</text><text fill="#000000" font-family="sans-serif" font-size="13" lengthAdjust="spacing" textLength="24.8066" x="423.07" y="181.7215">0..1</text></g><!--link Legemiddelrekvirering to Helsepersonell--><g class="link" data-entity-1="Legemiddelrekvirering" data-entity-2="Helsepersonell" data-source-line="30" data-uid="lnk23" id="link_Legemiddelrekvirering_Helsepersonell"><path codeLine="30" d="M574.84,164.95 C601.11,186.27 638.2315,216.4087 664.3615,237.6187 " fill="none" id="Legemiddelrekvirering-to-Helsepersonell" style="stroke:#000000;stroke-width:1;"/><polygon fill="#000000" points="669.02,241.4,664.5532,232.6223,665.1379,238.2489,659.5114,238.8336,669.02,241.4" style="stroke:#000000;stroke-width:1;"/><text fill="#000000" font-family="sans-serif" font-size="13" lengthAdjust="spacing" textLength="63.0449" x="630.75" y="207.5969">requester</text><text fill="#000000" font-family="sans-serif" font-size="13" lengthAdjust="spacing" textLength="24.8066" x="554.1972" y="184.5751">1..1</text></g><!--link Legemiddelrekvirering to Diagnose--><g class="link" data-entity-1="Legemiddelrekvirering" data-entity-2="Diagnose" data-source-line="31" data-uid="lnk24" id="link_Legemiddelrekvirering_Diagnose"><path codeLine="31" d="M496.33,165 C476.9,172.99 455.25,183.06 436.75,194.53 C415.17,207.91 397.7212,222.8593 382.6712,237.0793 " fill="none" id="Legemiddelrekvirering-to-Diagnose" style="stroke:#000000;stroke-width:1;"/><polygon fill="#000000" points="378.31,241.2,387.5989,237.9264,381.9443,237.7661,382.1047,232.1115,378.31,241.2" style="stroke:#000000;stroke-width:1;"/><text fill="#000000" font-family="sans-serif" font-size="13" lengthAdjust="spacing" textLength="110.6079" x="437.75" y="207.5969">reasonReference</text><text fill="#000000" font-family="sans-serif" font-size="13" lengthAdjust="spacing" textLength="23.0356" x="455.6184" y="184.6385">0..*</text></g><!--link Legemiddelrekvirering to Legemiddelrekvirering--><g class="link" data-entity-1="Legemiddelrekvirering" data-entity-2="Legemiddelrekvirering" data-source-line="32" data-uid="lnk25" id="link_Legemiddelrekvirering_Legemiddelrekvirering"><path codeLine="32" d="M646.32,133.77 C666.37,134.87 680.82,138.41 680.82,144.4 C680.82,150.38 672.361,153.5913 652.311,154.6913 " fill="none" id="Legemiddelrekvirering-to-Legemiddelrekvirering" style="stroke:#000000;stroke-width:1;"/><polygon fill="#000000" points="646.32,155.02,655.5256,158.521,651.3125,154.7461,655.0874,150.533,646.32,155.02" style="stroke:#000000;stroke-width:1;"/><text fill="#000000" font-family="sans-serif" font-size="13" lengthAdjust="spacing" textLength="107.7197" x="686.82" y="148.9669">priorPrescription</text><text fill="#000000" font-family="sans-serif" font-size="13" lengthAdjust="spacing" textLength="24.8066" x="653.9118" y="129.5673">0..1</text></g><!--link Organisasjon to Organisasjon--><g class="link" data-entity-1="Organisasjon" data-entity-2="Organisasjon" data-source-line="33" data-uid="lnk26" id="link_Organisasjon_Organisasjon"><path codeLine="33" d="M130.63,367.94 C150.12,368.11 165.5,371.77 165.5,378.93 C165.5,386.08 156.1198,389.7007 136.6298,389.8607 " fill="none" id="Organisasjon-to-Organisasjon" style="stroke:#000000;stroke-width:1;"/><polygon fill="#000000" points="130.63,389.91,139.6625,393.836,135.6298,389.869,139.5969,385.8363,130.63,389.91" style="stroke:#000000;stroke-width:1;"/><text fill="#000000" font-family="sans-serif" font-size="13" lengthAdjust="spacing" textLength="41.4692" x="171.5" y="383.4969">partOf</text><text fill="#000000" font-family="sans-serif" font-size="13" lengthAdjust="spacing" textLength="24.8066" x="138.2905" y="363.1077">0..1</text></g><!--SRC=[jPRVQzim4CVV_LSOFmvYjp0Ob19ecy86BGtjmnvA6R9qiTNOadUIqtLZ__lEKVrBn5aAQPuI-RxV-znP9oMN0a8eA_iQbb2cW2OmQwagXgmCUS6C2Vy48Nqk6Lzdg6ibhdIXCVoUImlR9nU8-iKjNXOKvS8r2i3XwjyWS7uBoJAb3OJdvrTQ2McbLlDv-FYOMrkPioJ9YozAumjxZJDfypgDfKvkRXVV4buZWh9fBGkHF5YikQqH5h2IQkioAqeXPxmrZNDR5dsw7sd1rFhfwGtZkf96YuRYMd6gom8Uam9QKqVHPlCWla9XeAAkQmL5GInBPDnkROwBKmry7P6NsWExWGnAAGGqKBSW96V7Vazbv-g01YadOPWeoSDO19Gg6w5Tj8y-49IDSlZO7jna4GZhZTnHmJtyhC7OZq57P-up3rayu3lC69N3pBDMnEb-_ZvwT_N0rz6D4djGIsOaUJQJGWhwTjGXSPQEeita0JpKgR5CSHYdZQcCP9LBJEu_9wQDSKwzfFCAkbCfEetZqoYSpUPTnhCm8eTdu3OAsdCZEkd2HkrfOW4taiCIzOOESuo2mI0riazErbEGXbutqjPeYgLZl9pI35RtYxojFoXgRD7lnyFKkreohUjxrBQDT7GTMFZrFzrRmTrh8I42CyrGhe2s3eV34k-UhAtRTlw6BiE8TtPiGhg_NIFHpbvrbzO1kRpxeoznZ_hTZPv0dknoXLBZ4i5mb9LhscXSzemH_UMnTwle7m00]--></g></svg>