<svg xmlns="http://www.w3.org/2000/svg" xmlns:xlink="http://www.w3.org/1999/xlink" contentStyleType="text/css" data-diagram-type="CLASS" height="497px" preserveAspectRatio="none" style="width:1569px;height:497px;background:#FFFFFF;" version="1.1" viewBox="0 0 1569 497" width="1569px" zoomAndPan="magnify"><defs/><g><!--class LegemiddelregisterBundle--><g class="entity" data-entity="LegemiddelregisterBundle" data-source-line="8" data-uid="ent0002" id="entity_LegemiddelregisterBundle"><rect fill="#FFFFFF" height="32" rx="2.5" ry="2.5" style="stroke:#000000;stroke-width:0.5;" width="216.7549" x="7" y="7"/><ellipse cx="22" cy="23" fill="#ADD1B2" rx="11" ry="11" style="stroke:#181818;stroke-width:1;"/><path d="M24.9688,28.6406 Q24.3906,28.9375 23.75,29.0781 Q23.1094,29.2344 22.4063,29.2344 Q19.9063,29.2344 18.5781,27.5938 Q17.2656,25.9375 17.2656,22.8125 Q17.2656,19.6875 18.5781,18.0313 Q19.9063,16.375 22.4063,16.375 Q23.1094,16.375 23.75,16.5313 Q24.4063,16.6875 24.9688,16.9844 L24.9688,19.7031 Q24.3438,19.125 23.75,18.8594 Q23.1563,18.5781 22.5313,18.5781 Q21.1875,18.5781 20.5,19.6563 Q19.8125,20.7188 19.8125,22.8125 Q19.8125,24.9063 20.5,25.9844 Q21.1875,27.0469 22.5313,27.0469 Q23.1563,27.0469 23.75,26.7813 Q24.3438,26.5 24.9688,25.9219 L24.9688,28.6406 Z " fill="#000000"/><text fill="#000000" font-family="sans-serif" font-size="14" lengthAdjust="spacing" textLength="184.7549" x="36" y="27.8467">LegemiddelregisterBundle</text></g><!--class Diagnose--><g class="entity" data-entity="Diagnose" data-source-line="9" data-uid="ent0003" id="entity_Diagnose"><rect fill="#FFFFFF" height="32" rx="2.5" ry="2.5" style="stroke:#000000;stroke-width:0.5;" width="97.4814" x="789.64" y="225"/><ellipse cx="804.64" cy="241" fill="#ADD1B2" rx="11" ry="11" style="stroke:#181818;stroke-width:1;"/><path d="M807.6088,246.6406 Q807.0306,246.9375 806.39,247.0781 Q805.7494,247.2344 805.0463,247.2344 Q802.5463,247.2344 801.2181,245.5938 Q799.9056,243.9375 799.9056,240.8125 Q799.9056,237.6875 801.2181,236.0313 Q802.5463,234.375 805.0463,234.375 Q805.7494,234.375 806.39,234.5313 Q807.0463,234.6875 807.6088,234.9844 L807.6088,237.7031 Q806.9838,237.125 806.39,236.8594 Q805.7963,236.5781 805.1713,236.5781 Q803.8275,236.5781 803.14,237.6563 Q802.4525,238.7188 802.4525,240.8125 Q802.4525,242.9063 803.14,243.9844 Q803.8275,245.0469 805.1713,245.0469 Q805.7963,245.0469 806.39,244.7813 Q806.9838,244.5 807.6088,243.9219 L807.6088,246.6406 Z " fill="#000000"/><text fill="#000000" font-family="sans-serif" font-size="14" lengthAdjust="spacing" textLength="65.4814" x="818.64" y="245.8467">Diagnose</text></g><!--class Pasient--><g class="entity" data-entity="Pasient" data-source-line="10" data-uid="ent0004" id="entity_Pasient"><rect fill="#FFFFFF" height="32" rx="2.5" ry="2.5" style="stroke:#000000;stroke-width:0.5;" width="83.1807" x="835.79" y="349"/><ellipse cx="850.79" cy="365" fill="#ADD1B2" rx="11" ry="11" style="stroke:#181818;stroke-width:1;"/><path d="M853.7588,370.6406 Q853.1806,370.9375 852.54,371.0781 Q851.8994,371.2344 851.1963,371.2344 Q848.6963,371.2344 847.3681,369.5938 Q846.0556,367.9375 846.0556,364.8125 Q846.0556,361.6875 847.3681,360.0313 Q848.6963,358.375 851.1963,358.375 Q851.8994,358.375 852.54,358.5313 Q853.1963,358.6875 853.7588,358.9844 L853.7588,361.7031 Q853.1338,361.125 852.54,360.8594 Q851.9463,360.5781 851.3213,360.5781 Q849.9775,360.5781 849.29,361.6563 Q848.6025,362.7188 848.6025,364.8125 Q848.6025,366.9063 849.29,367.9844 Q849.9775,369.0469 851.3213,369.0469 Q851.9463,369.0469 852.54,368.7813 Q853.1338,368.5 853.7588,367.9219 L853.7588,370.6406 Z " fill="#000000"/><text fill="#000000" font-family="sans-serif" font-size="14" lengthAdjust="spacing" textLength="51.1807" x="864.79" y="369.8467">Pasient</text></g><!--class Episode--><g class="entity" data-entity="Episode" data-source-line="11" data-uid="ent0005" id="entity_Episode"><rect fill="#FFFFFF" height="32" rx="2.5" ry="2.5" style="stroke:#000000;stroke-width:0.5;" width="86.9814" x="1388.89" y="116"/><ellipse cx="1403.89" cy="132" fill="#ADD1B2" rx="11" ry="11" style="stroke:#181818;stroke-width:1;"/><path d="M1406.8588,137.6406 Q1406.2806,137.9375 1405.64,138.0781 Q1404.9994,138.2344 1404.2963,138.2344 Q1401.7963,138.2344 1400.4681,136.5938 Q1399.1556,134.9375 1399.1556,131.8125 Q1399.1556,128.6875 1400.4681,127.0313 Q1401.7963,125.375 1404.2963,125.375 Q1404.9994,125.375 1405.64,125.5313 Q1406.2963,125.6875 1406.8588,125.9844 L1406.8588,128.7031 Q1406.2338,128.125 1405.64,127.8594 Q1405.0463,127.5781 1404.4213,127.5781 Q1403.0775,127.5781 1402.39,128.6563 Q1401.7025,129.7188 1401.7025,131.8125 Q1401.7025,133.9063 1402.39,134.9844 Q1403.0775,136.0469 1404.4213,136.0469 Q1405.0463,136.0469 1405.64,135.7813 Q1406.2338,135.5 1406.8588,134.9219 L1406.8588,137.6406 Z " fill="#000000"/><text fill="#000000" font-family="sans-serif" font-size="14" lengthAdjust="spacing" textLength="54.9814" x="1417.89" y="136.8467">Episode</text></g><!--class Organisasjon--><g class="entity" data-entity="Organisasjon" data-source-line="12" data-uid="ent0006" id="entity_Organisasjon"><rect fill="#FFFFFF" height="32" rx="2.5" ry="2.5" style="stroke:#000000;stroke-width:0.5;" width="123.499" x="1350.63" y="287"/><ellipse cx="1365.63" cy="303" fill="#ADD1B2" rx="11" ry="11" style="stroke:#181818;stroke-width:1;"/><path d="M1368.5988,308.6406 Q1368.0206,308.9375 1367.38,309.0781 Q1366.7394,309.2344 1366.0363,309.2344 Q1363.5363,309.2344 1362.2081,307.5938 Q1360.8956,305.9375 1360.8956,302.8125 Q1360.8956,299.6875 1362.2081,298.0313 Q1363.5363,296.375 1366.0363,296.375 Q1366.7394,296.375 1367.38,296.5313 Q1368.0363,296.6875 1368.5988,296.9844 L1368.5988,299.7031 Q1367.9738,299.125 1367.38,298.8594 Q1366.7863,298.5781 1366.1613,298.5781 Q1364.8175,298.5781 1364.13,299.6563 Q1363.4425,300.7188 1363.4425,302.8125 Q1363.4425,304.9063 1364.13,305.9844 Q1364.8175,307.0469 1366.1613,307.0469 Q1366.7863,307.0469 1367.38,306.7813 Q1367.9738,306.5 1368.5988,305.9219 L1368.5988,308.6406 Z " fill="#000000"/><text fill="#000000" font-family="sans-serif" font-size="14" lengthAdjust="spacing" textLength="91.499" x="1379.63" y="307.8467">Organisasjon</text></g><!--class Legemiddel--><g class="entity" data-entity="Legemiddel" data-source-line="13" data-uid="ent0007" id="entity_Legemiddel"><rect fill="#FFFFFF" height="32" rx="2.5" ry="2.5" style="stroke:#000000;stroke-width:0.5;" width="113.7168" x="1041.52" y="225"/><ellipse cx="1056.52" cy="241" fill="#ADD1B2" rx="11" ry="11" style="stroke:#181818;stroke-width:1;"/><path d="M1059.4888,246.6406 Q1058.9106,246.9375 1058.27,247.0781 Q1057.6294,247.2344 1056.9263,247.2344 Q1054.4263,247.2344 1053.0981,245.5938 Q1051.7856,243.9375 1051.7856,240.8125 Q1051.7856,237.6875 1053.0981,236.0313 Q1054.4263,234.375 1056.9263,234.375 Q1057.6294,234.375 1058.27,234.5313 Q1058.9263,234.6875 1059.4888,234.9844 L1059.4888,237.7031 Q1058.8638,237.125 1058.27,236.8594 Q1057.6763,236.5781 1057.0513,236.5781 Q1055.7075,236.5781 1055.02,237.6563 Q1054.3325,238.7188 1054.3325,240.8125 Q1054.3325,242.9063 1055.02,243.9844 Q1055.7075,245.0469 1057.0513,245.0469 Q1057.6763,245.0469 1058.27,244.7813 Q1058.8638,244.5 1059.4888,243.9219 L1059.4888,246.6406 Z " fill="#000000"/><text fill="#000000" font-family="sans-serif" font-size="14" lengthAdjust="spacing" textLength="81.7168" x="1070.52" y="245.8467">Legemiddel</text></g><!--class Substance--><g class="entity" data-entity="Substance" data-source-line="14" data-uid="ent0008" id="entity_Substance"><rect fill="#FFFFFF" height="32" rx="2.5" ry="2.5" style="stroke:#000000;stroke-width:0.5;" width="105.1924" x="965.78" y="349"/><ellipse cx="980.78" cy="365" fill="#ADD1B2" rx="11" ry="11" style="stroke:#181818;stroke-width:1;"/><path d="M983.7488,370.6406 Q983.1706,370.9375 982.53,371.0781 Q981.8894,371.2344 981.1863,371.2344 Q978.6863,371.2344 977.3581,369.5938 Q976.0456,367.9375 976.0456,364.8125 Q976.0456,361.6875 977.3581,360.0313 Q978.6863,358.375 981.1863,358.375 Q981.8894,358.375 982.53,358.5313 Q983.1863,358.6875 983.7488,358.9844 L983.7488,361.7031 Q983.1238,361.125 982.53,360.8594 Q981.9363,360.5781 981.3113,360.5781 Q979.9675,360.5781 979.28,361.6563 Q978.5925,362.7188 978.5925,364.8125 Q978.5925,366.9063 979.28,367.9844 Q979.9675,369.0469 981.3113,369.0469 Q981.9363,369.0469 982.53,368.7813 Q983.1238,368.5 983.7488,367.9219 L983.7488,370.6406 Z " fill="#000000"/><text fill="#000000" font-family="sans-serif" font-size="14" lengthAdjust="spacing" textLength="73.1924" x="994.78" y="369.8467">Substance</text></g><!--class Legemiddeladministrering--><g class="entity" data-entity="Legemiddeladministrering" data-source-line="15" data-uid="ent0009" id="entity_Legemiddeladministrering"><rect fill="#FFFFFF" height="32" rx="2.5" ry="2.5" style="stroke:#000000;stroke-width:0.5;" width="216.0303" x="852.36" y="7"/><ellipse cx="867.36" cy="23" fill="#ADD1B2" rx="11" ry="11" style="stroke:#181818;stroke-width:1;"/><path d="M870.3288,28.6406 Q869.7506,28.9375 869.11,29.0781 Q868.4694,29.2344 867.7663,29.2344 Q865.2663,29.2344 863.9381,27.5938 Q862.6256,25.9375 862.6256,22.8125 Q862.6256,19.6875 863.9381,18.0313 Q865.2663,16.375 867.7663,16.375 Q868.4694,16.375 869.11,16.5313 Q869.7663,16.6875 870.3288,16.9844 L870.3288,19.7031 Q869.7038,19.125 869.11,18.8594 Q868.5163,18.5781 867.8913,18.5781 Q866.5475,18.5781 865.86,19.6563 Q865.1725,20.7188 865.1725,22.8125 Q865.1725,24.9063 865.86,25.9844 Q866.5475,27.0469 867.8913,27.0469 Q868.5163,27.0469 869.11,26.7813 Q869.7038,26.5 870.3288,25.9219 L870.3288,28.6406 Z " fill="#000000"/><text fill="#000000" font-family="sans-serif" font-size="14" lengthAdjust="spacing" textLength="184.0303" x="881.36" y="27.8467">Legemiddeladministrering</text></g><!--class Legemiddelrekvirering--><g class="entity" data-entity="Legemiddelrekvirering" data-source-line="16" data-uid="ent0010" id="entity_Legemiddelrekvirering"><rect fill="#FFFFFF" height="32" rx="2.5" ry="2.5" style="stroke:#000000;stroke-width:0.5;" width="190.1426" x="865.31" y="116"/><ellipse cx="880.31" cy="132" fill="#ADD1B2" rx="11" ry="11" style="stroke:#181818;stroke-width:1;"/><path d="M883.2788,137.6406 Q882.7006,137.9375 882.06,138.0781 Q881.4194,138.2344 880.7163,138.2344 Q878.2163,138.2344 876.8881,136.5938 Q875.5756,134.9375 875.5756,131.8125 Q875.5756,128.6875 876.8881,127.0313 Q878.2163,125.375 880.7163,125.375 Q881.4194,125.375 882.06,125.5313 Q882.7163,125.6875 883.2788,125.9844 L883.2788,128.7031 Q882.6538,128.125 882.06,127.8594 Q881.4663,127.5781 880.8413,127.5781 Q879.4975,127.5781 878.81,128.6563 Q878.1225,129.7188 878.1225,131.8125 Q878.1225,133.9063 878.81,134.9844 Q879.4975,136.0469 880.8413,136.0469 Q881.4663,136.0469 882.06,135.7813 Q882.6538,135.5 883.2788,134.9219 L883.2788,137.6406 Z " fill="#000000"/><text fill="#000000" font-family="sans-serif" font-size="14" lengthAdjust="spacing" textLength="158.1426" x="894.31" y="136.8467">Legemiddelrekvirering</text></g><!--class Helsepersonell--><g class="entity" data-entity="Helsepersonell" data-source-line="17" data-uid="ent0011" id="entity_Helsepersonell"><rect fill="#FFFFFF" height="32" rx="2.5" ry="2.5" style="stroke:#000000;stroke-width:0.5;" width="135.3184" x="1142.72" y="287"/><ellipse cx="1157.72" cy="303" fill="#ADD1B2" rx="11" ry="11" style="stroke:#181818;stroke-width:1;"/><path d="M1160.6888,308.6406 Q1160.1106,308.9375 1159.47,309.0781 Q1158.8294,309.2344 1158.1263,309.2344 Q1155.6263,309.2344 1154.2981,307.5938 Q1152.9856,305.9375 1152.9856,302.8125 Q1152.9856,299.6875 1154.2981,298.0313 Q1155.6263,296.375 1158.1263,296.375 Q1158.8294,296.375 1159.47,296.5313 Q1160.1263,296.6875 1160.6888,296.9844 L1160.6888,299.7031 Q1160.0638,299.125 1159.47,298.8594 Q1158.8763,298.5781 1158.2513,298.5781 Q1156.9075,298.5781 1156.22,299.6563 Q1155.5325,300.7188 1155.5325,302.8125 Q1155.5325,304.9063 1156.22,305.9844 Q1156.9075,307.0469 1158.2513,307.0469 Q1158.8763,307.0469 1159.47,306.7813 Q1160.0638,306.5 1160.6888,305.9219 L1160.6888,308.6406 Z " fill="#000000"/><text fill="#000000" font-family="sans-serif" font-size="14" lengthAdjust="spacing" textLength="103.3184" x="1171.72" y="307.8467">Helsepersonell</text></g><!--class LmdiMunicipalitycode--><g class="entity" data-entity="LmdiMunicipalitycode" data-source-line="18" data-uid="ent0012" id="entity_LmdiMunicipalitycode"><rect fill="#FFFFFF" height="32" rx="2.5" ry="2.5" style="stroke:#000000;stroke-width:0.5;" width="184.2979" x="259.23" y="7"/><ellipse cx="274.23" cy="23" fill="#ADD1B2" rx="11" ry="11" style="stroke:#181818;stroke-width:1;"/><path d="M277.1988,28.6406 Q276.6206,28.9375 275.98,29.0781 Q275.3394,29.2344 274.6363,29.2344 Q272.1363,29.2344 270.8081,27.5938 Q269.4956,25.9375 269.4956,22.8125 Q269.4956,19.6875 270.8081,18.0313 Q272.1363,16.375 274.6363,16.375 Q275.3394,16.375 275.98,16.5313 Q276.6363,16.6875 277.1988,16.9844 L277.1988,19.7031 Q276.5738,19.125 275.98,18.8594 Q275.3863,18.5781 274.7613,18.5781 Q273.4175,18.5781 272.73,19.6563 Q272.0425,20.7188 272.0425,22.8125 Q272.0425,24.9063 272.73,25.9844 Q273.4175,27.0469 274.7613,27.0469 Q275.3863,27.0469 275.98,26.7813 Q276.5738,26.5 277.1988,25.9219 L277.1988,28.6406 Z " fill="#000000"/><text fill="#000000" font-family="sans-serif" font-size="14" lengthAdjust="spacing" textLength="152.2979" x="288.23" y="27.8467">LmdiMunicipalitycode</text></g><!--class Organization--><g class="entity" data-entity="Organization" data-source-line="19" data-uid="ent0013" id="entity_Organization"><rect fill="#FFFFFF" height="32" rx="2.5" ry="2.5" style="stroke:#000000;stroke-width:0.5;" width="121.749" x="1149.5" y="458"/><ellipse cx="1164.5" cy="474" fill="#ADD1B2" rx="11" ry="11" style="stroke:#181818;stroke-width:1;"/><path d="M1167.4688,479.6406 Q1166.8906,479.9375 1166.25,480.0781 Q1165.6094,480.2344 1164.9063,480.2344 Q1162.4063,480.2344 1161.0781,478.5938 Q1159.7656,476.9375 1159.7656,473.8125 Q1159.7656,470.6875 1161.0781,469.0313 Q1162.4063,467.375 1164.9063,467.375 Q1165.6094,467.375 1166.25,467.5313 Q1166.9063,467.6875 1167.4688,467.9844 L1167.4688,470.7031 Q1166.8438,470.125 1166.25,469.8594 Q1165.6563,469.5781 1165.0313,469.5781 Q1163.6875,469.5781 1163,470.6563 Q1162.3125,471.7188 1162.3125,473.8125 Q1162.3125,475.9063 1163,476.9844 Q1163.6875,478.0469 1165.0313,478.0469 Q1165.6563,478.0469 1166.25,477.7813 Q1166.8438,477.5 1167.4688,476.9219 L1167.4688,479.6406 Z " fill="#000000"/><text fill="#000000" font-family="sans-serif" font-size="14" lengthAdjust="spacing" textLength="89.749" x="1178.5" y="478.8467">Organization</text></g><!--class LmdiUrbanDistrict--><g class="entity" data-entity="LmdiUrbanDistrict" data-source-line="20" data-uid="ent0014" id="entity_LmdiUrbanDistrict"><rect fill="#FFFFFF" height="32" rx="2.5" ry="2.5" style="stroke:#000000;stroke-width:0.5;" width="158.8408" x="35.96" y="116"/><ellipse cx="50.96" cy="132" fill="#ADD1B2" rx="11" ry="11" style="stroke:#181818;stroke-width:1;"/><path d="M53.9288,137.6406 Q53.3506,137.9375 52.71,138.0781 Q52.0694,138.2344 51.3663,138.2344 Q48.8663,138.2344 47.5381,136.5938 Q46.2256,134.9375 46.2256,131.8125 Q46.2256,128.6875 47.5381,127.0313 Q48.8663,125.375 51.3663,125.375 Q52.0694,125.375 52.71,125.5313 Q53.3663,125.6875 53.9288,125.9844 L53.9288,128.7031 Q53.3038,128.125 52.71,127.8594 Q52.1163,127.5781 51.4913,127.5781 Q50.1475,127.5781 49.46,128.6563 Q48.7725,129.7188 48.7725,131.8125 Q48.7725,133.9063 49.46,134.9844 Q50.1475,136.0469 51.4913,136.0469 Q52.1163,136.0469 52.71,135.7813 Q53.3038,135.5 53.9288,134.9219 L53.9288,137.6406 Z " fill="#000000"/><text fill="#000000" font-family="sans-serif" font-size="14" lengthAdjust="spacing" textLength="126.8408" x="64.96" y="136.8467">LmdiUrbanDistrict</text></g><!--class LokalLegemiddelkatalogExtension--><g class="entity" data-entity="LokalLegemiddelkatalogExtension" data-source-line="21" data-uid="ent0015" id="entity_LokalLegemiddelkatalogExtension"><rect fill="#FFFFFF" height="32" rx="2.5" ry="2.5" style="stroke:#000000;stroke-width:0.5;" width="271.4834" x="229.64" y="116"/><ellipse cx="244.64" cy="132" fill="#ADD1B2" rx="11" ry="11" style="stroke:#181818;stroke-width:1;"/><path d="M247.6088,137.6406 Q247.0306,137.9375 246.39,138.0781 Q245.7494,138.2344 245.0463,138.2344 Q242.5463,138.2344 241.2181,136.5938 Q239.9056,134.9375 239.9056,131.8125 Q239.9056,128.6875 241.2181,127.0313 Q242.5463,125.375 245.0463,125.375 Q245.7494,125.375 246.39,125.5313 Q247.0463,125.6875 247.6088,125.9844 L247.6088,128.7031 Q246.9838,128.125 246.39,127.8594 Q245.7963,127.5781 245.1713,127.5781 Q243.8275,127.5781 243.14,128.6563 Q242.4525,129.7188 242.4525,131.8125 Q242.4525,133.9063 243.14,134.9844 Q243.8275,136.0469 245.1713,136.0469 Q245.7963,136.0469 246.39,135.7813 Q246.9838,135.5 247.6088,134.9219 L247.6088,137.6406 Z " fill="#000000"/><text fill="#000000" font-family="sans-serif" font-size="14" lengthAdjust="spacing" textLength="239.4834" x="258.64" y="136.8467">LokalLegemiddelkatalogExtension</text></g><!--link Diagnose to Pasient--><g class="link" data-entity-1="Diagnose" data-entity-2="Pasient" data-source-line="23" data-uid="lnk16" id="link_Diagnose_Pasient"><path codeLine="23" d="M843.32,257.45 C850.82,280.92 863.1724,319.5651 870.6524,342.9551 " fill="none" id="Diagnose-to-Pasient" style="stroke:#000000;stroke-width:1;"/><polygon fill="#000000" points="872.48,348.67,873.5485,338.8793,870.957,343.9076,865.9287,341.3161,872.48,348.67" style="stroke:#000000;stroke-width:1;"/><text fill="#000000" font-family="sans-serif" font-size="13" lengthAdjust="spacing" textLength="47.1187" x="864.38" y="307.5669">subject</text><text fill="#000000" font-family="sans-serif" font-size="13" lengthAdjust="spacing" textLength="24.8066" x="817.198" y="277.1721">1..1</text></g><!--link Episode to Organisasjon--><g class="link" data-entity-1="Episode" data-entity-2="Organisasjon" data-source-line="24" data-uid="lnk17" id="link_Episode_Organisasjon"><path codeLine="24" d="M1430.57,148.3 C1426.76,180.47 1418.6648,248.8615 1414.8748,280.9015 " fill="none" id="Episode-to-Organisasjon" style="stroke:#000000;stroke-width:1;"/><polygon fill="#000000" points="1414.17,286.86,1419.1995,278.3922,1414.7574,281.8946,1411.2549,277.4524,1414.17,286.86" style="stroke:#000000;stroke-width:1;"/><text fill="#000000" font-family="sans-serif" font-size="13" lengthAdjust="spacing" textLength="100.604" x="1427.38" y="191.0669">serviceProvider</text><text fill="#000000" font-family="sans-serif" font-size="13" lengthAdjust="spacing" textLength="24.8066" x="1402.2964" y="167.9743">0..1</text></g><!--link Legemiddel to Substance--><g class="link" data-entity-1="Legemiddel" data-entity-2="Substance" data-source-line="25" data-uid="lnk18" id="link_Legemiddel_Substance"><path codeLine="25" d="M1042.7,257.33 C1028.43,264.05 1014.76,273.58 1006.38,287 C994.63,305.82 1000.3939,326.6602 1007.8239,343.1402 " fill="none" id="Legemiddel-to-Substance" style="stroke:#000000;stroke-width:1;"/><polygon fill="#000000" points="1010.29,348.61,1010.2374,338.7613,1008.235,344.0518,1002.9444,342.0494,1010.29,348.61" style="stroke:#000000;stroke-width:1;"/><text fill="#000000" font-family="sans-serif" font-size="13" lengthAdjust="spacing" textLength="117.9839" x="1007.38" y="307.5669">ingredient.item[x]</text><text fill="#000000" font-family="sans-serif" font-size="13" lengthAdjust="spacing" textLength="24.8066" x="1008.819" y="272.9067">1..1</text></g><!--link Legemiddeladministrering to Legemiddel--><g class="link" data-entity-1="Legemiddeladministrering" data-entity-2="Legemiddel" data-source-line="26" data-uid="lnk19" id="link_Legemiddeladministrering_Legemiddel"><path codeLine="26" d="M1063.16,39.47 C1113.8,52.09 1172.06,74.9 1210.38,116 C1234.93,142.34 1249.27,165.67 1228.38,195 C1211.82,218.25 1188.2769,228.3907 1161.5969,233.8807 " fill="none" id="Legemiddeladministrering-to-Legemiddel" style="stroke:#000000;stroke-width:1;"/><polygon fill="#000000" points="1155.72,235.09,1165.3415,237.194,1160.6174,234.0823,1163.7291,229.3581,1155.72,235.09" style="stroke:#000000;stroke-width:1;"/><text fill="#000000" font-family="sans-serif" font-size="13" lengthAdjust="spacing" textLength="90.3779" x="1234.38" y="136.5669">medication[x]</text><text fill="#000000" font-family="sans-serif" font-size="13" lengthAdjust="spacing" textLength="24.8066" x="1068.2262" y="59.1985">1..1</text></g><!--link Legemiddeladministrering to Pasient--><g class="link" data-entity-1="Legemiddeladministrering" data-entity-2="Pasient" data-source-line="27" data-uid="lnk20" id="link_Legemiddeladministrering_Pasient"><path codeLine="27" d="M924.14,39.5 C876.6,62.07 795.24,108.97 761.38,178 C728.69,244.63 808.281,314.109 850.361,345.139 " fill="none" id="Legemiddeladministrering-to-Pasient" style="stroke:#000000;stroke-width:1;"/><polygon fill="#000000" points="855.19,348.7,850.3204,340.1392,851.1658,345.7325,845.5725,346.5779,855.19,348.7" style="stroke:#000000;stroke-width:1;"/><text fill="#000000" font-family="sans-serif" font-size="13" lengthAdjust="spacing" textLength="47.1187" x="762.38" y="191.0669">subject</text><text fill="#000000" font-family="sans-serif" font-size="13" lengthAdjust="spacing" textLength="24.8066" x="885.4915" y="58.9372">1..1</text></g><!--link Legemiddeladministrering to Episode--><g class="link" data-entity-1="Legemiddeladministrering" data-entity-2="Episode" data-source-line="28" data-uid="lnk21" id="link_Legemiddeladministrering_Episode"><path codeLine="28" d="M1068.59,31.45 C1133.26,37.72 1216.53,49 1288.38,69 C1329.68,80.49 1369.2983,98.6169 1397.8083,112.9369 " fill="none" id="Legemiddeladministrering-to-Episode" style="stroke:#000000;stroke-width:1;"/><polygon fill="#000000" points="1403.17,115.63,1396.9229,108.016,1398.7019,113.3858,1393.3321,115.1649,1403.17,115.63" style="stroke:#000000;stroke-width:1;"/><text fill="#000000" font-family="sans-serif" font-size="13" lengthAdjust="spacing" textLength="49.2261" x="1337.38" y="82.0669">context</text><text fill="#000000" font-family="sans-serif" font-size="13" lengthAdjust="spacing" textLength="24.8066" x="1076.3171" y="28.582">0..1</text></g><!--link Legemiddeladministrering to Diagnose--><g class="link" data-entity-1="Legemiddeladministrering" data-entity-2="Diagnose" data-source-line="29" data-uid="lnk22" id="link_Legemiddeladministrering_Diagnose"><path codeLine="29" d="M852.19,31.14 C794.07,37.3 730.33,48.57 710.38,69 C670.89,109.42 659.86,149.51 693.38,195 C715.19,224.6 750.3158,234.6554 783.2058,238.2654 " fill="none" id="Legemiddeladministrering-to-Diagnose" style="stroke:#000000;stroke-width:1;"/><polygon fill="#000000" points="789.17,238.92,780.6601,233.9619,784.1998,238.3745,779.7873,241.9142,789.17,238.92" style="stroke:#000000;stroke-width:1;"/><text fill="#000000" font-family="sans-serif" font-size="13" lengthAdjust="spacing" textLength="110.6079" x="679.38" y="136.5669">reasonReference</text><text fill="#000000" font-family="sans-serif" font-size="13" lengthAdjust="spacing" textLength="23.0356" x="821.1499" y="28.2544">0..*</text></g><!--link Legemiddeladministrering to Legemiddelrekvirering--><g class="link" data-entity-1="Legemiddeladministrering" data-entity-2="Legemiddelrekvirering" data-source-line="30" data-uid="lnk23" id="link_Legemiddeladministrering_Legemiddelrekvirering"><path codeLine="30" d="M960.38,39.33 C960.38,59.67 960.38,89.37 960.38,109.7 " fill="none" id="Legemiddeladministrering-to-Legemiddelrekvirering" style="stroke:#000000;stroke-width:1;"/><polygon fill="#000000" points="960.38,115.7,964.38,106.7,960.38,110.7,956.38,106.7,960.38,115.7" style="stroke:#000000;stroke-width:1;"/><text fill="#000000" font-family="sans-serif" font-size="13" lengthAdjust="spacing" textLength="49.7021" x="961.38" y="82.0669">request</text><text fill="#000000" font-family="sans-serif" font-size="13" lengthAdjust="spacing" textLength="24.8066" x="932.6851" y="59.0139">0..1</text></g><!--link Legemiddelrekvirering to Legemiddel--><g class="link" data-entity-1="Legemiddelrekvirering" data-entity-2="Legemiddel" data-source-line="31" data-uid="lnk24" id="link_Legemiddelrekvirering_Legemiddel"><path codeLine="31" d="M979.8,148.36 C995.75,160.96 1018.97,179.21 1039.38,195 C1052.22,204.93 1061.9327,212.3599 1073.3427,221.0299 " fill="none" id="Legemiddelrekvirering-to-Legemiddel" style="stroke:#000000;stroke-width:1;"/><polygon fill="#000000" points="1078.12,224.66,1073.3741,216.03,1074.1389,221.6349,1068.534,222.3998,1078.12,224.66" style="stroke:#000000;stroke-width:1;"/><text fill="#000000" font-family="sans-serif" font-size="13" lengthAdjust="spacing" textLength="90.3779" x="1040.38" y="191.0669">medication[x]</text><text fill="#000000" font-family="sans-serif" font-size="13" lengthAdjust="spacing" textLength="24.8066" x="989.9433" y="168.0534">1..1</text></g><!--link Legemiddelrekvirering to Pasient--><g class="link" data-entity-1="Legemiddelrekvirering" data-entity-2="Pasient" data-source-line="32" data-uid="lnk25" id="link_Legemiddelrekvirering_Pasient"><path codeLine="32" d="M959.86,148.42 C958.18,181.55 951,261.21 920.38,319 C914.41,330.27 909.2129,336.634 900.5929,344.614 " fill="none" id="Legemiddelrekvirering-to-Pasient" style="stroke:#000000;stroke-width:1;"/><polygon fill="#000000" points="896.19,348.69,905.5118,345.5112,899.8591,345.2933,900.0771,339.6406,896.19,348.69" style="stroke:#000000;stroke-width:1;"/><text fill="#000000" font-family="sans-serif" font-size="13" lengthAdjust="spacing" textLength="47.1187" x="952.38" y="245.5669">subject</text><text fill="#000000" font-family="sans-serif" font-size="13" lengthAdjust="spacing" textLength="24.8066" x="931.9974" y="168.1326">1..1</text></g><!--link Legemiddelrekvirering to Helsepersonell--><g class="link" data-entity-1="Legemiddelrekvirering" data-entity-2="Helsepersonell" data-source-line="33" data-uid="lnk26" id="link_Legemiddelrekvirering_Helsepersonell"><path codeLine="33" d="M1055.86,145.77 C1083.08,152.44 1111.73,162.58 1135.38,178 C1175.42,204.11 1195.5089,254.0562 1204.1489,281.0162 " fill="none" id="Legemiddelrekvirering-to-Helsepersonell" style="stroke:#000000;stroke-width:1;"/><polygon fill="#000000" points="1205.98,286.73,1207.0425,276.9386,1204.4541,281.9685,1199.4242,279.3801,1205.98,286.73" style="stroke:#000000;stroke-width:1;"/><text fill="#000000" font-family="sans-serif" font-size="13" lengthAdjust="spacing" textLength="63.0449" x="1156.38" y="191.0669">requester</text><text fill="#000000" font-family="sans-serif" font-size="13" lengthAdjust="spacing" textLength="24.8066" x="1063.4455" y="143.2824">1..1</text></g><!--link Legemiddelrekvirering to Diagnose--><g class="link" data-entity-1="Legemiddelrekvirering" data-entity-2="Diagnose" data-source-line="34" data-uid="lnk27" id="link_Legemiddelrekvirering_Diagnose"><path codeLine="34" d="M865.15,146.71 C848.4,153.47 832.96,163.42 822.38,178 C812.39,191.77 817.0395,206.0299 824.8295,219.4599 " fill="none" id="Legemiddelrekvirering-to-Diagnose" style="stroke:#000000;stroke-width:1;"/><polygon fill="#000000" points="827.84,224.65,826.7843,214.8579,825.3313,220.3249,819.8642,218.8719,827.84,224.65" style="stroke:#000000;stroke-width:1;"/><text fill="#000000" font-family="sans-serif" font-size="13" lengthAdjust="spacing" textLength="110.6079" x="823.38" y="191.0669">reasonReference</text><text fill="#000000" font-family="sans-serif" font-size="13" lengthAdjust="spacing" textLength="23.0356" x="834.3132" y="144.3113">0..*</text></g><!--link Legemiddelrekvirering to Legemiddelrekvirering--><g class="link" data-entity-1="Legemiddelrekvirering" data-entity-2="Legemiddelrekvirering" data-source-line="35" data-uid="lnk28" id="link_Legemiddelrekvirering_Legemiddelrekvirering"><path codeLine="35" d="M1055.95,122.13 C1076,123.15 1090.45,126.44 1090.45,132 C1090.45,137.56 1081.9923,140.5452 1061.9423,141.5652 " fill="none" id="Legemiddelrekvirering-to-Legemiddelrekvirering" style="stroke:#000000;stroke-width:1;"/><polygon fill="#000000" points="1055.95,141.87,1065.1416,145.4076,1060.9435,141.616,1064.7351,137.4179,1055.95,141.87" style="stroke:#000000;stroke-width:1;"/><text fill="#000000" font-family="sans-serif" font-size="13" lengthAdjust="spacing" textLength="107.7197" x="1096.45" y="136.5669">priorPrescription</text><text fill="#000000" font-family="sans-serif" font-size="13" lengthAdjust="spacing" textLength="24.8066" x="1063.5418" y="117.9802">0..1</text></g><!--link Organisasjon to Organization--><g class="link" data-entity-1="Organisasjon" data-entity-2="Organization" data-source-line="36" data-uid="lnk29" id="link_Organisasjon_Organization"><path codeLine="36" d="M1398.99,319.23 C1384.5,335.33 1360.39,361.11 1337.38,381 C1303.39,410.38 1265.4573,436.7793 1239.2273,454.2093 " fill="none" id="Organisasjon-to-Organization" style="stroke:#000000;stroke-width:1;"/><polygon fill="#000000" points="1234.23,457.53,1243.9397,455.8804,1238.3944,454.7627,1239.5121,449.2174,1234.23,457.53" style="stroke:#000000;stroke-width:1;"/><text fill="#000000" font-family="sans-serif" font-size="13" lengthAdjust="spacing" textLength="117.4316" x="1371.38" y="369.5669">identifier.assigner</text><text fill="#000000" font-family="sans-serif" font-size="13" lengthAdjust="spacing" textLength="24.8066" x="1366.7133" y="339.1795">0..1</text></g><!--link Organisasjon to Organisasjon--><g class="link" data-entity-1="Organisasjon" data-entity-2="Organisasjon" data-source-line="37" data-uid="lnk30" id="link_Organisasjon_Organisasjon"><path codeLine="37" d="M1474.26,291.38 C1493.75,291.56 1509.13,295.43 1509.13,303 C1509.13,310.57 1499.7497,314.3846 1480.2597,314.5646 " fill="none" id="Organisasjon-to-Organisasjon" style="stroke:#000000;stroke-width:1;"/><polygon fill="#000000" points="1474.26,314.62,1483.2966,318.5367,1479.2598,314.5738,1483.2227,310.5371,1474.26,314.62" style="stroke:#000000;stroke-width:1;"/><text fill="#000000" font-family="sans-serif" font-size="13" lengthAdjust="spacing" textLength="41.4692" x="1515.13" y="307.5669">partOf</text><text fill="#000000" font-family="sans-serif" font-size="13" lengthAdjust="spacing" textLength="24.8066" x="1481.9205" y="286.482">0..1</text></g><!--link Pasient to Organization--><g class="link" data-entity-1="Pasient" data-entity-2="Organization" data-source-line="38" data-uid="lnk31" id="link_Pasient_Organization"><path codeLine="38" d="M919.12,380 C957.18,392.71 1014.97,411.87 1065.38,428 C1096.76,438.04 1126.3253,447.2456 1154.2453,455.8356 " fill="none" id="Pasient-to-Organization" style="stroke:#000000;stroke-width:1;"/><polygon fill="#000000" points="1159.98,457.6,1152.5542,451.1303,1155.2011,456.1297,1150.2017,458.7766,1159.98,457.6" style="stroke:#000000;stroke-width:1;"/><text fill="#000000" font-family="sans-serif" font-size="13" lengthAdjust="spacing" textLength="117.4316" x="1066.38" y="424.0669">identifier.assigner</text><text fill="#000000" font-family="sans-serif" font-size="13" lengthAdjust="spacing" textLength="24.8066" x="927.0723" y="378.1782">0..1</text></g><!--link Helsepersonell to Organization--><g class="link" data-entity-1="Helsepersonell" data-entity-2="Organization" data-source-line="39" data-uid="lnk32" id="link_Helsepersonell_Organization"><path codeLine="39" d="M1210.38,319.3 C1210.38,351.47 1210.38,419.82 1210.38,451.86 " fill="none" id="Helsepersonell-to-Organization" style="stroke:#000000;stroke-width:1;"/><polygon fill="#000000" points="1210.38,457.86,1214.38,448.86,1210.38,452.86,1206.38,448.86,1210.38,457.86" style="stroke:#000000;stroke-width:1;"/><text fill="#000000" font-family="sans-serif" font-size="13" lengthAdjust="spacing" textLength="117.4316" x="1211.38" y="369.5669">identifier.assigner</text><text fill="#000000" font-family="sans-serif" font-size="13" lengthAdjust="spacing" textLength="24.8066" x="1182.6838" y="338.9743">0..1</text></g><!--SRC=[bPHDJ-Cm48Rl_XLMZaXKsoi7fEs2nA68Qj6A0zg3Qq_347zanqufhFZlJ9gcIVe1D3Txvdrd_7YS9pGWmPNfLJfmSw0eOe6-LAISr5R5AFyBoTz4wIAdK7dpAzX0yk494wmZFud2IxCviPpLf0SoGFtTTo4QlodauD0Oi0GvnWGqOLSBc_0Lgjo7s2vdAYBuj5bTbnY3QMDtb2kFKSNduFVCDnltrJmcvJNi9IZZaDM9WD3d1vehbZY8tO2DK3AYuC6s_bDdyBRogB5K5jEhtctlJINiskFiFpHN_gekZBezrpGKodQr2vMK3VdrAe6FjLgqL6Gs7et6cJm_lspHo0kPnMh-33fbOWD8PZ-sQNrAwroW9MgOKLZovLCckhfzzosuMiCG24nTRSJNxXvNV_ko8Sc-IS-QNHnRw3MERniSEkDnNNVebWFhTF09Lb_fpXhTbZCB2HHVzMzO005p-5xXWmFKkFsh80xQw6US3ks8-dDYHqJ3qUwrEvoFWVfaQBlghuYLX85c154JbZM0J0ncUM_6cwUsdbV32721G2D-NfZx-XoVYxi7mZ-_TBV8H4lor3exC4-KVm00]--></g></svg>