<?xml version="1.0" encoding="utf-8"?>
<!-- Generator: Adobe Illustrator 28.0.0, SVG Export Plug-In . SVG Version: 6.00 Build 0)  -->
<svg version="1.1" id="Layer_1" xmlns="http://www.w3.org/2000/svg" xmlns:xlink="http://www.w3.org/1999/xlink" x="0px" y="0px"
	 viewBox="0 0 386.4 250" style="enable-background:new 0 0 386.4 250;" xml:space="preserve">
<style type="text/css">
	.st0{fill:#393C61;}
</style>
<path class="st0" d="M103.5,70.8c-0.4,4.2-4.1,7.3-8.3,6.9c-4.2-0.4-7.3-4.1-6.9-8.3c0.4-4.2,4.1-7.3,8.3-6.9
	C100.8,62.9,103.9,66.6,103.5,70.8 M105.1,60.6L105.1,60.6L105.1,60.6c-11.6-11.7-34.9-14.4-80.2,5.2c-0.2,0.1-0.9,0.4-0.9,0.4
	c-1.2,0.8-2,2.1-2,3.6c0,2.3,1.9,4.4,4.2,4.2c0.8-0.1,1.3-0.3,2-0.6C34.9,71,67.6,62,84.9,77.6c0.6,0.5,1.1,0.9,1.6,1.4s1,1,1.4,1.6
	c15.5,17.3,6.6,50.1,4.1,56.7c-0.2,0.7-0.5,1.3-0.6,2c-0.2,2.3,1.9,4.2,4.2,4.2c1.5,0,2.8-0.8,3.6-2c0,0,0.3-0.6,0.4-0.9
	C119.4,95.6,116.8,72.2,105.1,60.6"/>
<path class="st0" d="M127.6,48.7c-0.5,5.4-5.3,9.5-10.8,9c-5.4-0.5-9.5-5.3-9-10.8c0.5-5.4,5.3-9.5,10.7-9S128.1,43.3,127.6,48.7"/>
<path class="st0" d="M82.5,89.1c-0.2,2.8-2.8,5-5.6,4.7c-2.8-0.2-5-2.8-4.7-5.6c0.2-2.8,2.8-4.9,5.6-4.7
	C80.7,83.8,82.8,86.3,82.5,89.1"/>
<path class="st0" d="M67.9,102.3c-0.2,2.2-2.1,3.7-4.2,3.5c-2.1-0.2-3.7-2.1-3.5-4.2s2.1-3.7,4.2-3.5
	C66.5,98.2,68.1,100.1,67.9,102.3"/>
<path class="st0" d="M262.8,61.2h-9.3c-1.3,0-2.3,1.2-2.3,2.7v31.2H219V63.8c0-1.5-1-2.7-2.3-2.7h-9.4c-1.2,0-2.3,1.2-2.3,2.7v79
	c0,1.4,1.1,2.7,2.3,2.7h9.4c1.3,0,2.3-1.2,2.3-2.7v-32.5h32.2v32.5c0,1.5,1,2.7,2.3,2.7h9.3c1.2,0,2.3-1.2,2.3-2.7v-79
	C265.2,62.4,264.1,61.2,262.8,61.2L262.8,61.2z"/>
<path class="st0" d="M194.9,61.2h-41.2c-1.3,0-2.3,1.2-2.3,2.7v79c0,1.5,1.1,2.7,2.3,2.7h9.3c1.2,0,2.3-1.2,2.3-2.7v-32.5H190
	c1.2,0,2.3-1.2,2.3-2.7v-9.8c0-1.4-1.1-2.7-2.3-2.7h-24.6V76.3H195c1.3,0,2.3-1.2,2.3-2.7v-9.8C197.3,62.4,196.2,61.2,194.9,61.2
	L194.9,61.2z"/>
<path class="st0" d="M292.7,61.2h-9.4c-1.2,0-2.3,1.2-2.3,2.7v79c0,1.4,1.1,2.7,2.3,2.7h9.4c1.2,0,2.3-1.2,2.3-2.7v-79
	C295,62.4,293.9,61.2,292.7,61.2L292.7,61.2z"/>
<rect x="59.6" y="160.9" class="st0" width="291.2" height="0.6"/>
<path class="st0" d="M59.6,173.6c0-0.3,0.3-0.6,0.6-0.6h12.9c0.4,0,0.6,0.3,0.6,0.6v1.8c0,0.3-0.3,0.6-0.6,0.6H62.9v7.5h8.6
	c0.3,0,0.6,0.3,0.6,0.6v1.8c0,0.3-0.3,0.6-0.6,0.6h-8.7v8.5c0,0.3-0.3,0.6-0.6,0.6h-2.1c-0.4,0-0.6-0.3-0.6-0.6L59.6,173.6
	L59.6,173.6z"/>
<path class="st0" d="M81.4,180.4c4.2,0,7.6,3.6,7.6,7.8s-3.4,7.9-7.6,7.9s-7.6-3.6-7.6-7.9S77.2,180.4,81.4,180.4z M81.4,192.9
	c2.5,0,4.4-2,4.4-4.8s-1.9-4.7-4.4-4.7s-4.5,2-4.5,4.7S78.8,192.9,81.4,192.9z"/>
<path class="st0" d="M92.2,173.7c0-0.4,0.3-0.7,0.7-0.7h1.8c0.4,0,0.7,0.4,0.7,0.7v21.2c0,0.4-0.4,0.7-0.7,0.7h-1.8
	c-0.4,0-0.7-0.3-0.7-0.7V173.7z"/>
<path class="st0" d="M101,173.7c0-0.4,0.3-0.7,0.7-0.7h1.8c0.4,0,0.7,0.4,0.7,0.7v12.7l5.8-5.2c0.3-0.2,0.6-0.4,0.9-0.4h2.4
	c0.7,0,0.7,0.7,0.4,1l-6.1,5.7l6.3,7.2c0.3,0.4,0.2,1-0.4,1h-2.7c-0.3,0-0.6-0.1-0.7-0.3l-6-7v6.5c0,0.4-0.4,0.7-0.7,0.7h-1.8
	c-0.4,0-0.7-0.3-0.7-0.7L101,173.7L101,173.7z"/>
<path class="st0" d="M123.5,180.4c3.9,0,6.8,2.9,6.8,6.9c0,0.3,0,0.8-0.1,1c0,0.4-0.4,0.6-0.7,0.6h-10.3c0,2,1.8,4.1,4.5,4.1
	c1.7,0,2.8-0.6,3.7-1.3c0.3-0.2,0.6-0.3,0.9,0.1l0.9,1.4c0.3,0.3,0.4,0.6-0.1,1c-1.1,0.9-3,1.9-5.5,1.9c-4.5,0-7.5-3.6-7.5-7.8
	S119,180.4,123.5,180.4z M127.2,186.5c-0.1-1.8-1.5-3.4-3.7-3.4c-2.4,0-3.8,1.5-4,3.4H127.2L127.2,186.5z"/>
<path class="st0" d="M134.2,173.7c0-0.4,0.3-0.7,0.7-0.7h1.8c0.4,0,0.7,0.4,0.7,0.7v8.2c0.4-0.3,2-1.6,4.3-1.6c4.2,0,5.8,3,5.8,7.1
	v7.5c0,0.4-0.4,0.7-0.7,0.7H145c-0.4,0-0.7-0.3-0.7-0.7v-7.6c0-2.5-1-3.9-3-3.9c-2.3,0-3.6,1.5-3.9,2.2v9.3c0,0.4-0.3,0.7-0.7,0.7
	h-1.8c-0.4,0-0.7-0.3-0.7-0.7L134.2,173.7L134.2,173.7z"/>
<path class="st0" d="M158.5,180.4c3.9,0,6.8,2.9,6.8,6.9c0,0.3,0,0.8-0.1,1c0,0.4-0.4,0.6-0.7,0.6h-10.3c0,2,1.9,4.1,4.5,4.1
	c1.7,0,2.8-0.6,3.7-1.3c0.3-0.2,0.6-0.3,0.9,0.1l0.9,1.4c0.3,0.3,0.4,0.6-0.1,1c-1.1,0.9-3,1.9-5.5,1.9c-4.5,0-7.5-3.6-7.5-7.8
	S154,180.4,158.5,180.4L158.5,180.4z M162.1,186.5c-0.1-1.8-1.5-3.4-3.7-3.4c-2.4,0-3.8,1.5-4,3.4H162.1L162.1,186.5z"/>
<path class="st0" d="M169.4,173.7c0-0.4,0.3-0.7,0.7-0.7h1.8c0.4,0,0.7,0.4,0.7,0.7v21.2c0,0.4-0.4,0.7-0.7,0.7h-1.8
	c-0.4,0-0.7-0.3-0.7-0.7V173.7z"/>
<path class="st0" d="M177.1,194.5c-0.2-0.2-0.4-0.4-0.3-0.8l0.7-1.4c0.2-0.3,0.6-0.4,1-0.2c0.9,0.5,1.9,1.1,3.7,1.1
	c1.3,0,2-0.6,2-1.5c0-1-1.1-1.6-3.2-2.6c-2.3-1-4.1-2.3-4.1-4.7c0-1.9,1.3-4.1,4.9-4.1c2.1,0,3.6,0.6,4.4,1.1
	c0.4,0.3,0.5,0.7,0.3,1.1l-0.5,1c-0.2,0.4-0.7,0.4-1,0.3c-1-0.4-2-0.8-3.2-0.8c-1.3,0-1.9,0.6-1.9,1.3c0,1,1.1,1.6,2.6,2.2
	c2.8,1.2,4.8,2.2,4.8,4.9c0,2.3-2,4.4-5.3,4.4C179.6,196,177.9,195,177.1,194.5L177.1,194.5z"/>
<path class="st0" d="M197.4,180.4c3.9,0,6.8,2.9,6.8,6.9c0,0.3,0,0.8-0.1,1c0,0.4-0.4,0.6-0.7,0.6h-10.3c0,2,1.9,4.1,4.5,4.1
	c1.7,0,2.8-0.6,3.7-1.3c0.3-0.2,0.6-0.3,0.9,0.1l0.9,1.4c0.3,0.3,0.4,0.6-0.1,1c-1.1,0.9-3,1.9-5.5,1.9c-4.5,0-7.5-3.6-7.5-7.8
	S192.9,180.4,197.4,180.4L197.4,180.4z M201.1,186.5c-0.1-1.8-1.5-3.4-3.7-3.4c-2.4,0-3.8,1.5-4,3.4H201.1L201.1,186.5z"/>
<path class="st0" d="M207.7,175.3c0-1.2,0.9-2.2,2.1-2.2s2.2,1,2.2,2.2s-1,2.2-2.2,2.2S207.7,176.5,207.7,175.3z M208.2,181.4
	c0-0.4,0.3-0.7,0.7-0.7h1.8c0.4,0,0.7,0.4,0.7,0.7v13.5c0,0.4-0.4,0.7-0.7,0.7h-1.8c-0.4,0-0.7-0.3-0.7-0.7V181.4z"/>
<path class="st0" d="M216.4,181.4c0-0.4,0.3-0.7,0.7-0.7h0.8c0.3,0,0.6,0.2,0.6,0.4l0.4,1.3c0.3-0.4,2-2.1,5-2.1
	c4.6,0,5.8,3.2,5.8,7.1v7.5c0,0.4-0.4,0.7-0.7,0.7h-1.8c-0.4,0-0.7-0.3-0.7-0.7v-7.6c0-2.4-1-3.9-2.9-3.9c-2.4,0-3.7,1.6-3.9,2.2
	v9.3c0,0.5-0.3,0.7-0.9,0.7h-1.6c-0.4,0-0.7-0.3-0.7-0.7L216.4,181.4L216.4,181.4z"/>
<path class="st0" d="M234,194.5c-0.2-0.2-0.4-0.4-0.3-0.8l0.7-1.4c0.2-0.3,0.6-0.4,1-0.2c0.9,0.5,1.9,1.1,3.7,1.1c1.3,0,2-0.6,2-1.5
	c0-1-1.1-1.6-3.2-2.6c-2.3-1-4.1-2.3-4.1-4.7c0-1.9,1.3-4.1,4.9-4.1c2.1,0,3.6,0.6,4.4,1.1c0.4,0.3,0.5,0.7,0.3,1.1l-0.5,1
	c-0.2,0.4-0.7,0.4-1,0.3c-1-0.4-2-0.8-3.2-0.8c-1.3,0-1.9,0.6-1.9,1.3c0,1,1.1,1.6,2.6,2.2c2.8,1.2,4.8,2.2,4.8,4.9
	c0,2.3-2,4.4-5.3,4.4C236.5,196,234.8,195,234,194.5L234,194.5z"/>
<path class="st0" d="M249.2,183.4h-1.7c-0.4,0-0.7-0.4-0.7-0.7v-1.3c0-0.4,0.3-0.7,0.7-0.7h1.7v-4.2c0-0.4,0.3-0.7,0.7-0.7h1.9
	c0.4,0,0.7,0.3,0.7,0.7v4.2h4c0.4,0,0.7,0.3,0.7,0.7v1.3c0,0.4-0.3,0.7-0.7,0.7h-3.9v8c0,1.3,0.5,1.5,1.2,1.5c0.9,0,1.9-0.4,2.4-0.7
	c0.5-0.3,0.7,0,0.9,0.3l0.6,1.5c0.2,0.4,0,0.6-0.4,0.9c-0.6,0.4-2.4,1.1-4.1,1.1c-3,0-3.8-1.8-3.8-4.5L249.2,183.4L249.2,183.4z"/>
<path class="st0" d="M260.3,175.3c0-1.2,0.9-2.2,2.1-2.2s2.2,1,2.2,2.2s-1,2.2-2.2,2.2S260.3,176.5,260.3,175.3z M260.8,181.4
	c0-0.4,0.3-0.7,0.7-0.7h1.8c0.4,0,0.7,0.4,0.7,0.7v13.5c0,0.4-0.4,0.7-0.7,0.7h-1.8c-0.4,0-0.7-0.3-0.7-0.7V181.4z"/>
<path class="st0" d="M269.9,183.4h-1.7c-0.4,0-0.7-0.4-0.7-0.7v-1.3c0-0.4,0.3-0.7,0.7-0.7h1.7v-4.2c0-0.4,0.3-0.7,0.7-0.7h1.9
	c0.4,0,0.7,0.3,0.7,0.7v4.2h4c0.4,0,0.7,0.3,0.7,0.7v1.3c0,0.4-0.3,0.7-0.7,0.7h-4v8c0,1.3,0.5,1.5,1.2,1.5c0.9,0,1.9-0.4,2.4-0.7
	s0.8,0,0.9,0.3l0.6,1.5c0.2,0.4,0,0.6-0.4,0.9c-0.6,0.4-2.4,1.1-4.1,1.1c-3,0-3.8-1.8-3.8-4.5L269.9,183.4L269.9,183.4z"/>
<path class="st0" d="M281.2,181.4c0-0.4,0.4-0.7,0.7-0.7h1.8c0.4,0,0.7,0.4,0.7,0.7v8c0,2.5,1,3.6,2.9,3.6c2.2,0,3.4-1.8,3.5-2.5
	v-9.1c0-0.6,0.3-0.7,0.8-0.7h1.6c0.4,0,0.7,0.4,0.7,0.7v13.5c0,0.4-0.4,0.7-0.7,0.7h-0.8c-0.4,0-0.5-0.3-0.7-0.6l-0.4-1.1
	c-0.3,0.3-1.7,2-4.7,2c-4.5,0-5.6-2.9-5.6-6.9L281.2,181.4L281.2,181.4z"/>
<path class="st0" d="M299.9,183.4h-1.7c-0.4,0-0.7-0.4-0.7-0.7v-1.3c0-0.4,0.3-0.7,0.7-0.7h1.7v-4.2c0-0.4,0.3-0.7,0.7-0.7h1.9
	c0.4,0,0.7,0.3,0.7,0.7v4.2h4c0.4,0,0.7,0.3,0.7,0.7v1.3c0,0.4-0.3,0.7-0.7,0.7h-4v8c0,1.3,0.5,1.5,1.2,1.5c0.9,0,1.9-0.4,2.4-0.7
	s0.8,0,0.9,0.3l0.6,1.5c0.2,0.4,0,0.6-0.4,0.9c-0.6,0.4-2.4,1.1-4.1,1.1c-3,0-3.8-1.8-3.8-4.5L299.9,183.4L299.9,183.4z"/>
<path class="st0" d="M313.1,183.4h-1.7c-0.4,0-0.7-0.4-0.7-0.7v-1.3c0-0.4,0.3-0.7,0.7-0.7h1.7v-4.2c0-0.4,0.3-0.7,0.7-0.7h1.9
	c0.4,0,0.7,0.3,0.7,0.7v4.2h4c0.4,0,0.7,0.3,0.7,0.7v1.3c0,0.4-0.3,0.7-0.7,0.7h-4v8c0,1.3,0.5,1.5,1.2,1.5c0.9,0,1.9-0.4,2.4-0.7
	s0.7,0,0.9,0.3l0.6,1.5c0.2,0.4,0,0.6-0.4,0.9c-0.6,0.4-2.4,1.1-4.1,1.1c-3,0-3.8-1.8-3.8-4.5L313.1,183.4L313.1,183.4z"/>
<path class="st0" d="M331,180.4c3.9,0,6.8,2.9,6.8,6.9c0,0.3,0,0.8-0.1,1c0,0.4-0.4,0.6-0.7,0.6h-10.3c0,2,1.9,4.1,4.5,4.1
	c1.7,0,2.8-0.6,3.7-1.3c0.3-0.2,0.6-0.3,0.9,0.1l0.9,1.4c0.3,0.3,0.4,0.6-0.1,1c-1.1,0.9-3,1.9-5.5,1.9c-4.5,0-7.5-3.6-7.5-7.8
	S326.5,180.4,331,180.4z M334.6,186.5c-0.1-1.8-1.5-3.4-3.7-3.4c-2.4,0-3.8,1.5-4,3.4H334.6L334.6,186.5z"/>
<path class="st0" d="M342.5,183.4h-1.7c-0.4,0-0.7-0.4-0.7-0.7v-1.3c0-0.4,0.3-0.7,0.7-0.7h1.7v-4.2c0-0.4,0.3-0.7,0.7-0.7h1.9
	c0.4,0,0.7,0.3,0.7,0.7v4.2h4c0.4,0,0.7,0.3,0.7,0.7v1.3c0,0.4-0.3,0.7-0.7,0.7h-4v8c0,1.3,0.5,1.5,1.2,1.5c0.9,0,1.9-0.4,2.4-0.7
	s0.8,0,0.9,0.3l0.6,1.5c0.2,0.4,0,0.6-0.4,0.9c-0.6,0.4-2.4,1.1-4.1,1.1c-3,0-3.8-1.8-3.8-4.5L342.5,183.4L342.5,183.4z"/>
</svg>
